<svg width="57" height="57" viewBox="0 0 57 57" fill="none" xmlns="http://www.w3.org/2000/svg">
<circle cx="29" cy="28" r="28" fill="#7F3DFF"/>
<mask id="path-2-inside-1_2609_3414" fill="white">
<path d="M29.5303 29.5291L39.5358 29.5291C39.7076 29.5424 39.8803 29.5201 40.043 29.4634C40.2057 29.4068 40.3549 29.3172 40.4814 29.2002C40.6078 29.0832 40.7087 28.9413 40.7777 28.7834C40.8467 28.6255 40.8823 28.4551 40.8823 28.2828C40.8823 28.1106 40.8467 27.9402 40.7777 27.7823C40.7087 27.6244 40.6078 27.4825 40.4814 27.3655C40.3549 27.2485 40.2057 27.1589 40.043 27.1022C39.8803 27.0456 39.7076 27.0233 39.5358 27.0366L29.5303 27.0366L29.5303 17.031C29.506 16.7171 29.3642 16.4239 29.1331 16.2101C28.9021 15.9962 28.5988 15.8774 28.284 15.8774C27.9692 15.8774 27.6659 15.9962 27.4349 16.2101C27.2039 16.4239 27.062 16.7171 27.0377 17.031L27.0377 27.0366L17.0322 27.0366C16.7019 27.0376 16.3855 27.1692 16.152 27.4027C15.9185 27.6362 15.7869 27.9526 15.7859 28.2828C15.7869 28.6131 15.9185 28.9295 16.152 29.163C16.3855 29.3965 16.7019 29.5281 17.0322 29.5291L27.0377 29.5291L27.0377 39.5347C27.0387 39.8649 27.1703 40.1813 27.4038 40.4148C27.6374 40.6484 27.9538 40.78 28.284 40.781C28.6142 40.78 28.9307 40.6484 29.1642 40.4148C29.3977 40.1813 29.5293 39.8649 29.5303 39.5347L29.5303 29.5291Z"/>
</mask>
<path d="M29.5303 29.5291L39.5358 29.5291C39.7076 29.5424 39.8803 29.5201 40.043 29.4634C40.2057 29.4068 40.3549 29.3172 40.4814 29.2002C40.6078 29.0832 40.7087 28.9413 40.7777 28.7834C40.8467 28.6255 40.8823 28.4551 40.8823 28.2828C40.8823 28.1106 40.8467 27.9402 40.7777 27.7823C40.7087 27.6244 40.6078 27.4825 40.4814 27.3655C40.3549 27.2485 40.2057 27.1589 40.043 27.1022C39.8803 27.0456 39.7076 27.0233 39.5358 27.0366L29.5303 27.0366L29.5303 17.031C29.506 16.7171 29.3642 16.4239 29.1331 16.2101C28.9021 15.9962 28.5988 15.8774 28.284 15.8774C27.9692 15.8774 27.6659 15.9962 27.4349 16.2101C27.2039 16.4239 27.062 16.7171 27.0377 17.031L27.0377 27.0366L17.0322 27.0366C16.7019 27.0376 16.3855 27.1692 16.152 27.4027C15.9185 27.6362 15.7869 27.9526 15.7859 28.2828C15.7869 28.6131 15.9185 28.9295 16.152 29.163C16.3855 29.3965 16.7019 29.5281 17.0322 29.5291L27.0377 29.5291L27.0377 39.5347C27.0387 39.8649 27.1703 40.1813 27.4038 40.4148C27.6374 40.6484 27.9538 40.78 28.284 40.781C28.6142 40.78 28.9307 40.6484 29.1642 40.4148C29.3977 40.1813 29.5293 39.8649 29.5303 39.5347L29.5303 29.5291Z" fill="black"/>
<path d="M29.5303 29.5291L29.5303 27.0291L27.0303 27.0291L27.0303 29.5291L29.5303 29.5291ZM39.5358 29.5291L39.7287 27.0366L39.6324 27.0291H39.5358L39.5358 29.5291ZM39.5358 27.0366L39.5358 29.5366H39.6324L39.7287 29.5291L39.5358 27.0366ZM29.5303 27.0366L27.0303 27.0366L27.0303 29.5366H29.5303L29.5303 27.0366ZM29.5303 17.031L32.0303 17.031V16.9344L32.0228 16.8382L29.5303 17.031ZM27.0377 17.031L24.5452 16.8382L24.5377 16.9344V17.031L27.0377 17.031ZM27.0377 27.0366L27.0377 29.5366H29.5377L29.5377 27.0366H27.0377ZM17.0322 27.0366L17.0322 24.5366L17.0247 24.5366L17.0322 27.0366ZM15.7859 28.2828L13.2859 28.2754L13.2859 28.2828L13.2859 28.2903L15.7859 28.2828ZM17.0322 29.5291L17.0247 32.0291L17.0322 32.0291L17.0322 29.5291ZM27.0377 29.5291H29.5377V27.0291H27.0377V29.5291ZM27.0377 39.5347L24.5377 39.5347L24.5377 39.5421L27.0377 39.5347ZM28.284 40.781L28.2766 43.2809L28.284 43.281L28.2914 43.2809L28.284 40.781ZM29.5303 39.5347L32.0303 39.5421L32.0303 39.5347L29.5303 39.5347ZM29.5303 32.0291L39.5358 32.0291L39.5358 27.0291L29.5303 27.0291L29.5303 32.0291ZM39.343 32.0217C39.8583 32.0615 40.3763 31.9945 40.8644 31.8246L39.2216 27.1022C39.3843 27.0456 39.5569 27.0233 39.7287 27.0366L39.343 32.0217ZM40.8644 31.8246C41.3525 31.6548 41.8003 31.3859 42.1796 31.0349L38.7832 27.3655C38.9096 27.2485 39.0588 27.1588 39.2216 27.1022L40.8644 31.8246ZM42.1796 31.0349C42.5589 30.6838 42.8615 30.2581 43.0685 29.7845L38.4869 27.7823C38.5559 27.6244 38.6567 27.4825 38.7832 27.3655L42.1796 31.0349ZM43.0685 29.7845C43.2754 29.3109 43.3823 28.7997 43.3823 28.2828L38.3823 28.2828C38.3823 28.1106 38.4179 27.9402 38.4869 27.7823L43.0685 29.7845ZM43.3823 28.2828C43.3823 27.766 43.2754 27.2548 43.0685 26.7812L38.4869 28.7834C38.4179 28.6255 38.3823 28.4551 38.3823 28.2828L43.3823 28.2828ZM43.0685 26.7812C42.8615 26.3076 42.5589 25.8819 42.1796 25.5308L38.7832 29.2002C38.6567 29.0832 38.5559 28.9413 38.4869 28.7834L43.0685 26.7812ZM42.1796 25.5308C41.8003 25.1798 41.3525 24.9109 40.8644 24.741L39.2216 29.4634C39.0588 29.4068 38.9096 29.3172 38.7832 29.2002L42.1796 25.5308ZM40.8644 24.741C40.3763 24.5712 39.8583 24.5042 39.343 24.544L39.7287 29.5291C39.5569 29.5424 39.3843 29.5201 39.2216 29.4634L40.8644 24.741ZM39.5358 24.5366L29.5303 24.5366L29.5303 29.5366L39.5358 29.5366L39.5358 24.5366ZM32.0303 27.0366L32.0303 17.031L27.0303 17.031L27.0303 27.0366L32.0303 27.0366ZM32.0228 16.8382C31.95 15.8965 31.5245 15.017 30.8313 14.3754L27.4349 18.0448C27.2039 17.8309 27.062 17.5377 27.0377 17.2239L32.0228 16.8382ZM30.8313 14.3754C30.1382 13.7338 29.2285 13.3774 28.284 13.3774L28.284 18.3774C27.9692 18.3774 27.6659 18.2586 27.4349 18.0448L30.8313 14.3754ZM28.284 13.3774C27.3395 13.3774 26.4298 13.7338 25.7367 14.3754L29.1331 18.0448C28.9021 18.2586 28.5988 18.3774 28.284 18.3774L28.284 13.3774ZM25.7367 14.3754C25.0435 15.017 24.618 15.8965 24.5452 16.8382L29.5303 17.2238C29.506 17.5377 29.3642 17.8309 29.1331 18.0448L25.7367 14.3754ZM24.5377 17.031L24.5377 27.0366H29.5377L29.5377 17.031L24.5377 17.031ZM27.0377 24.5366L17.0322 24.5366L17.0322 29.5366L27.0377 29.5366L27.0377 24.5366ZM17.0247 24.5366C16.034 24.5395 15.0848 24.9344 14.3842 25.6349L17.9198 29.1704C17.6863 29.404 17.3698 29.5356 17.0396 29.5366L17.0247 24.5366ZM14.3842 25.6349C13.6837 26.3354 13.2889 27.2847 13.2859 28.2754L18.2859 28.2903C18.2849 28.6205 18.1533 28.9369 17.9198 29.1704L14.3842 25.6349ZM13.2859 28.2903C13.2889 29.281 13.6837 30.2302 14.3842 30.9308L17.9198 27.3952C18.1533 27.6288 18.2849 27.9452 18.2859 28.2754L13.2859 28.2903ZM14.3842 30.9308C15.0848 31.6313 16.034 32.0262 17.0247 32.0291L17.0396 27.0291C17.3698 27.0301 17.6863 27.1617 17.9198 27.3952L14.3842 30.9308ZM17.0322 32.0291L27.0377 32.0291V27.0291L17.0322 27.0291L17.0322 32.0291ZM24.5377 29.5291V39.5347L29.5377 39.5347L29.5377 29.5291H24.5377ZM24.5377 39.5421C24.5407 40.5328 24.9356 41.4821 25.6361 42.1826L29.1716 38.6471C29.4051 38.8806 29.5367 39.197 29.5377 39.5272L24.5377 39.5421ZM25.6361 42.1826C26.3366 42.8831 27.2859 43.278 28.2766 43.2809L28.2914 38.281C28.6217 38.282 28.9381 38.4136 29.1716 38.6471L25.6361 42.1826ZM28.2914 43.2809C29.2821 43.278 30.2314 42.8831 30.9319 42.1826L27.3964 38.6471C27.6299 38.4136 27.9463 38.282 28.2766 38.281L28.2914 43.2809ZM30.9319 42.1826C31.6325 41.4821 32.0273 40.5328 32.0303 39.5421L27.0303 39.5272C27.0313 39.197 27.1629 38.8806 27.3964 38.6471L30.9319 42.1826ZM32.0303 39.5347V29.5291L27.0303 29.5291L27.0303 39.5347L32.0303 39.5347Z" fill="#FCFCFC" mask="url(#path-2-inside-1_2609_3414)"/>
</svg>
