<svg width="219" height="212" viewBox="0 0 219 212" fill="none" xmlns="http://www.w3.org/2000/svg">
<g clip-path="url(#clip0_2781_5874)">
<path opacity="0.18" d="M33.3074 54.399C29.4441 67.7866 14.0256 80.7125 11.1667 94.3096C8.51648 106.909 17.518 119.288 28.4705 127.25C39.423 135.211 52.5506 140.364 63.3486 148.496C74.0113 156.532 81.9814 167.157 91.8715 175.992C101.762 184.827 114.82 192.124 128.531 190.771C152.162 188.435 163.656 163.836 180.732 148.641C195.111 135.857 216.962 126.298 218.874 107.985C220.033 96.9019 212.979 86.6428 206.075 77.4952C192.631 59.6581 166.65 58.7526 145.112 49.3067C123.215 39.7116 48.5752 1.49483 33.3074 54.399Z" fill="#E468FD"/>
<path d="M126.485 38.7738L116.031 47.7154C115.316 48.3281 114.469 48.7958 113.544 49.0883C112.62 49.3807 111.639 49.4913 110.665 49.4128L92.5421 47.9391L91.4102 58.2053C91.4102 58.2053 111.72 61.1208 114.617 60.336C117.515 59.5512 135.452 47.0549 135.452 47.0549L138.098 33.3477C134.293 33.3335 128.826 36.2454 126.485 38.7738Z" fill="#E468FD"/>
<path d="M126.485 38.7738L116.031 47.7154C115.316 48.3281 114.469 48.7958 113.544 49.0883C112.62 49.3807 111.639 49.4913 110.665 49.4128L92.5421 47.9391L91.4102 58.2053C91.4102 58.2053 111.72 61.1208 114.617 60.336C117.515 59.5512 135.452 47.0549 135.452 47.0549L138.098 33.3477C134.293 33.3335 128.826 36.2454 126.485 38.7738Z" fill="#E468FD"/>
<path d="M126.485 38.7738L116.031 47.7154C115.316 48.3281 114.469 48.7958 113.544 49.0883C112.62 49.3807 111.639 49.4913 110.665 49.4128L92.5421 47.9391L91.4102 58.2053C91.4102 58.2053 111.72 61.1208 114.617 60.336C117.515 59.5512 135.452 47.0549 135.452 47.0549L138.098 33.3477C134.293 33.3335 128.826 36.2454 126.485 38.7738Z" fill="url(#paint0_linear_2781_5874)"/>
<path d="M195.767 173.19C195.767 179.174 178.498 184.028 157.199 184.028C135.901 184.028 118.632 179.174 118.632 173.19C118.632 172.615 118.327 167.235 118.632 166.684C121.514 161.5 137.948 162.349 157.199 162.349C175.836 162.349 192.17 161.745 195.767 166.684C196.281 167.391 195.767 172.441 195.767 173.19Z" fill="#E468FD"/>
<path d="M195.767 173.19C195.767 179.174 178.498 184.028 157.199 184.028C135.901 184.028 118.632 179.174 118.632 173.19C118.632 172.615 118.327 167.235 118.632 166.684C121.514 161.5 137.948 162.349 157.199 162.349C175.836 162.349 192.17 161.745 195.767 166.684C196.281 167.391 195.767 172.441 195.767 173.19Z" fill="url(#paint1_linear_2781_5874)"/>
<path d="M157.2 177.524C178.501 177.524 195.768 172.671 195.768 166.686C195.768 160.7 178.501 155.848 157.2 155.848C135.9 155.848 118.633 160.7 118.633 166.686C118.633 172.671 135.9 177.524 157.2 177.524Z" fill="#E468FD"/>
<path d="M187.919 164.906C187.912 165.366 187.779 165.816 187.532 166.216C185.214 170.169 172.508 173.187 157.19 173.187C141.872 173.187 129.177 170.169 126.847 166.216C126.602 165.816 126.469 165.365 126.461 164.906C126.461 160.328 140.218 156.621 157.182 156.621C174.146 156.621 187.919 160.328 187.919 164.906Z" fill="url(#paint2_linear_2781_5874)"/>
<path d="M187.541 166.216C185.223 170.169 172.516 173.187 157.198 173.187C141.88 173.187 129.185 170.169 126.855 166.216C129.173 162.264 141.88 159.238 157.198 159.238C172.516 159.238 185.215 162.264 187.541 166.216Z" fill="#E468FD"/>
<path d="M187.541 166.216C185.223 170.169 172.516 173.187 157.198 173.187C141.88 173.187 129.185 170.169 126.855 166.216C129.173 162.264 141.88 159.238 157.198 159.238C172.516 159.238 185.215 162.264 187.541 166.216Z" fill="url(#paint3_linear_2781_5874)"/>
<path d="M202.611 157.335C202.611 163.323 185.341 168.173 164.043 168.173C142.745 168.173 125.475 163.323 125.475 157.335C125.475 156.76 125.17 151.38 125.475 150.83C128.358 145.645 144.792 146.497 164.043 146.497C182.68 146.497 199.014 145.894 202.611 150.83C203.124 151.536 202.611 156.604 202.611 157.335Z" fill="#E468FD"/>
<path d="M202.611 157.335C202.611 163.323 185.341 168.173 164.043 168.173C142.745 168.173 125.475 163.323 125.475 157.335C125.475 156.76 125.17 151.38 125.475 150.83C128.358 145.645 144.792 146.497 164.043 146.497C182.68 146.497 199.014 145.894 202.611 150.83C203.124 151.536 202.611 156.604 202.611 157.335Z" fill="url(#paint4_linear_2781_5874)"/>
<path d="M164.044 161.668C185.344 161.668 202.612 156.816 202.612 150.83C202.612 144.844 185.344 139.992 164.044 139.992C142.744 139.992 125.477 144.844 125.477 150.83C125.477 156.816 142.744 161.668 164.044 161.668Z" fill="#E468FD"/>
<path d="M164.044 161.668C185.344 161.668 202.612 156.816 202.612 150.83C202.612 144.844 185.344 139.992 164.044 139.992C142.744 139.992 125.477 144.844 125.477 150.83C125.477 156.816 142.744 161.668 164.044 161.668Z" fill="url(#paint5_linear_2781_5874)"/>
<path d="M194.766 149.054C194.758 149.512 194.625 149.962 194.38 150.361C192.062 154.313 179.352 157.335 164.034 157.335C148.715 157.335 136.025 154.313 133.695 150.361C133.448 149.962 133.315 149.513 133.309 149.054C133.309 144.477 147.062 140.766 164.026 140.766C180.99 140.766 194.766 144.477 194.766 149.054Z" fill="url(#paint6_linear_2781_5874)"/>
<path d="M194.388 150.361C192.07 154.313 179.36 157.335 164.042 157.335C148.724 157.335 136.033 154.313 133.703 150.361C136.021 146.409 148.728 143.387 164.042 143.387C179.356 143.387 192.062 146.409 194.388 150.361Z" fill="url(#paint7_linear_2781_5874)"/>
<path d="M191.259 143.245C191.259 149.232 173.994 154.083 152.695 154.083C131.397 154.083 114.128 149.232 114.128 143.245C114.128 142.673 113.823 137.29 114.128 136.743C117.01 131.558 133.444 132.407 152.695 132.407C171.332 132.407 187.666 131.803 191.259 136.743C191.773 137.446 191.259 142.496 191.259 143.245Z" fill="#E468FD"/>
<path d="M191.259 143.245C191.259 149.232 173.994 154.083 152.695 154.083C131.397 154.083 114.128 149.232 114.128 143.245C114.128 142.673 113.823 137.29 114.128 136.743C117.01 131.558 133.444 132.407 152.695 132.407C171.332 132.407 187.666 131.803 191.259 136.743C191.773 137.446 191.259 142.496 191.259 143.245Z" fill="url(#paint8_linear_2781_5874)"/>
<path d="M152.693 147.578C173.993 147.578 191.26 142.726 191.26 136.74C191.26 130.755 173.993 125.902 152.693 125.902C131.392 125.902 114.125 130.755 114.125 136.74C114.125 142.726 131.392 147.578 152.693 147.578Z" fill="#E468FD"/>
<path d="M183.415 134.964C183.407 135.423 183.274 135.872 183.028 136.271C180.71 140.224 168 143.246 152.682 143.246C137.364 143.246 124.673 140.224 122.343 136.271C122.096 135.873 121.963 135.423 121.957 134.964C121.957 130.387 135.714 126.68 152.678 126.68C169.642 126.68 183.415 130.387 183.415 134.964Z" fill="url(#paint9_linear_2781_5874)"/>
<path d="M183.037 136.271C180.719 140.224 168.008 143.246 152.69 143.246C137.372 143.246 124.681 140.224 122.352 136.271C124.67 132.319 137.372 129.297 152.69 129.297C168.008 129.297 180.711 132.319 183.037 136.271Z" fill="url(#paint10_linear_2781_5874)"/>
<path d="M198.173 128.273C198.173 134.256 180.904 139.111 159.606 139.111C138.307 139.111 121.038 134.256 121.038 128.273C121.038 127.698 120.733 122.318 121.038 121.767C123.92 116.583 140.355 117.435 159.606 117.435C178.242 117.435 194.576 116.831 198.173 121.767C198.687 122.474 198.173 127.524 198.173 128.273Z" fill="#E468FD"/>
<path d="M198.173 128.273C198.173 134.256 180.904 139.111 159.606 139.111C138.307 139.111 121.038 134.256 121.038 128.273C121.038 127.698 120.733 122.318 121.038 121.767C123.92 116.583 140.355 117.435 159.606 117.435C178.242 117.435 194.576 116.831 198.173 121.767C198.687 122.474 198.173 127.524 198.173 128.273Z" fill="url(#paint11_linear_2781_5874)"/>
<path d="M159.607 132.606C180.907 132.606 198.174 127.753 198.174 121.768C198.174 115.782 180.907 110.93 159.607 110.93C138.306 110.93 121.039 115.782 121.039 121.768C121.039 127.753 138.306 132.606 159.607 132.606Z" fill="#E468FD"/>
<path d="M159.607 132.606C180.907 132.606 198.174 127.753 198.174 121.768C198.174 115.782 180.907 110.93 159.607 110.93C138.306 110.93 121.039 115.782 121.039 121.768C121.039 127.753 138.306 132.606 159.607 132.606Z" fill="url(#paint12_linear_2781_5874)"/>
<path d="M190.31 119.988C190.303 120.448 190.17 120.898 189.923 121.298C187.605 125.251 174.895 128.273 159.581 128.273C144.267 128.273 131.587 125.251 129.269 121.298C129.022 120.898 128.889 120.448 128.883 119.988C128.883 115.414 142.636 111.703 159.604 111.703C176.572 111.703 190.31 115.41 190.31 119.988Z" fill="url(#paint13_linear_2781_5874)"/>
<path d="M189.947 121.299C187.629 125.251 174.919 128.273 159.604 128.273C144.29 128.273 131.588 125.251 129.27 121.299C131.588 117.346 144.294 114.324 159.612 114.324C174.93 114.324 187.606 117.346 189.947 121.299Z" fill="url(#paint14_linear_2781_5874)"/>
<path d="M198.173 113.3C198.173 119.284 180.904 124.138 159.606 124.138C138.307 124.138 121.038 119.284 121.038 113.3C121.038 112.725 120.733 107.345 121.038 106.795C123.92 101.61 140.355 102.462 159.606 102.462C178.242 102.462 194.576 101.855 198.173 106.795C198.687 107.501 198.173 112.569 198.173 113.3Z" fill="#E468FD"/>
<path d="M198.173 113.3C198.173 119.284 180.904 124.138 159.606 124.138C138.307 124.138 121.038 119.284 121.038 113.3C121.038 112.725 120.733 107.345 121.038 106.795C123.92 101.61 140.355 102.462 159.606 102.462C178.242 102.462 194.576 101.855 198.173 106.795C198.687 107.501 198.173 112.569 198.173 113.3Z" fill="url(#paint15_linear_2781_5874)"/>
<path d="M159.607 117.633C180.907 117.633 198.174 112.781 198.174 106.795C198.174 100.809 180.907 95.957 159.607 95.957C138.306 95.957 121.039 100.809 121.039 106.795C121.039 112.781 138.306 117.633 159.607 117.633Z" fill="#E468FD"/>
<path d="M159.607 117.633C180.907 117.633 198.174 112.781 198.174 106.795C198.174 100.809 180.907 95.957 159.607 95.957C138.306 95.957 121.039 100.809 121.039 106.795C121.039 112.781 138.306 117.633 159.607 117.633Z" fill="url(#paint16_linear_2781_5874)"/>
<path d="M190.31 105.015C190.303 105.475 190.17 105.926 189.923 106.326C187.605 110.278 174.895 113.296 159.581 113.296C144.267 113.296 131.587 110.278 129.269 106.326C129.022 105.926 128.889 105.475 128.883 105.015C128.883 100.438 142.636 96.7305 159.604 96.7305C176.572 96.7305 190.31 100.438 190.31 105.015Z" fill="url(#paint17_linear_2781_5874)"/>
<path d="M189.947 106.326C187.629 110.278 174.919 113.296 159.604 113.296C144.29 113.296 131.588 110.278 129.27 106.326C131.588 102.373 144.294 99.3477 159.612 99.3477C174.93 99.3477 187.606 102.373 189.947 106.326Z" fill="url(#paint18_linear_2781_5874)"/>
<path d="M187.861 97.3931C187.861 103.377 170.591 108.231 149.293 108.231C127.995 108.231 110.725 103.377 110.725 97.3931C110.725 96.8178 110.42 91.4379 110.725 90.8875C113.608 85.7029 130.042 86.5516 149.293 86.5516C167.93 86.5516 184.264 85.9479 187.861 90.8875C188.378 91.5942 187.861 96.6438 187.861 97.3931Z" fill="#E468FD"/>
<path d="M187.861 97.3931C187.861 103.377 170.591 108.231 149.293 108.231C127.995 108.231 110.725 103.377 110.725 97.3931C110.725 96.8178 110.42 91.4379 110.725 90.8875C113.608 85.7029 130.042 86.5516 149.293 86.5516C167.93 86.5516 184.264 85.9479 187.861 90.8875C188.378 91.5942 187.861 96.6438 187.861 97.3931Z" fill="url(#paint19_linear_2781_5874)"/>
<path d="M149.294 101.723C170.594 101.723 187.862 96.8704 187.862 90.8848C187.862 84.8992 170.594 80.0469 149.294 80.0469C127.994 80.0469 110.727 84.8992 110.727 90.8848C110.727 96.8704 127.994 101.723 149.294 101.723Z" fill="#E468FD"/>
<path d="M180.02 89.1089C180.014 89.5686 179.881 90.0194 179.634 90.4193C177.316 94.3716 164.609 97.39 149.291 97.39C133.973 97.39 121.278 94.3716 118.949 90.4193C118.703 90.0188 118.571 89.5684 118.562 89.1089C118.562 84.5316 132.32 80.8242 149.284 80.8242C166.247 80.8242 180.02 84.5173 180.02 89.1089Z" fill="url(#paint20_linear_2781_5874)"/>
<path d="M179.638 90.4193C177.32 94.3717 164.614 97.3901 149.296 97.3901C133.978 97.3901 121.283 94.3717 118.953 90.4193C121.271 86.4669 133.978 83.4414 149.296 83.4414C164.614 83.4414 177.312 86.4669 179.638 90.4193Z" fill="#E468FD"/>
<path d="M179.638 90.4193C177.32 94.3717 164.614 97.3901 149.296 97.3901C133.978 97.3901 121.283 94.3717 118.953 90.4193C121.271 86.4669 133.978 83.4414 149.296 83.4414C164.614 83.4414 177.312 86.4669 179.638 90.4193Z" fill="url(#paint21_linear_2781_5874)"/>
<path opacity="0.19" d="M164.513 81.9313C165.722 82.4852 166.711 83.6464 166.564 84.8858C166.483 85.596 166.035 86.2742 166.07 86.9951C166.1 87.7728 166.68 88.4333 166.962 89.1648C167.615 90.8623 166.576 92.8225 164.926 93.8097C164.081 94.2803 163.172 94.6446 162.222 94.8927C157.1 96.4069 151.806 97.3733 146.444 97.7727C143.601 97.9822 140.718 98.0354 137.968 98.7279C136.218 99.1682 134.549 99.8607 132.795 100.305C132.37 100.442 131.915 100.482 131.47 100.418C130.589 100.23 130.071 99.2996 130.168 98.4687C130.326 97.6408 130.79 96.8884 131.481 96.338C132.899 95.0703 134.734 94.2997 136.392 93.3054C138.516 92.0341 140.348 90.3971 142.287 88.8878C143.979 87.5739 145.764 86.3524 147.537 85.1343C149.712 83.6429 151.911 82.1408 154.348 81.0506C156.786 79.9604 161.217 80.6955 160.792 80.6955C160.904 81.633 163.655 81.5335 164.513 81.9313Z" fill="url(#paint22_linear_2781_5874)"/>
<path d="M128.883 70.6217C128.883 70.6217 96.0987 68.0897 95.1715 84.1797L92.6758 87.9403L110.725 97.3933C110.725 97.3933 109.222 93.4374 113.333 91.5127C117.444 89.588 134.033 88.6505 136.602 84.1797C139.171 79.7089 128.883 70.6217 128.883 70.6217Z" fill="#36233A"/>
<path d="M134.546 74.5898C134.546 74.5898 113.576 82.1821 111.791 90.4135C110.006 98.6449 110.725 97.3914 110.725 97.3914L118.452 102.409L129.775 100.651C129.775 100.651 132.093 95.9567 139.487 94.6997C146.882 93.4426 157.367 91.3865 159.635 86.0137C161.902 80.6409 161.528 74.5898 161.528 74.5898H134.546Z" fill="#523D56"/>
<path opacity="0.19" d="M72.0392 212C111.249 212 143.035 206.203 143.035 199.053C143.035 191.902 111.249 186.105 72.0392 186.105C32.8291 186.105 1.04297 191.902 1.04297 199.053C1.04297 206.203 32.8291 212 72.0392 212Z" fill="url(#paint23_linear_2781_5874)"/>
<path d="M125.061 197.976L118.942 199.621C117.577 199.985 116.144 200.082 114.735 199.905C113.327 199.727 111.975 199.28 110.767 198.592C109.558 197.903 108.521 196.989 107.722 195.909C106.923 194.828 106.379 193.605 106.127 192.32L101.41 168.865L125.088 160.559L131.409 188.158C131.889 190.228 131.502 192.389 130.326 194.209C129.149 196.029 127.269 197.374 125.061 197.976Z" fill="#E468FD"/>
<path d="M125.059 197.976L119.074 163.609L125.283 161.414L131.406 188.157C131.886 190.228 131.499 192.389 130.323 194.209C129.146 196.029 127.266 197.374 125.059 197.976Z" fill="url(#paint24_linear_2781_5874)"/>
<path d="M53.8586 194.35L47.5034 194.798C46.0843 194.893 44.6591 194.714 43.3199 194.272C41.9807 193.83 40.7572 193.135 39.7282 192.231C38.6992 191.328 37.8875 190.236 37.3456 189.027C36.8037 187.818 36.5435 186.517 36.5818 185.21L37.1806 161.361L62.1956 157.742L62.2497 185.952C62.261 188.067 61.4026 190.107 59.8465 191.664C58.2905 193.222 56.1517 194.181 53.8586 194.35Z" fill="#E468FD"/>
<path d="M53.8594 194.351L55.6365 159.583L62.2041 158.613L62.2544 185.957C62.2646 188.071 61.4052 190.111 59.8485 191.668C58.2917 193.225 56.1525 194.183 53.8594 194.351Z" fill="url(#paint25_linear_2781_5874)"/>
<path d="M142.837 127.025C138.421 153.069 108.252 173.218 71.7054 173.218C35.1584 173.218 4.96656 153.069 0.550781 127.025C4.96656 100.989 35.1314 80.8398 71.7054 80.8398C108.279 80.8398 138.421 100.989 142.837 127.025Z" fill="#E468FD"/>
<path d="M142.837 127.025C138.421 153.069 108.252 173.218 71.7054 173.218C35.1584 173.218 4.96656 153.069 0.550781 127.025C4.96656 100.989 35.1314 80.8398 71.7054 80.8398C108.279 80.8398 138.421 100.989 142.837 127.025Z" fill="url(#paint26_linear_2781_5874)"/>
<path d="M144.145 98.392C144.145 98.392 147.452 86.993 160.486 88.005C173.521 89.0171 172.038 105.924 160.486 114.993C160.486 115.007 147.737 100.533 144.145 98.392Z" fill="url(#paint27_linear_2781_5874)"/>
<path d="M144.145 98.392C144.145 98.392 147.452 86.993 160.486 88.005C173.521 89.0171 172.038 105.924 160.486 114.993C160.486 115.007 147.737 100.533 144.145 98.392Z" fill="url(#paint28_linear_2781_5874)"/>
<path d="M150.742 101.418C150.742 101.418 153.06 93.4746 162.127 94.1812C171.195 94.8879 170.175 106.667 162.127 113.002C162.127 112.995 153.246 102.91 150.742 101.418Z" fill="#E468FD"/>
<path d="M150.742 101.418C150.742 101.418 153.06 93.4746 162.127 94.1812C171.195 94.8879 170.175 106.667 162.127 113.002C162.127 112.995 153.246 102.91 150.742 101.418Z" fill="url(#paint29_linear_2781_5874)"/>
<path d="M143.395 133.636C143.395 162.79 111.291 186.434 71.7071 186.434C32.1235 186.434 1.10225e-05 162.79 1.10225e-05 133.636C-0.00164391 131.423 0.18306 129.214 0.552466 127.027C4.96824 153.071 35.133 173.22 71.7071 173.22C108.281 173.22 138.434 153.071 142.85 127.027C143.217 129.214 143.399 131.423 143.395 133.636Z" fill="url(#paint30_linear_2781_5874)"/>
<path d="M143.395 133.636C143.395 162.791 111.295 186.434 71.7071 186.434C32.1196 186.434 0 162.791 0 133.636C0.00027316 131.425 0.184966 129.217 0.552455 127.031C4.96823 153.071 35.133 173.224 71.7071 173.224C80.4919 173.245 89.23 172.048 97.6261 169.673C100.925 167.542 96.6332 156.619 96.5405 156.37L102.776 159.35L108.749 165.646C127.099 157.478 140.072 143.423 142.85 127.038C143.217 129.221 143.399 131.427 143.395 133.636Z" fill="url(#paint31_linear_2781_5874)"/>
<path d="M186.246 139.855C186.252 145.815 184.841 151.703 182.113 157.11C174.772 171.669 158.461 181.772 139.504 181.772C133.171 181.791 126.9 180.637 121.063 178.38C115.226 176.122 109.943 172.807 105.53 168.633C97.3488 160.936 92.7652 150.605 92.7578 139.844C92.7578 116.691 113.689 97.9414 139.504 97.9414C165.319 97.9414 186.246 116.702 186.246 139.855Z" fill="#E468FD"/>
<path d="M186.246 139.855C186.252 145.815 184.841 151.703 182.113 157.11C174.772 171.669 158.461 181.772 139.504 181.772C133.171 181.791 126.9 180.637 121.063 178.38C115.226 176.122 109.943 172.807 105.53 168.633C97.3488 160.936 92.7652 150.605 92.7578 139.844C92.7578 116.691 113.689 97.9414 139.504 97.9414C165.319 97.9414 186.246 116.702 186.246 139.855Z" fill="url(#paint32_linear_2781_5874)"/>
<path d="M149.341 134.796C151.217 134.796 152.737 133.388 152.737 131.65C152.737 129.913 151.217 128.504 149.341 128.504C147.466 128.504 145.945 129.913 145.945 131.65C145.945 133.388 147.466 134.796 149.341 134.796Z" fill="#E468FD"/>
<path d="M171.228 132.179C173.103 132.179 174.624 130.771 174.624 129.033C174.624 127.295 173.103 125.887 171.228 125.887C169.352 125.887 167.832 127.295 167.832 129.033C167.832 130.771 169.352 132.179 171.228 132.179Z" fill="#E468FD"/>
<path d="M149.341 134.796C151.217 134.796 152.737 133.388 152.737 131.65C152.737 129.913 151.217 128.504 149.341 128.504C147.466 128.504 145.945 129.913 145.945 131.65C145.945 133.388 147.466 134.796 149.341 134.796Z" fill="url(#paint33_linear_2781_5874)"/>
<path d="M171.228 132.179C173.103 132.179 174.624 130.771 174.624 129.033C174.624 127.295 173.103 125.887 171.228 125.887C169.352 125.887 167.832 127.295 167.832 129.033C167.832 130.771 169.352 132.179 171.228 132.179Z" fill="url(#paint34_linear_2781_5874)"/>
<path d="M175.94 136.83L179.563 154.859C178.269 155.442 176.894 155.86 175.476 156.102C168.383 157.313 161.773 154.046 160.714 148.79C159.656 143.535 164.547 138.268 171.64 137.047C173.056 136.794 174.502 136.721 175.94 136.83Z" fill="#E468FD"/>
<path d="M175.94 136.83L179.563 154.859C178.269 155.442 176.894 155.86 175.476 156.102C168.383 157.313 161.773 154.046 160.714 148.79C159.656 143.535 164.547 138.268 171.64 137.047C173.056 136.794 174.502 136.721 175.94 136.83Z" fill="url(#paint35_linear_2781_5874)"/>
<path d="M179.301 154.949C182.174 154.464 183.693 150.022 182.695 145.028C181.697 140.034 178.559 136.379 175.686 136.864C172.813 137.349 171.294 141.791 172.292 146.785C173.29 151.779 176.428 155.434 179.301 154.949Z" fill="#E468FD"/>
<path d="M179.301 154.949C182.174 154.464 183.693 150.022 182.695 145.028C181.697 140.034 178.559 136.379 175.686 136.864C172.813 137.349 171.294 141.791 172.292 146.785C173.29 151.779 176.428 155.434 179.301 154.949Z" fill="url(#paint36_linear_2781_5874)"/>
<path d="M177.118 145.362C177.662 147.117 177.802 148.619 177.427 148.718C177.052 148.818 176.303 147.479 175.758 145.725C175.213 143.97 175.074 142.472 175.449 142.372C175.824 142.273 176.573 143.612 177.118 145.362Z" fill="url(#paint37_linear_2781_5874)"/>
<path d="M180.859 144.288C181.42 146.064 181.566 147.612 181.192 147.715C180.817 147.818 180.06 146.444 179.503 144.651C178.947 142.857 178.796 141.323 179.171 141.224C179.546 141.124 180.303 142.495 180.859 144.288Z" fill="url(#paint38_linear_2781_5874)"/>
<path d="M182.176 156.359L182.114 157.112C174.774 171.672 158.463 181.775 139.505 181.775C133.173 181.793 126.901 180.64 121.064 178.382C115.227 176.125 109.944 172.81 105.531 168.635C105.531 168.635 109.105 163.898 135.317 167.961C161.53 172.023 182.176 156.359 182.176 156.359Z" fill="url(#paint39_linear_2781_5874)"/>
<path d="M119.294 108.131C119.294 108.131 115.991 96.732 102.952 97.7476C89.9136 98.7633 91.401 115.666 102.952 124.736C102.952 124.75 115.701 110.276 119.294 108.131Z" fill="url(#paint40_linear_2781_5874)"/>
<path d="M119.294 108.131C119.294 108.131 115.991 96.732 102.952 97.7476C89.9136 98.7633 91.401 115.666 102.952 124.736C102.952 124.75 115.701 110.276 119.294 108.131Z" fill="url(#paint41_linear_2781_5874)"/>
<path d="M117.778 109.645C117.778 109.645 115.46 101.705 106.392 102.412C97.3252 103.118 98.3451 114.894 106.392 121.232C106.392 121.225 115.274 111.151 117.778 109.645Z" fill="#E468FD"/>
<path d="M117.778 109.645C117.778 109.645 115.46 101.705 106.392 102.412C97.3252 103.118 98.3451 114.894 106.392 121.232C106.392 121.225 115.274 111.151 117.778 109.645Z" fill="url(#paint42_linear_2781_5874)"/>
<path d="M97.5899 95.1939L94.252 96.5647L90.9257 97.9354C71.4739 87.2821 54.0542 87.4668 44.9059 88.6635C42.6305 88.9344 40.3843 89.3823 38.1914 90.0023L47.8922 86.4512C47.8922 86.4512 53.4979 84.3028 68.5378 85.1053C87.6149 86.1138 97.5899 95.1939 97.5899 95.1939Z" fill="#36233A"/>
<path d="M97.5897 95.1939L94.2518 96.5647L86.1389 91.4262C73.1813 84.1962 49.5648 87.2182 49.5648 87.2182L44.8863 88.6635C42.611 88.9344 40.3648 89.3823 38.1719 90.0023L47.8727 86.4512C47.8727 86.4512 53.4783 84.3028 68.5183 85.1053C87.6146 86.1138 97.5897 95.1939 97.5897 95.1939Z" fill="#E468FD"/>
<path d="M97.5897 95.1939L94.2518 96.5647L86.1388 91.4262C73.1813 84.1962 49.5648 87.2182 49.5648 87.2182L44.8863 88.6635C42.611 88.9344 40.3648 89.3823 38.1719 90.0023L47.8727 86.4512C47.8727 86.4512 53.4783 84.3028 68.5183 85.1053C87.6146 86.1138 97.5897 95.1939 97.5897 95.1939Z" fill="url(#paint43_linear_2781_5874)"/>
<path d="M89.1968 205.842L82.8532 206.428C81.4388 206.552 80.0118 206.402 78.6641 205.989C77.3163 205.575 76.0777 204.907 75.0278 204.027C73.978 203.147 73.1402 202.075 72.5684 200.879C71.9965 199.684 71.7033 198.391 71.7075 197.085V173.218L96.626 169.064L97.3986 197.266C97.463 199.384 96.653 201.445 95.1315 203.036C93.6099 204.627 91.4897 205.63 89.1968 205.842ZM25.9697 199.642L19.63 200.224C18.214 200.35 16.7851 200.201 15.4354 199.788C14.0858 199.375 12.8453 198.706 11.794 197.825C10.7428 196.944 9.90409 195.871 9.33203 194.673C8.75996 193.476 8.46724 192.182 8.47273 190.874V144.469L33.3911 162.863L33.4491 165.083L34.1484 191.063C34.2124 193.177 33.4054 195.235 31.8889 196.826C30.3725 198.417 28.2584 199.423 25.9697 199.642Z" fill="#E468FD"/>
<path d="M25.9688 199.642C25.9688 199.642 27.4368 170.523 29.4457 167.299C31.4547 164.074 33.4597 165.083 33.4597 165.083L34.159 191.063C34.2228 193.179 33.4142 195.239 31.8953 196.83C30.3764 198.421 28.2595 199.425 25.9688 199.642Z" fill="url(#paint44_linear_2781_5874)"/>
<path d="M89.1953 205.842L90.0993 171.042L96.6361 169.934L97.374 197.277C97.4358 199.389 96.6277 201.445 95.1113 203.033C93.5948 204.621 91.4819 205.625 89.1953 205.842Z" fill="url(#paint45_linear_2781_5874)"/>
<path d="M127.852 56.6255L127.211 69.4769C127.211 69.4769 127.864 76.4974 134.289 77.2111C140.713 77.9249 161.544 74.5904 161.544 74.5904C161.544 74.5904 162.958 51.9913 161.544 46.8138C160.13 41.6363 160.153 34.5412 153.856 34.4241C150.7 34.3637 142.444 32.8119 138.098 33.3587C135.828 33.6444 133.728 34.6227 132.134 36.1365C130.541 37.6504 129.548 39.6123 129.313 41.7073C128.884 45.4218 128.358 50.475 127.852 56.6255Z" fill="#E468FD"/>
<path d="M127.852 56.6255L127.211 69.4769C127.211 69.4769 127.864 76.4974 134.289 77.2111C140.713 77.9249 161.544 74.5904 161.544 74.5904C161.544 74.5904 162.958 51.9913 161.544 46.8138C160.13 41.6363 160.153 34.5412 153.856 34.4241C150.7 34.3637 142.444 32.8119 138.098 33.3587C135.828 33.6444 133.728 34.6227 132.134 36.1365C130.541 37.6504 129.548 39.6123 129.313 41.7073C128.884 45.4218 128.358 50.475 127.852 56.6255Z" fill="url(#paint46_linear_2781_5874)"/>
<path d="M150.439 38.8817C152.163 35.6396 157.046 35.1744 159.325 38.1111C160.751 39.9542 161.782 42.7062 161.554 46.8149C161.145 54.2153 155.226 61.3743 150.996 65.6001C149.795 66.8031 148.314 67.7417 146.664 68.3461C145.014 68.9504 143.237 69.205 141.465 69.0908L116.168 66.4062L117.327 57.1734L140.457 57.706L150.439 38.8817Z" fill="#E468FD"/>
<path d="M150.439 38.8817C152.163 35.6396 157.046 35.1744 159.325 38.1111C160.751 39.9542 161.782 42.7062 161.554 46.8149C161.145 54.2153 155.226 61.3743 150.996 65.6001C149.795 66.8031 148.314 67.7417 146.664 68.3461C145.014 68.9504 143.237 69.205 141.465 69.0908L116.168 66.4062L117.327 57.1734L140.457 57.706L150.439 38.8817Z" fill="#E468FD"/>
<path d="M150.439 38.8817C152.163 35.6396 157.046 35.1744 159.325 38.1111C160.751 39.9542 161.782 42.7062 161.554 46.8149C161.145 54.2153 155.226 61.3743 150.996 65.6001C149.795 66.8031 148.314 67.7417 146.664 68.3461C145.014 68.9504 143.237 69.205 141.465 69.0908L116.168 66.4062L117.327 57.1734L140.457 57.706L150.439 38.8817Z" fill="#E468FD"/>
<path d="M150.439 38.8817C152.163 35.6396 157.046 35.1744 159.325 38.1111C160.751 39.9542 161.782 42.7062 161.554 46.8149C161.145 54.2153 155.226 61.3743 150.996 65.6001C149.795 66.8031 148.314 67.7417 146.664 68.3461C145.014 68.9504 143.237 69.205 141.465 69.0908L116.168 66.4062L117.327 57.1734L140.457 57.706L150.439 38.8817Z" fill="url(#paint47_linear_2781_5874)"/>
<path d="M76.9063 50.426C75.84 50.8983 74.7003 51.5588 74.4492 52.6277C75.3801 52.634 76.3089 52.5471 77.2192 52.3685L74.7969 54.666C74.6492 54.7734 74.5513 54.9282 74.5226 55.0993C74.5226 55.4721 75.0751 55.5822 75.4769 55.5503C76.8256 55.4536 78.1616 55.242 79.4677 54.9182C79.5604 55.5041 78.583 55.7385 78.3666 56.296C78.1735 56.786 78.6911 57.308 79.2436 57.4075C79.8082 57.4482 80.3758 57.378 80.9087 57.2015C82.7206 56.8002 84.6175 57.0346 86.4796 57.0808C88.3417 57.1269 90.3429 56.9281 91.7839 55.8343C92.1207 55.6026 92.3803 55.289 92.5334 54.9288C92.6333 54.5572 92.6543 54.1714 92.5952 53.7925C92.5218 52.7271 93.2983 50.4935 92.9159 49.6022C92.5527 48.7677 90.8876 48.1817 90.0223 48.0504C84.6947 47.2301 78.865 49.5738 76.9063 50.426Z" fill="url(#paint48_linear_2781_5874)"/>
<path d="M110.597 62.9811C114.685 50.271 109.569 37.6768 99.171 34.851C88.7727 32.0253 77.0292 40.0381 72.9411 52.7482C68.8531 65.4582 73.9686 78.0524 84.3669 80.8782C94.7652 83.7039 106.509 75.6911 110.597 62.9811Z" fill="#E468FD"/>
<path d="M110.597 62.9811C114.685 50.271 109.569 37.6768 99.171 34.851C88.7727 32.0253 77.0292 40.0381 72.9411 52.7482C68.8531 65.4582 73.9686 78.0524 84.3669 80.8782C94.7652 83.7039 106.509 75.6911 110.597 62.9811Z" fill="url(#paint49_linear_2781_5874)"/>
<path d="M106.808 61.3371C110.896 48.6271 105.764 36.0283 95.3447 33.197C84.926 30.3657 73.1659 38.374 69.0778 51.0841C64.9898 63.7941 70.1219 76.3929 80.5406 79.2242C90.9594 82.0555 102.719 74.0472 106.808 61.3371Z" fill="#E468FD"/>
<path d="M106.808 61.3371C110.896 48.6271 105.764 36.0283 95.3447 33.197C84.926 30.3657 73.1659 38.374 69.0778 51.0841C64.9898 63.7941 70.1219 76.3929 80.5406 79.2242C90.9594 82.0555 102.719 74.0472 106.808 61.3371Z" fill="url(#paint50_linear_2781_5874)"/>
<path d="M106.808 61.3371C110.896 48.6271 105.764 36.0283 95.3447 33.197C84.926 30.3657 73.1659 38.374 69.0778 51.0841C64.9898 63.7941 70.1219 76.3929 80.5406 79.2242C90.9594 82.0555 102.719 74.0472 106.808 61.3371Z" fill="url(#paint51_linear_2781_5874)"/>
<path d="M100.802 59.8145C97.2785 70.5743 88.0066 77.4918 80.0945 75.2688C79.8163 75.1907 79.542 75.1019 79.2755 75.006C71.9351 72.3036 68.7595 62.1475 72.1515 51.7748C75.6748 41.0221 84.9468 34.101 92.8589 36.3205C94.0337 36.6513 95.136 37.1694 96.1157 37.851C101.679 41.7075 103.792 50.6775 100.802 59.8145Z" fill="url(#paint52_linear_2781_5874)"/>
<path d="M100.801 59.8135C97.2779 70.5733 88.0059 77.4909 80.0938 75.2679C79.8156 75.1898 79.5413 75.101 79.2748 75.0051C73.7155 71.1486 71.5984 62.1786 74.5886 53.0416C78.1158 42.2854 87.3839 35.3643 95.296 37.5873C95.5741 37.6654 95.8484 37.7542 96.115 37.85C101.678 41.7065 103.791 50.6766 100.801 59.8135Z" fill="#E468FD"/>
<path d="M100.801 59.8135C97.2779 70.5733 88.0059 77.4909 80.0938 75.2679C79.8156 75.1898 79.5414 75.101 79.2748 75.0051C73.7155 71.1486 71.5984 62.1786 74.5886 53.0416C78.1158 42.2854 87.3839 35.3643 95.296 37.5873C95.5741 37.6654 95.8484 37.7542 96.115 37.85C101.678 41.7065 103.791 50.6766 100.801 59.8135Z" fill="url(#paint53_linear_2781_5874)"/>
<path d="M102.199 60.0126C101.133 60.4849 99.9972 61.1454 99.7422 62.2143C100.673 62.2206 101.602 62.1336 102.512 61.955L100.101 64.2348C99.9547 64.3439 99.8581 64.4999 99.831 64.6716C99.831 65.0267 100.38 65.151 100.781 65.1226C102.13 65.026 103.466 64.8144 104.772 64.4905C104.865 65.0764 103.888 65.3108 103.671 65.8683C103.478 66.3584 103.996 66.8804 104.548 66.9798C105.113 67.0188 105.68 66.9487 106.213 66.7739C108.025 66.369 109.922 66.607 111.784 66.6496C113.646 66.6922 115.647 66.5004 117.092 65.4031C117.429 65.1718 117.687 64.8579 117.838 64.4976C117.938 64.126 117.959 63.7402 117.9 63.3613C117.826 62.2959 118.603 60.0623 118.22 59.1745C117.861 58.34 116.192 57.7541 115.327 57.6227C109.992 56.774 104.158 59.1319 102.199 60.0126Z" fill="url(#paint54_linear_2781_5874)"/>
<path d="M72.3974 44.0352C72.6228 45.1857 72.784 46.346 72.8803 47.5117C73.0001 49.2197 71.0375 48.094 71.0375 48.094C71.0375 48.094 72.1965 49.4577 71.9609 50.2247C71.7252 50.9917 70.5778 50.2247 70.5778 50.2247C70.5778 50.2247 71.1457 51.3539 71.0105 52.0677C70.8753 52.7815 69.3454 52.2027 69.3454 52.2027C69.3454 52.2027 70.1837 53.1117 70.0176 53.9285C69.8515 54.7452 68.677 54.557 68.677 54.557C68.677 54.557 66.5097 53.4349 67.1317 51.8298C67.7537 50.2247 66.8111 47.7247 67.8387 47.2489C68.8663 46.773 69.5154 44.7631 70.6048 44.5536C71.2209 44.4406 71.8219 44.2667 72.3974 44.0352Z" fill="url(#paint55_linear_2781_5874)"/>
<path d="M140.216 36.3684C140.692 36.6112 141.25 36.6821 141.78 36.5672C145.034 36.1998 148.197 35.3319 151.137 33.9998C150.09 31.372 150.535 28.4637 150.284 25.6689C150.195 24.7315 149.897 23.6484 148.985 23.2649C148.309 22.9843 147.521 23.1832 146.841 23.4531C145.487 24.0235 144.282 24.8569 143.311 25.896C142.34 26.935 141.626 28.155 141.216 29.4722C140.83 30.644 140.88 31.8833 140.533 33.0588C140.251 33.9962 138.995 35.5552 140.216 36.3684Z" fill="url(#paint56_linear_2781_5874)"/>
<path d="M133.518 11.0244C133.518 11.0244 131.034 23.4248 133.723 27.1748C136.412 30.9247 140.291 31.9119 144.154 29.2735C146.641 27.5044 148.86 25.4384 150.753 23.1301C150.753 23.1301 153.198 22.8176 154.067 20.8894C154.937 18.9611 152.472 17.8922 151.147 18.6948C149.822 19.4973 153.585 13.3433 151.946 12.626C150.308 11.9087 142.404 1.298 133.518 11.0244Z" fill="url(#paint57_linear_2781_5874)"/>
<path d="M143.078 0.738626C141.757 0.623909 140.424 0.751863 139.157 1.11504C135.896 1.92114 132.701 3.35933 129.333 3.14626C128.668 3.10365 127.903 3.02908 127.432 3.46586C127.237 3.68652 127.125 3.95873 127.111 4.24251C127.097 4.52629 127.182 4.8067 127.355 5.04255C127.708 5.50705 128.168 5.89392 128.703 6.17534C127.93 6.5127 127.868 7.61708 128.429 8.21722C128.989 8.81735 129.92 9.00201 130.778 8.99846C130.028 9.15471 129.885 10.2165 130.43 10.7207C130.975 11.225 131.852 11.257 132.597 11.0758C133.447 10.8107 134.274 10.4854 135.07 10.1028C137.388 9.19022 139.976 9.14405 142.483 9.3003C145.103 9.46365 147.989 9.97856 149.573 11.9175C150.05 12.5133 150.372 13.2021 150.513 13.9305C150.655 14.659 150.612 15.4076 150.388 16.1184C149.889 17.6596 148.533 19.048 148.777 20.6425C149.955 20.3868 150.229 18.7 151.408 18.4621C152.339 18.2704 153.142 18.2029 153.946 19.2398C154.189 19.5523 154.85 18.3698 155.105 18.0608C155.993 16.9529 156.897 15.813 157.311 14.4884C157.593 13.5362 157.612 12.5342 157.365 11.5736C157.119 10.6129 156.616 9.7241 155.901 8.98781C155.569 8.70947 155.291 8.38173 155.078 8.01836C154.951 7.60018 154.878 7.17006 154.858 6.73641C154.63 5.47223 153.482 4.54539 152.389 3.75705C150.56 2.43605 148.685 1.1837 146.764 0C146.343 0.958794 146.609 1.74358 145.605 1.70452C144.925 1.67966 143.901 0.838057 143.078 0.738626ZM150.094 27.0664C149.804 26.8326 149.589 26.5303 149.473 26.1923C149.356 25.8543 149.343 25.4934 149.434 25.1488C149.624 24.459 150.063 23.8485 150.678 23.4159C151.215 23.0181 151.812 22.694 152.451 22.4535C152.42 22.9187 149.913 26.9386 150.094 27.0664Z" fill="#523D56"/>
<path d="M150.786 20.57C150.81 20.3029 150.912 20.0466 151.08 19.8278C151.183 19.7374 151.305 19.6673 151.439 19.6218C151.656 19.5224 151.896 19.4713 152.138 19.4727C152.262 19.4771 152.382 19.5125 152.486 19.5751C152.589 19.6377 152.672 19.725 152.726 19.8278C152.77 19.9415 152.786 20.0628 152.772 20.1829C152.728 20.6729 152.523 21.1391 152.184 21.5196C151.846 21.9001 151.389 22.177 150.875 22.3136C150.78 22.3418 150.677 22.3418 150.582 22.3136C150.525 22.2892 150.474 22.2546 150.432 22.2119C150.391 22.1692 150.359 22.1193 150.338 22.065C150.261 21.9366 150.219 21.7932 150.215 21.6468C150.211 21.5003 150.245 21.3551 150.315 21.2234C150.493 20.9783 150.709 20.8896 150.786 20.57Z" fill="url(#paint58_linear_2781_5874)"/>
</g>
<defs>
<linearGradient id="paint0_linear_2781_5874" x1="127.559" y1="61.4652" x2="116.925" y2="46.0408" gradientUnits="userSpaceOnUse">
<stop/>
<stop offset="1" stop-opacity="0"/>
</linearGradient>
<linearGradient id="paint1_linear_2781_5874" x1="126.169" y1="173.162" x2="203.663" y2="173.162" gradientUnits="userSpaceOnUse">
<stop/>
<stop offset="1" stop-opacity="0"/>
</linearGradient>
<linearGradient id="paint2_linear_2781_5874" x1="157.364" y1="151.174" x2="157.256" y2="161.884" gradientUnits="userSpaceOnUse">
<stop stop-color="#E468FD"/>
<stop offset="1" stop-color="#D569EB"/>
</linearGradient>
<linearGradient id="paint3_linear_2781_5874" x1="161.03" y1="178.428" x2="158.843" y2="170.184" gradientUnits="userSpaceOnUse">
<stop/>
<stop offset="0.84" stop-opacity="0"/>
</linearGradient>
<linearGradient id="paint4_linear_2781_5874" x1="132.928" y1="157.311" x2="210.426" y2="157.311" gradientUnits="userSpaceOnUse">
<stop/>
<stop offset="1" stop-opacity="0"/>
</linearGradient>
<linearGradient id="paint5_linear_2781_5874" x1="172.636" y1="161.562" x2="179.883" y2="172.269" gradientUnits="userSpaceOnUse">
<stop offset="0.32" stop-color="white" stop-opacity="0"/>
<stop offset="1" stop-color="white"/>
</linearGradient>
<linearGradient id="paint6_linear_2781_5874" x1="180.29" y1="128.951" x2="172.365" y2="140.557" gradientUnits="userSpaceOnUse">
<stop/>
<stop offset="1" stop-opacity="0"/>
</linearGradient>
<linearGradient id="paint7_linear_2781_5874" x1="183.745" y1="129.875" x2="164.303" y2="153.804" gradientUnits="userSpaceOnUse">
<stop/>
<stop offset="0.84" stop-opacity="0"/>
</linearGradient>
<linearGradient id="paint8_linear_2781_5874" x1="177.394" y1="148.213" x2="187.642" y2="151.466" gradientUnits="userSpaceOnUse">
<stop/>
<stop offset="1" stop-opacity="0"/>
</linearGradient>
<linearGradient id="paint9_linear_2781_5874" x1="152.86" y1="121.229" x2="152.749" y2="131.939" gradientUnits="userSpaceOnUse">
<stop stop-color="#E468FD"/>
<stop offset="1" stop-color="#D569EB"/>
</linearGradient>
<linearGradient id="paint10_linear_2781_5874" x1="122.352" y1="136.271" x2="183.037" y2="136.271" gradientUnits="userSpaceOnUse">
<stop stop-color="#E468FD"/>
<stop offset="1" stop-color="#D569EB"/>
</linearGradient>
<linearGradient id="paint11_linear_2781_5874" x1="130.302" y1="128.248" x2="207.797" y2="128.248" gradientUnits="userSpaceOnUse">
<stop/>
<stop offset="1" stop-opacity="0"/>
</linearGradient>
<linearGradient id="paint12_linear_2781_5874" x1="168.357" y1="131.327" x2="177.887" y2="143.65" gradientUnits="userSpaceOnUse">
<stop offset="0.32" stop-color="white" stop-opacity="0"/>
<stop offset="1" stop-color="white"/>
</linearGradient>
<linearGradient id="paint13_linear_2781_5874" x1="159.77" y1="106.256" x2="159.659" y2="116.966" gradientUnits="userSpaceOnUse">
<stop stop-color="#E468FD"/>
<stop offset="1" stop-color="#D569EB"/>
</linearGradient>
<linearGradient id="paint14_linear_2781_5874" x1="169.46" y1="104.438" x2="162.636" y2="118.256" gradientUnits="userSpaceOnUse">
<stop/>
<stop offset="0.84" stop-opacity="0"/>
</linearGradient>
<linearGradient id="paint15_linear_2781_5874" x1="128.27" y1="113.272" x2="205.764" y2="113.272" gradientUnits="userSpaceOnUse">
<stop/>
<stop offset="1" stop-opacity="0"/>
</linearGradient>
<linearGradient id="paint16_linear_2781_5874" x1="165.011" y1="115.676" x2="171.18" y2="127.665" gradientUnits="userSpaceOnUse">
<stop offset="0.32" stop-color="white" stop-opacity="0"/>
<stop offset="1" stop-color="white"/>
</linearGradient>
<linearGradient id="paint17_linear_2781_5874" x1="158.727" y1="100.725" x2="161.103" y2="114.505" gradientUnits="userSpaceOnUse">
<stop/>
<stop offset="0.84" stop-opacity="0"/>
</linearGradient>
<linearGradient id="paint18_linear_2781_5874" x1="159.075" y1="106.389" x2="190.425" y2="101.74" gradientUnits="userSpaceOnUse">
<stop/>
<stop offset="1" stop-opacity="0"/>
</linearGradient>
<linearGradient id="paint19_linear_2781_5874" x1="126.774" y1="97.3647" x2="204.268" y2="97.3647" gradientUnits="userSpaceOnUse">
<stop/>
<stop offset="1" stop-opacity="0"/>
</linearGradient>
<linearGradient id="paint20_linear_2781_5874" x1="153.788" y1="73.7966" x2="147.62" y2="98.6886" gradientUnits="userSpaceOnUse">
<stop/>
<stop offset="1" stop-opacity="0"/>
</linearGradient>
<linearGradient id="paint21_linear_2781_5874" x1="146.935" y1="82.6033" x2="151.913" y2="102.095" gradientUnits="userSpaceOnUse">
<stop offset="0.32" stop-color="white" stop-opacity="0"/>
<stop offset="1" stop-color="white"/>
</linearGradient>
<linearGradient id="paint22_linear_2781_5874" x1="147.862" y1="90.4539" x2="184.872" y2="90.4539" gradientUnits="userSpaceOnUse">
<stop stop-color="#591866"/>
<stop offset="1" stop-color="#A51AC1"/>
</linearGradient>
<linearGradient id="paint23_linear_2781_5874" x1="72.0469" y1="207.362" x2="72.0273" y2="163.979" gradientUnits="userSpaceOnUse">
<stop stop-color="#591866"/>
<stop offset="1" stop-color="#A51AC1"/>
</linearGradient>
<linearGradient id="paint24_linear_2781_5874" x1="137.155" y1="232.475" x2="121.425" y2="150.235" gradientUnits="userSpaceOnUse">
<stop/>
<stop offset="1" stop-opacity="0"/>
</linearGradient>
<linearGradient id="paint25_linear_2781_5874" x1="55.934" y1="103.529" x2="64.5456" y2="458.537" gradientUnits="userSpaceOnUse">
<stop stop-color="#E468FD"/>
<stop offset="0.2" stop-color="#BC5DCF"/>
<stop offset="0.46" stop-color="#8E509B"/>
<stop offset="0.69" stop-color="#6E4776"/>
<stop offset="0.87" stop-color="#59415E"/>
<stop offset="0.99" stop-color="#523D56"/>
</linearGradient>
<linearGradient id="paint26_linear_2781_5874" x1="70.5696" y1="152.341" x2="75.0556" y2="32.9829" gradientUnits="userSpaceOnUse">
<stop offset="0.32" stop-color="white" stop-opacity="0"/>
<stop offset="0.54" stop-color="white"/>
</linearGradient>
<linearGradient id="paint27_linear_2781_5874" x1="156.017" y1="123.388" x2="157.93" y2="61.2687" gradientUnits="userSpaceOnUse">
<stop offset="0.02" stop-color="#E468FD"/>
<stop offset="1" stop-color="white"/>
</linearGradient>
<linearGradient id="paint28_linear_2781_5874" x1="156.886" y1="102.245" x2="157.016" y2="87.8912" gradientUnits="userSpaceOnUse">
<stop offset="0.66" stop-color="white" stop-opacity="0"/>
<stop offset="1" stop-color="white"/>
</linearGradient>
<linearGradient id="paint29_linear_2781_5874" x1="150.742" y1="103.567" x2="168.56" y2="103.567" gradientUnits="userSpaceOnUse">
<stop/>
<stop offset="1" stop-opacity="0"/>
</linearGradient>
<linearGradient id="paint30_linear_2781_5874" x1="1.10225e-05" y1="156.729" x2="143.395" y2="156.729" gradientUnits="userSpaceOnUse">
<stop stop-color="#E468FD"/>
<stop offset="1" stop-color="#D569EB"/>
</linearGradient>
<linearGradient id="paint31_linear_2781_5874" x1="95.8374" y1="240.382" x2="80.1043" y2="158.142" gradientUnits="userSpaceOnUse">
<stop/>
<stop offset="1" stop-opacity="0"/>
</linearGradient>
<linearGradient id="paint32_linear_2781_5874" x1="136.518" y1="167.418" x2="147.083" y2="51.9566" gradientUnits="userSpaceOnUse">
<stop stop-color="white" stop-opacity="0"/>
<stop offset="0.54" stop-color="white"/>
</linearGradient>
<linearGradient id="paint33_linear_2781_5874" x1="146.451" y1="125.876" x2="155.882" y2="148.178" gradientUnits="userSpaceOnUse">
<stop/>
<stop offset="1" stop-opacity="0"/>
</linearGradient>
<linearGradient id="paint34_linear_2781_5874" x1="165.599" y1="117.78" x2="175.026" y2="140.081" gradientUnits="userSpaceOnUse">
<stop/>
<stop offset="1" stop-opacity="0"/>
</linearGradient>
<linearGradient id="paint35_linear_2781_5874" x1="170.311" y1="156.702" x2="169.119" y2="124.869" gradientUnits="userSpaceOnUse">
<stop stop-color="white" stop-opacity="0"/>
<stop offset="0.67" stop-color="white"/>
</linearGradient>
<linearGradient id="paint36_linear_2781_5874" x1="157.244" y1="116.406" x2="182.284" y2="159.538" gradientUnits="userSpaceOnUse">
<stop/>
<stop offset="1" stop-opacity="0"/>
</linearGradient>
<linearGradient id="paint37_linear_2781_5874" x1="173.846" y1="134.535" x2="181.876" y2="174.893" gradientUnits="userSpaceOnUse">
<stop/>
<stop offset="1" stop-opacity="0"/>
</linearGradient>
<linearGradient id="paint38_linear_2781_5874" x1="177.664" y1="133.777" x2="185.694" y2="174.135" gradientUnits="userSpaceOnUse">
<stop/>
<stop offset="1" stop-opacity="0"/>
</linearGradient>
<linearGradient id="paint39_linear_2781_5874" x1="158.76" y1="228.344" x2="143.027" y2="146.103" gradientUnits="userSpaceOnUse">
<stop/>
<stop offset="1" stop-opacity="0"/>
</linearGradient>
<linearGradient id="paint40_linear_2781_5874" x1="105.997" y1="121.845" x2="107.913" y2="59.726" gradientUnits="userSpaceOnUse">
<stop offset="0.02" stop-color="#E468FD"/>
<stop offset="1" stop-color="white"/>
</linearGradient>
<linearGradient id="paint41_linear_2781_5874" x1="105.711" y1="127.133" x2="107.673" y2="70.8392" gradientUnits="userSpaceOnUse">
<stop stop-color="white" stop-opacity="0"/>
<stop offset="0.54" stop-color="white"/>
</linearGradient>
<linearGradient id="paint42_linear_2781_5874" x1="99.9638" y1="111.797" x2="117.778" y2="111.797" gradientUnits="userSpaceOnUse">
<stop/>
<stop offset="1" stop-opacity="0"/>
</linearGradient>
<linearGradient id="paint43_linear_2781_5874" x1="64.8558" y1="77.6232" x2="68.6782" y2="100.022" gradientUnits="userSpaceOnUse">
<stop/>
<stop offset="1" stop-opacity="0"/>
</linearGradient>
<linearGradient id="paint44_linear_2781_5874" x1="45.0458" y1="250.096" x2="29.3128" y2="167.856" gradientUnits="userSpaceOnUse">
<stop/>
<stop offset="1" stop-opacity="0"/>
</linearGradient>
<linearGradient id="paint45_linear_2781_5874" x1="104.428" y1="238.736" x2="88.6954" y2="156.496" gradientUnits="userSpaceOnUse">
<stop/>
<stop offset="1" stop-opacity="0"/>
</linearGradient>
<linearGradient id="paint46_linear_2781_5874" x1="175.302" y1="62.0693" x2="123.973" y2="49.8199" gradientUnits="userSpaceOnUse">
<stop/>
<stop offset="1" stop-opacity="0"/>
</linearGradient>
<linearGradient id="paint47_linear_2781_5874" x1="152.298" y1="71.2748" x2="137.245" y2="47.9882" gradientUnits="userSpaceOnUse">
<stop/>
<stop offset="1" stop-opacity="0"/>
</linearGradient>
<linearGradient id="paint48_linear_2781_5874" x1="74.4492" y1="52.6561" x2="93.0356" y2="52.6561" gradientUnits="userSpaceOnUse">
<stop stop-color="#E14EFF"/>
<stop offset="0.42" stop-color="#EAD1EF"/>
<stop offset="1" stop-color="#EBC9F2"/>
</linearGradient>
<linearGradient id="paint49_linear_2781_5874" x1="82.0469" y1="55.5895" x2="133.144" y2="69.7385" gradientUnits="userSpaceOnUse">
<stop/>
<stop offset="1" stop-opacity="0"/>
</linearGradient>
<linearGradient id="paint50_linear_2781_5874" x1="121.171" y1="42.5751" x2="4.0529" y2="99.4511" gradientUnits="userSpaceOnUse">
<stop offset="0.32" stop-color="white" stop-opacity="0"/>
<stop offset="0.54" stop-color="white"/>
</linearGradient>
<linearGradient id="paint51_linear_2781_5874" x1="83.2058" y1="58.2603" x2="135.398" y2="31.513" gradientUnits="userSpaceOnUse">
<stop offset="0.32" stop-color="white" stop-opacity="0"/>
<stop offset="0.54" stop-color="white"/>
</linearGradient>
<linearGradient id="paint52_linear_2781_5874" x1="82.6829" y1="53.1668" x2="68.741" y2="41.727" gradientUnits="userSpaceOnUse">
<stop/>
<stop offset="1" stop-opacity="0"/>
</linearGradient>
<linearGradient id="paint53_linear_2781_5874" x1="79.7384" y1="45.3215" x2="97.3343" y2="74.4049" gradientUnits="userSpaceOnUse">
<stop offset="0.32" stop-color="white" stop-opacity="0"/>
<stop offset="1" stop-color="white"/>
</linearGradient>
<linearGradient id="paint54_linear_2781_5874" x1="99.7422" y1="62.2143" x2="118.329" y2="62.2143" gradientUnits="userSpaceOnUse">
<stop stop-color="#E14EFF"/>
<stop offset="0.42" stop-color="#EAD1EF"/>
<stop offset="1" stop-color="#EBC9F2"/>
</linearGradient>
<linearGradient id="paint55_linear_2781_5874" x1="68.6114" y1="44.8413" x2="69.2358" y2="47.1883" gradientUnits="userSpaceOnUse">
<stop stop-color="#E14EFF"/>
<stop offset="0.42" stop-color="#EAD1EF"/>
<stop offset="1" stop-color="#EBC9F2"/>
</linearGradient>
<linearGradient id="paint56_linear_2781_5874" x1="140.699" y1="26.0915" x2="148.575" y2="34.8524" gradientUnits="userSpaceOnUse">
<stop stop-color="#E14EFF"/>
<stop offset="1" stop-color="#EBC9F2"/>
</linearGradient>
<linearGradient id="paint57_linear_2781_5874" x1="131.158" y1="9.05358" x2="146.091" y2="25.6646" gradientUnits="userSpaceOnUse">
<stop stop-color="#E14EFF"/>
<stop offset="1" stop-color="#EBC9F2"/>
</linearGradient>
<linearGradient id="paint58_linear_2781_5874" x1="150.211" y1="20.9002" x2="152.776" y2="20.9002" gradientUnits="userSpaceOnUse">
<stop stop-color="#E14EFF"/>
<stop offset="1" stop-color="#EBC9F2"/>
</linearGradient>
<clipPath id="clip0_2781_5874">
<rect width="219" height="212" fill="white"/>
</clipPath>
</defs>
</svg>
