<svg width="32" height="32" viewBox="0 0 32 32" fill="none" xmlns="http://www.w3.org/2000/svg">
<path d="M12.6083 24.9903L12.6005 24.9901L12.5927 24.99C12.5266 24.9898 12.4611 24.9764 12.4002 24.9506C12.3392 24.9249 12.284 24.8873 12.2377 24.84L12.2352 24.8375C12.1421 24.7439 12.0898 24.6171 12.0898 24.485C12.0898 24.3532 12.1419 24.2267 12.2347 24.1331C12.2349 24.1329 12.2351 24.1327 12.2352 24.1325L17.8942 18.4736L17.8944 18.4734C18.5498 17.8171 18.918 16.9275 18.918 16C18.918 15.0725 18.5498 14.183 17.8944 13.5267L17.8942 13.5265L12.2502 7.88249C12.1749 7.78871 12.1359 7.67078 12.1406 7.55028C12.1454 7.42444 12.1976 7.30508 12.2866 7.21603C12.3757 7.12698 12.495 7.07481 12.6209 7.06995C12.7417 7.06528 12.86 7.10459 12.9539 7.18028L18.6475 12.814C18.6478 12.8143 18.648 12.8145 18.6483 12.8148C19.067 13.2326 19.3992 13.7289 19.6259 14.2753C19.8528 14.822 19.9696 15.4081 19.9696 16C19.9696 16.5919 19.8528 17.178 19.6259 17.7247C19.3991 18.2714 19.0666 18.768 18.6475 19.186L18.6474 19.1862L12.9874 24.8362L12.9874 24.8361L12.9833 24.8403C12.9346 24.8901 12.8762 24.9291 12.8116 24.9549C12.747 24.9807 12.6778 24.9928 12.6083 24.9903Z" fill="black" stroke="#7F3DFF"/>
</svg>
