<svg width="44" height="44" viewBox="0 0 44 44" fill="none" xmlns="http://www.w3.org/2000/svg">
<g id="square-arrow-right 2">
<path id="Vector" fill-rule="evenodd" clip-rule="evenodd" d="M21.1376 28.4723C20.6006 29.0092 19.7301 29.0092 19.1931 28.4723L13.6931 22.9722C13.1562 22.4352 13.1562 21.5648 13.6931 21.0278L19.1931 15.5278C19.7301 14.9908 20.6006 14.9908 21.1376 15.5278C21.6746 16.0648 21.6746 16.9352 21.1376 17.4722L17.985 20.625H29.332C30.0914 20.625 30.707 21.2406 30.707 22C30.707 22.7594 30.0914 23.375 29.332 23.375H17.985L21.1376 26.5277C21.6746 27.0647 21.6746 27.9353 21.1376 28.4723Z" fill="#7F3DFF"/>
<path id="Vector_2" fill-rule="evenodd" clip-rule="evenodd" d="M22.1039 41.707H21.8935C17.6614 41.707 14.3449 41.7071 11.7571 41.3592C9.10853 41.003 7.01834 40.2599 5.37788 38.6194C3.73741 36.979 2.99436 34.8889 2.63815 32.2402C2.29036 29.6525 2.29036 26.3359 2.29036 22.1039V21.8935C2.29036 17.6614 2.29036 14.3449 2.63815 11.7571C2.99436 9.10853 3.73741 7.01834 5.37788 5.37788C7.01834 3.73741 9.10853 2.99436 11.7571 2.63815C14.3449 2.29036 17.6614 2.29036 21.8935 2.29036H22.1039C26.3359 2.29036 29.6525 2.29036 32.2402 2.63815C34.8889 2.99436 36.979 3.73741 38.6194 5.37788C40.2599 7.01834 41.003 9.10853 41.3592 11.7571C41.7071 14.3449 41.707 17.6614 41.707 21.8935V22.1039C41.707 26.3359 41.7071 29.6525 41.3592 32.2402C41.003 34.8889 40.2599 36.979 38.6194 38.6194C36.979 40.2599 34.8889 41.003 32.2402 41.3592C29.6525 41.7071 26.3359 41.707 22.1039 41.707ZM31.8738 38.6337C34.2176 38.3186 35.6305 37.7193 36.6749 36.6749C37.7193 35.6305 38.3186 34.2176 38.6337 31.8738C38.9541 29.4905 38.957 26.3588 38.957 21.9987C38.957 17.6387 38.9541 14.507 38.6337 12.1236C38.3186 9.7799 37.7193 8.36695 36.6749 7.3225C35.6305 6.27805 34.2176 5.67873 31.8738 5.36376C29.4905 5.0433 26.3588 5.04036 21.9987 5.04036C17.6387 5.04036 14.507 5.0433 12.1236 5.36376C9.7799 5.67873 8.36695 6.27805 7.3225 7.3225C6.27805 8.36695 5.67873 9.7799 5.36376 12.1236C5.0433 14.507 5.04036 17.6387 5.04036 21.9987C5.04036 26.3588 5.0433 29.4905 5.36376 31.8738C5.67873 34.2176 6.27805 35.6305 7.3225 36.6749C8.36695 37.7193 9.7799 38.3186 12.1236 38.6337C14.507 38.9541 17.6387 38.957 21.9987 38.957C26.3588 38.957 29.4905 38.9541 31.8738 38.6337Z" fill="#7F3DFF"/>
</g>
</svg>
