<svg width="44" height="44" viewBox="0 0 44 44" fill="none" xmlns="http://www.w3.org/2000/svg">
<g id="square-arrow-right 2">
<path id="Vector" fill-rule="evenodd" clip-rule="evenodd" d="M22.8624 15.5277C23.3994 14.9908 24.2699 14.9908 24.8069 15.5277L30.3069 21.0278C30.8438 21.5648 30.8438 22.4352 30.3069 22.9722L24.8069 28.4722C24.2699 29.0092 23.3994 29.0092 22.8624 28.4722C22.3254 27.9352 22.3254 27.0648 22.8624 26.5278L26.015 23.375H14.668C13.9086 23.375 13.293 22.7594 13.293 22C13.293 21.2406 13.9086 20.625 14.668 20.625H26.015L22.8624 17.4723C22.3254 16.9353 22.3254 16.0647 22.8624 15.5277Z" fill="#7F3DFF"/>
<path id="Vector_2" fill-rule="evenodd" clip-rule="evenodd" d="M21.8961 2.29297H22.1065C26.3386 2.29295 29.6551 2.29293 32.2429 2.64084C34.8915 2.99695 36.9817 3.74007 38.6221 5.38056C40.2626 7.02104 41.0056 9.11108 41.3619 11.7598C41.7096 14.3475 41.7096 17.6641 41.7096 21.8961V22.1065C41.7096 26.3386 41.7096 29.6551 41.3619 32.2429C41.0056 34.8915 40.2626 36.9817 38.6221 38.6221C36.9817 40.2626 34.8915 41.0056 32.2429 41.3619C29.6551 41.7096 26.3386 41.7096 22.1065 41.7096H21.8961C17.6641 41.7096 14.3475 41.7096 11.7598 41.3619C9.11108 41.0056 7.02104 40.2626 5.38056 38.6221C3.74007 36.9817 2.99695 34.8915 2.64084 32.2429C2.29293 29.6551 2.29295 26.3386 2.29297 22.1065V21.8961C2.29295 17.6641 2.29293 14.3475 2.64084 11.7598C2.99695 9.11108 3.74007 7.02104 5.38056 5.38056C7.02104 3.74007 9.11108 2.99695 11.7598 2.64084C14.3475 2.29293 17.6641 2.29295 21.8961 2.29297ZM12.1262 5.36631C9.78245 5.68143 8.36946 6.28073 7.3251 7.3251C6.28073 8.36946 5.68143 9.78245 5.36631 12.1262C5.04588 14.5095 5.04297 17.6412 5.04297 22.0013C5.04297 26.3613 5.04588 29.493 5.36631 31.8764C5.68143 34.2201 6.28073 35.6331 7.3251 36.6775C8.36946 37.722 9.78245 38.3213 12.1262 38.6362C14.5095 38.9567 17.6412 38.9596 22.0013 38.9596C26.3613 38.9596 29.493 38.9567 31.8764 38.6362C34.2201 38.3213 35.6331 37.722 36.6775 36.6775C37.722 35.6331 38.3213 34.2201 38.6362 31.8764C38.9567 29.493 38.9596 26.3613 38.9596 22.0013C38.9596 17.6412 38.9567 14.5095 38.6362 12.1262C38.3213 9.78245 37.722 8.36946 36.6775 7.3251C35.6331 6.28073 34.2201 5.68143 31.8764 5.36631C29.493 5.04588 26.3613 5.04297 22.0013 5.04297C17.6412 5.04297 14.5095 5.04588 12.1262 5.36631Z" fill="#7F3DFF"/>
</g>
</svg>
