<svg width="18" height="18" viewBox="0 0 18 18" fill="none" xmlns="http://www.w3.org/2000/svg">
<path d="M11.9426 9.09844L17.441 3.6C18.2285 2.8125 18.2285 1.53984 17.441 0.752344C16.6535 -0.0351562 15.3809 -0.0351562 14.5934 0.752344L9.09844 6.25078L3.43828 0.590625C2.65078 -0.196875 1.37812 -0.196875 0.590625 0.590625C-0.196875 1.37812 -0.196875 2.65078 0.590625 3.43828L6.25078 9.09844L0.783984 14.5652C-0.00351564 15.3527 -0.00351564 16.6254 0.783984 17.4129C1.17773 17.8031 1.69102 18 2.20781 18C2.72461 18 3.23789 17.8031 3.63164 17.4094L9.09844 11.9426L14.4035 17.2477C14.7973 17.6414 15.3105 17.8383 15.8273 17.8383C16.3441 17.8383 16.8574 17.6414 17.2512 17.2477C18.0387 16.4602 18.0387 15.1875 17.2512 14.4L11.9426 9.09844Z" fill="white"/>
</svg>
