<svg width="30" height="26" viewBox="0 0 30 26" fill="none" xmlns="http://www.w3.org/2000/svg">
<path d="M26.85 26H3.15C2.31457 26 1.51335 25.6681 0.922614 25.0774C0.331874 24.4866 0 23.6854 0 22.85V8H30V22.85C30 23.6854 29.6681 24.4866 29.0774 25.0774C28.4866 25.6681 27.6854 26 26.85 26ZM2 10V22.85C2 23.155 2.12116 23.4475 2.33683 23.6632C2.44361 23.77 2.57039 23.8547 2.70991 23.9125C2.84944 23.9703 2.99898 24 3.15 24H26.85C27.155 24 27.4475 23.8788 27.6632 23.6632C27.8788 23.4475 28 23.155 28 22.85V10H2Z" fill="#7F3DFF"/>
<path d="M30 10H0V3.15C0 2.31457 0.331874 1.51335 0.922614 0.922614C1.51335 0.331874 2.31457 0 3.15 0H26.85C27.6854 0 28.4866 0.331874 29.0774 0.922614C29.6681 1.51335 30 2.31457 30 3.15V10ZM2 8H28V3.15C28 2.845 27.8788 2.55249 27.6632 2.33683C27.4475 2.12116 27.155 2 26.85 2H3.15C2.845 2 2.55249 2.12116 2.33683 2.33683C2.12116 2.55249 2 2.845 2 3.15V8Z" fill="#7F3DFF"/>
<path d="M15.5889 0.548177L12.8281 8.67188L14.7218 9.31541L17.4825 1.19172L15.5889 0.548177Z" fill="#7F3DFF"/>
<path d="M23.2945 0.547696L20.5352 8.67188L22.4289 9.31508L25.1883 1.19091L23.2945 0.547696Z" fill="#7F3DFF"/>
<path d="M7.56547 0.552084L4.80469 8.67578L6.69832 9.31932L9.45911 1.19562L7.56547 0.552084Z" fill="#7F3DFF"/>
<path d="M1 9V22.85C1 23.4202 1.22652 23.9671 1.62972 24.3703C2.03292 24.7735 2.57978 25 3.15 25H26.85C27.4202 25 27.9671 24.7735 28.3703 24.3703C28.7735 23.9671 29 23.4202 29 22.85V9H1ZM18.78 17L13.34 20.54C13.3236 20.5507 13.3045 20.5568 13.2849 20.5577C13.2653 20.5586 13.2459 20.5542 13.2285 20.545C13.2112 20.5359 13.1966 20.5222 13.1863 20.5055C13.176 20.4888 13.1704 20.4696 13.17 20.45V13.45C13.1704 13.4304 13.176 13.4112 13.1863 13.3945C13.1966 13.3778 13.2112 13.3641 13.2285 13.355C13.2459 13.3458 13.2653 13.3414 13.2849 13.3423C13.3045 13.3432 13.3236 13.3493 13.34 13.36L18.78 16.87C18.7909 16.8803 18.7996 16.8927 18.8055 16.9064C18.8114 16.9202 18.8145 16.935 18.8145 16.95C18.8145 16.965 18.8114 16.9798 18.8055 16.9936C18.7996 17.0073 18.7909 17.0197 18.78 17.03V17Z" fill="#7F3DFF"/>
</svg>
