<svg width="30" height="27" viewBox="0 0 30 27" fill="none" xmlns="http://www.w3.org/2000/svg">
<g id="Layer 3">
<path id="Vector" d="M26.85 26.0601H3.15C2.31457 26.0601 1.51335 25.7282 0.922614 25.1374C0.331874 24.5467 0 23.7455 0 22.9101V8.06006H30V22.9101C30 23.7455 29.6681 24.5467 29.0774 25.1374C28.4866 25.7282 27.6854 26.0601 26.85 26.0601ZM2 10.0601V22.9101C2 23.2151 2.12116 23.5076 2.33683 23.7232C2.44361 23.83 2.57039 23.9147 2.70991 23.9725C2.84944 24.0303 2.99898 24.0601 3.15 24.0601H26.85C27.155 24.0601 27.4475 23.9389 27.6632 23.7232C27.8788 23.5076 28 23.2151 28 22.9101V10.0601H2Z" fill="#7F3DFF"/>
<path id="Vector_2" d="M30 10.0601H0V3.21006C0 2.37463 0.331874 1.57341 0.922614 0.982672C1.51335 0.391933 2.31457 0.0600586 3.15 0.0600586H26.85C27.6854 0.0600586 28.4866 0.391933 29.0774 0.982672C29.6681 1.57341 30 2.37463 30 3.21006V10.0601ZM2 8.06006H28V3.21006C28 2.90506 27.8788 2.61255 27.6632 2.39689C27.4475 2.18122 27.155 2.06006 26.85 2.06006H3.15C2.845 2.06006 2.55249 2.18122 2.33683 2.39689C2.12116 2.61255 2 2.90506 2 3.21006V8.06006Z" fill="#7F3DFF"/>
<path id="Vector_3" d="M15.5888 0.609822L12.828 8.73352L14.7217 9.37706L17.4825 1.25336L15.5888 0.609822Z" fill="#7F3DFF"/>
<path id="Vector_4" d="M23.2951 0.607571L20.5357 8.73175L22.4295 9.37496L25.1888 1.25078L23.2951 0.607571Z" fill="#7F3DFF"/>
<path id="Vector_5" d="M7.56734 0.613729L4.80655 8.73743L6.70018 9.38097L9.46097 1.25727L7.56734 0.613729Z" fill="#7F3DFF"/>
<path id="Vector_6" d="M1 9.06006V22.9101C1 23.4803 1.22652 24.0271 1.62972 24.4303C2.03292 24.8335 2.57978 25.0601 3.15 25.0601H26.85C27.4202 25.0601 27.9671 24.8335 28.3703 24.4303C28.7735 24.0271 29 23.4803 29 22.9101V9.06006H1ZM18.78 17.0601L13.34 20.6001C13.3236 20.6108 13.3045 20.6169 13.2849 20.6178C13.2653 20.6186 13.2459 20.6143 13.2285 20.6051C13.2112 20.5959 13.1966 20.5823 13.1863 20.5655C13.176 20.5488 13.1704 20.5297 13.17 20.5101V13.5101C13.1704 13.4904 13.176 13.4713 13.1863 13.4546C13.1966 13.4379 13.2112 13.4242 13.2285 13.415C13.2459 13.4058 13.2653 13.4015 13.2849 13.4024C13.3045 13.4032 13.3236 13.4094 13.34 13.4201L18.78 16.9301C18.7909 16.9403 18.7996 16.9527 18.8055 16.9665C18.8114 16.9803 18.8145 16.9951 18.8145 17.0101C18.8145 17.025 18.8114 17.0399 18.8055 17.0536C18.7996 17.0674 18.7909 17.0798 18.78 17.0901V17.0601Z" fill="#7F3DFF"/>
</g>
</svg>
