<svg width="48" height="48" viewBox="0 0 48 48" fill="none" xmlns="http://www.w3.org/2000/svg">
<rect width="48" height="48" rx="16" fill="#FCFCFC"/>
<path d="M31.1992 22H17.1992C15.8731 22 14.6014 22.5268 13.6637 23.4645C12.726 24.4021 12.1992 25.6739 12.1992 27V33C12.1992 34.3261 12.726 35.5979 13.6637 36.5355C14.6014 37.4732 15.8731 38 17.1992 38H31.1992C32.5253 38 33.7971 37.4732 34.7348 36.5355C35.6724 35.5979 36.1992 34.3261 36.1992 33V27C36.1992 25.6739 35.6724 24.4021 34.7348 23.4645C33.7971 22.5268 32.5253 22 31.1992 22ZM24.1992 34C23.4081 34 22.6347 33.7654 21.9769 33.3259C21.3191 32.8864 20.8065 32.2616 20.5037 31.5307C20.2009 30.7998 20.1217 29.9956 20.2761 29.2196C20.4304 28.4437 20.8114 27.731 21.3708 27.1716C21.9302 26.6122 22.6429 26.2312 23.4189 26.0769C24.1948 25.9225 24.999 26.0017 25.73 26.3045C26.4609 26.6072 27.0856 27.1199 27.5251 27.7777C27.9646 28.4355 28.1992 29.2089 28.1992 30C28.1992 31.0609 27.7778 32.0783 27.0276 32.8284C26.2775 33.5786 25.2601 34 24.1992 34Z" fill="#FD3C4A"/>
<path d="M24.1992 32C25.3038 32 26.1992 31.1046 26.1992 30C26.1992 28.8954 25.3038 28 24.1992 28C23.0946 28 22.1992 28.8954 22.1992 30C22.1992 31.1046 23.0946 32 24.1992 32Z" fill="#FD3C4A"/>
<path d="M24.9074 10.2919C24.8144 10.1982 24.7038 10.1238 24.5819 10.073C24.4601 10.0222 24.3294 9.99609 24.1974 9.99609C24.0653 9.99609 23.9346 10.0222 23.8128 10.073C23.6909 10.1238 23.5803 10.1982 23.4874 10.2919L19.2474 14.5419C19.0537 14.7289 18.9423 14.9851 18.9377 15.2542C18.933 15.5233 19.0354 15.7833 19.2224 15.9769C19.4093 16.1705 19.6656 16.2819 19.9347 16.2866C20.2038 16.2913 20.4637 16.1889 20.6574 16.0019L23.1974 13.4119V19.0019C23.1974 19.2671 23.3027 19.5215 23.4902 19.709C23.6778 19.8965 23.9321 20.0019 24.1974 20.0019C24.4626 20.0019 24.7169 19.8965 24.9045 19.709C25.092 19.5215 25.1974 19.2671 25.1974 19.0019V13.4119L27.7374 16.0019C27.9236 16.1866 28.175 16.2908 28.4374 16.2919C28.5773 16.2995 28.7172 16.2776 28.8482 16.2277C28.9791 16.1777 29.0981 16.1008 29.1974 16.0019C29.3836 15.8145 29.4881 15.5611 29.4881 15.2969C29.4881 15.0327 29.3836 14.7793 29.1974 14.5919L24.9074 10.2919Z" fill="#FD3C4A"/>
</svg>
