<svg width="52" height="58" viewBox="0 0 52 58" fill="none" xmlns="http://www.w3.org/2000/svg">
<rect y="0.636719" width="52" height="56.7273" rx="18.9091" fill="#BDDCFF"/>
<path d="M31.7696 38.2586C31.1785 38.895 30.5045 39.4697 29.7641 39.9694C27.7193 41.3548 25.1604 42.1771 22.3818 42.1771C20.4419 42.1771 18.6088 41.7766 16.9846 41.0631C14.6818 43.4094 11.003 43.1957 11.003 43.1957L13.8952 39.1251C11.65 37.1881 10.2578 34.4896 10.2578 31.5031C10.2578 28.8468 11.3592 26.4177 13.1817 24.55C13.8267 23.8896 14.5624 23.2984 15.371 22.793C14.88 24.0292 14.6124 25.3577 14.6124 26.7412C14.6124 33.3371 20.6854 38.6832 28.1757 38.6832C29.4205 38.6832 30.6249 38.5359 31.7696 38.2586Z" fill="#2A94F4"/>
<path d="M34.5027 31.4943C34.5027 34.0581 33.4773 36.4102 31.7666 38.25C30.6219 38.5273 29.4175 38.6746 28.1727 38.6746C20.6824 38.6746 14.6094 33.3284 14.6094 26.7325C14.6094 25.3491 14.8769 24.0205 15.368 22.7843C17.3474 21.5481 19.7659 20.8203 22.3787 20.8203C29.0746 20.8202 34.5027 25.5984 34.5027 31.4943Z" fill="url(#paint0_linear_2977_2746)"/>
<path d="M37.6682 35.2621L40.9041 39.8168C40.9041 39.8168 36.7873 40.0555 34.212 37.4311C33.4226 37.7762 32.6043 38.051 31.7666 38.2523C30.6219 38.5296 29.4175 38.6769 28.1727 38.6769C20.6824 38.6769 14.6094 33.3308 14.6094 26.7349C14.6094 25.3515 14.8769 24.0229 15.368 22.7867C17.2193 18.1308 22.2536 14.793 28.1726 14.793C35.6636 14.793 41.7367 20.1382 41.7367 26.7349C41.7367 30.0758 40.1799 33.095 37.6682 35.2621Z" fill="#CCE9FF"/>
<path d="M23.1129 29.4094C24.1849 29.4094 25.0539 28.5404 25.0539 27.4684C25.0539 26.3964 24.1849 25.5273 23.1129 25.5273C22.0409 25.5273 21.1719 26.3964 21.1719 27.4684C21.1719 28.5404 22.0409 29.4094 23.1129 29.4094Z" fill="#2A94F4"/>
<path d="M28.3629 29.4094C29.4349 29.4094 30.3039 28.5404 30.3039 27.4684C30.3039 26.3964 29.4349 25.5273 28.3629 25.5273C27.2909 25.5273 26.4219 26.3964 26.4219 27.4684C26.4219 28.5404 27.2909 29.4094 28.3629 29.4094Z" fill="#2A94F4"/>
<path d="M33.6246 29.4094C34.6966 29.4094 35.5656 28.5404 35.5656 27.4684C35.5656 26.3964 34.6966 25.5273 33.6246 25.5273C32.5526 25.5273 31.6836 26.3964 31.6836 27.4684C31.6836 28.5404 32.5526 29.4094 33.6246 29.4094Z" fill="#2A94F4"/>
<defs>
<linearGradient id="paint0_linear_2977_2746" x1="24.556" y1="20.8202" x2="24.556" y2="38.6745" gradientUnits="userSpaceOnUse">
<stop offset="0.394" stop-color="#80E8BE"/>
<stop offset="1" stop-color="#00C278"/>
</linearGradient>
</defs>
</svg>
