<svg width="26" height="18" viewBox="0 0 26 18" fill="none" xmlns="http://www.w3.org/2000/svg">
<g id="Group">
<path id="Vector" d="M1 16.9314C7.76787 16.9214 20.4457 17.0906 25 16.9314" stroke="#7F3DFF" stroke-linecap="round" stroke-linejoin="round"/>
<path id="Vector_2" d="M13.2654 4.40177C14.0565 4.40177 14.6979 3.64026 14.6979 2.70088C14.6979 1.7615 14.0565 1 13.2654 1C12.4743 1 11.833 1.7615 11.833 2.70088C11.833 3.64026 12.4743 4.40177 13.2654 4.40177Z" stroke="#7F3DFF" stroke-linecap="round" stroke-linejoin="round"/>
<path id="Vector_3" d="M4.04765 16.925C3.98621 16.4365 3.95526 15.9432 3.95508 15.4491C3.95508 9.3452 8.12342 4.39679 13.2655 4.39679C18.4075 4.39679 22.5758 9.3452 22.5758 15.4491C22.5758 15.9209 22.551 16.4692 22.5023 16.925H4.04765Z" fill="#661AFA" stroke="#7F3DFF" stroke-linecap="round" stroke-linejoin="round"/>
<path id="Vector_4" d="M17.8877 8.40753C19.3838 9.88848 20.4161 12.0044 20.6856 14.403" stroke="white" stroke-linecap="round" stroke-linejoin="round"/>
</g>
</svg>
