<svg width="60" height="60" viewBox="0 0 60 60" fill="none" xmlns="http://www.w3.org/2000/svg">
<rect width="60" height="60" rx="16" fill="#EEE5FF"/>
<path d="M41.85 43H18.15C17.3146 43 16.5134 42.6681 15.9226 42.0774C15.3319 41.4866 15 40.6854 15 39.85V25H45V39.85C45 40.6854 44.6681 41.4866 44.0774 42.0774C43.4866 42.6681 42.6854 43 41.85 43ZM17 27V39.85C17 40.155 17.1212 40.4475 17.3368 40.6632C17.4436 40.77 17.5704 40.8547 17.7099 40.9125C17.8494 40.9703 17.999 41 18.15 41H41.85C42.155 41 42.4475 40.8788 42.6632 40.6632C42.8788 40.4475 43 40.155 43 39.85V27H17Z" fill="#7F3DFF"/>
<path d="M45 27H15V20.15C15 19.3146 15.3319 18.5134 15.9226 17.9226C16.5134 17.3319 17.3146 17 18.15 17H41.85C42.6854 17 43.4866 17.3319 44.0774 17.9226C44.6681 18.5134 45 19.3146 45 20.15V27ZM17 25H43V20.15C43 19.845 42.8788 19.5525 42.6632 19.3368C42.4475 19.1212 42.155 19 41.85 19H18.15C17.845 19 17.5525 19.1212 17.3368 19.3368C17.1212 19.5525 17 19.845 17 20.15V25Z" fill="#7F3DFF"/>
<path d="M30.5889 17.5482L27.8281 25.6719L29.7218 26.3154L32.4825 18.1917L30.5889 17.5482Z" fill="#7F3DFF"/>
<path d="M38.2945 17.5477L35.5352 25.6719L37.4289 26.3151L40.1883 18.1909L38.2945 17.5477Z" fill="#7F3DFF"/>
<path d="M22.5655 17.5521L19.8047 25.6758L21.6983 26.3193L24.4591 18.1956L22.5655 17.5521Z" fill="#7F3DFF"/>
<path d="M16 26V39.85C16 40.4202 16.2265 40.9671 16.6297 41.3703C17.0329 41.7735 17.5798 42 18.15 42H41.85C42.4202 42 42.9671 41.7735 43.3703 41.3703C43.7735 40.9671 44 40.4202 44 39.85V26H16ZM33.78 34L28.34 37.54C28.3236 37.5507 28.3045 37.5568 28.2849 37.5577C28.2653 37.5586 28.2459 37.5542 28.2285 37.545C28.2112 37.5359 28.1966 37.5222 28.1863 37.5055C28.176 37.4888 28.1704 37.4696 28.17 37.45V30.45C28.1704 30.4304 28.176 30.4112 28.1863 30.3945C28.1966 30.3778 28.2112 30.3641 28.2285 30.355C28.2459 30.3458 28.2653 30.3414 28.2849 30.3423C28.3045 30.3432 28.3236 30.3493 28.34 30.36L33.78 33.87C33.7909 33.8803 33.7996 33.8927 33.8055 33.9064C33.8114 33.9202 33.8145 33.935 33.8145 33.95C33.8145 33.965 33.8114 33.9798 33.8055 33.9936C33.7996 34.0073 33.7909 34.0197 33.78 34.03V34Z" fill="#7F3DFF"/>
</svg>
