<svg width="35" height="35" viewBox="0 0 35 35" fill="none" xmlns="http://www.w3.org/2000/svg">
<path id="Layer 19" d="M35 20.6818C35.0042 19.4907 34.6407 18.3225 33.9507 17.3099C33.2607 16.2974 32.272 15.4812 31.097 14.9542C29.922 14.4273 28.6079 14.2107 27.3042 14.3291C26.0005 14.4474 24.7595 14.8961 23.7224 15.624C22.6853 16.3518 21.8937 17.3297 21.4377 18.4463C20.9817 19.5629 20.8795 20.7734 21.1429 21.9402C21.4062 23.107 22.0245 24.1832 22.9273 25.0463C23.8302 25.9095 24.9814 26.525 26.25 26.8227V27.0455C26.25 28.3113 25.6969 29.5252 24.7123 30.4203C23.7277 31.3153 22.3924 31.8182 21 31.8182H17.5C16.1076 31.8182 14.7722 31.3153 13.7877 30.4203C12.8031 29.5252 12.25 28.3113 12.25 27.0455V18.9477C14.6948 18.572 16.9146 17.4219 18.5161 15.701C20.1175 13.9802 20.9975 11.7996 21 9.54545V4.77273C21 3.50692 20.4469 2.29296 19.4623 1.3979C18.4777 0.50284 17.1424 0 15.75 0C15.2859 0 14.8407 0.167613 14.5125 0.465967C14.1844 0.76432 14 1.16897 14 1.59091C14 2.01284 14.1844 2.4175 14.5125 2.71585C14.8407 3.0142 15.2859 3.18182 15.75 3.18182C16.2141 3.18182 16.6592 3.34943 16.9874 3.64778C17.3156 3.94614 17.5 4.35079 17.5 4.77273V9.54545C17.5 11.2332 16.7625 12.8518 15.4497 14.0452C14.137 15.2386 12.3565 15.9091 10.5 15.9091C8.64348 15.9091 6.863 15.2386 5.55025 14.0452C4.23749 12.8518 3.5 11.2332 3.5 9.54545V4.77273C3.5 4.35079 3.68437 3.94614 4.01256 3.64778C4.34075 3.34943 4.78587 3.18182 5.24999 3.18182C5.71412 3.18182 6.15924 3.0142 6.48743 2.71585C6.81562 2.4175 6.99999 2.01284 6.99999 1.59091C6.99999 1.16897 6.81562 0.76432 6.48743 0.465967C6.15924 0.167613 5.71412 0 5.24999 0C3.85761 0 2.52225 0.50284 1.53769 1.3979C0.553123 2.29296 0 3.50692 0 4.77273V9.54545C0.00251272 11.7996 0.88243 13.9802 2.48392 15.701C4.08541 17.4219 6.30514 18.572 8.74999 18.9477V27.0455C8.74999 29.1551 9.67186 31.1784 11.3128 32.6702C12.9537 34.1619 15.1793 35 17.5 35H21C22.149 35 23.2869 34.7943 24.3485 34.3945C25.4101 33.9947 26.3746 33.4088 27.1872 32.6702C27.9997 31.9315 28.6442 31.0546 29.0839 30.0895C29.5236 29.1244 29.75 28.0901 29.75 27.0455V26.8227C31.2488 26.4709 32.5771 25.6774 33.527 24.5662C34.4769 23.4551 34.9949 22.0891 35 20.6818Z" fill="#0077B6"/>
</svg>
