<svg width="55" height="55" viewBox="0 0 55 55" fill="none" xmlns="http://www.w3.org/2000/svg">
<rect width="55" height="55" rx="16" fill="#CBFFF5"/>
<path d="M45 30.6818C45.0042 29.4907 44.6407 28.3225 43.9507 27.3099C43.2607 26.2974 42.272 25.4812 41.097 24.9542C39.922 24.4273 38.6079 24.2107 37.3042 24.3291C36.0005 24.4474 34.7595 24.8961 33.7224 25.624C32.6853 26.3518 31.8937 27.3297 31.4377 28.4463C30.9817 29.5629 30.8795 30.7734 31.1429 31.9402C31.4062 33.107 32.0245 34.1832 32.9273 35.0463C33.8302 35.9095 34.9814 36.525 36.25 36.8227V37.0455C36.25 38.3113 35.6969 39.5252 34.7123 40.4203C33.7277 41.3153 32.3924 41.8182 31 41.8182H27.5C26.1076 41.8182 24.7722 41.3153 23.7877 40.4203C22.8031 39.5252 22.25 38.3113 22.25 37.0455V28.9477C24.6948 28.572 26.9146 27.4219 28.5161 25.701C30.1175 23.9802 30.9975 21.7996 31 19.5455V14.7727C31 13.5069 30.4469 12.293 29.4623 11.3979C28.4777 10.5028 27.1424 10 25.75 10C25.2859 10 24.8407 10.1676 24.5125 10.466C24.1844 10.7643 24 11.169 24 11.5909C24 12.0128 24.1844 12.4175 24.5125 12.7159C24.8407 13.0142 25.2859 13.1818 25.75 13.1818C26.2141 13.1818 26.6592 13.3494 26.9874 13.6478C27.3156 13.9461 27.5 14.3508 27.5 14.7727V19.5455C27.5 21.2332 26.7625 22.8518 25.4497 24.0452C24.137 25.2386 22.3565 25.9091 20.5 25.9091C18.6435 25.9091 16.863 25.2386 15.5502 24.0452C14.2375 22.8518 13.5 21.2332 13.5 19.5455V14.7727C13.5 14.3508 13.6844 13.9461 14.0126 13.6478C14.3407 13.3494 14.7859 13.1818 15.25 13.1818C15.7141 13.1818 16.1592 13.0142 16.4874 12.7159C16.8156 12.4175 17 12.0128 17 11.5909C17 11.169 16.8156 10.7643 16.4874 10.466C16.1592 10.1676 15.7141 10 15.25 10C13.8576 10 12.5223 10.5028 11.5377 11.3979C10.5531 12.293 10 13.5069 10 14.7727V19.5455C10.0025 21.7996 10.8824 23.9802 12.4839 25.701C14.0854 27.4219 16.3051 28.572 18.75 28.9477V37.0455C18.75 39.1551 19.6719 41.1784 21.3128 42.6702C22.9537 44.1619 25.1793 45 27.5 45H31C32.149 45 33.2869 44.7943 34.3485 44.3945C35.4101 43.9947 36.3746 43.4088 37.1872 42.6702C37.9997 41.9315 38.6442 41.0546 39.0839 40.0895C39.5236 39.1244 39.75 38.0901 39.75 37.0455V36.8227C41.2488 36.4709 42.5771 35.6774 43.527 34.5662C44.4769 33.4551 44.9949 32.0891 45 30.6818Z" fill="#0077B6"/>
</svg>
