<svg width="312" height="312" viewBox="0 0 312 312" fill="none" xmlns="http://www.w3.org/2000/svg">
<mask id="mask0_2575_1438" style="mask-type:alpha" maskUnits="userSpaceOnUse" x="0" y="0" width="312" height="312">
<rect width="312" height="312" rx="40" fill="#C4C4C4"/>
</mask>
<g mask="url(#mask0_2575_1438)">
<path d="M58.6902 79.9431C78.7172 63.5375 135.998 54.479 162.134 52.0005C151.013 57.7295 131.599 78.713 142.918 116.815C102.812 123.473 60.5871 135.582 44.4877 140.804C40.8773 127.353 38.6632 96.3488 58.6902 79.9431Z" fill="#E5E5EE"/>
<path d="M58.6902 79.9431C78.7172 63.5375 135.998 54.479 162.134 52.0005C151.013 57.7295 131.599 78.713 142.918 116.815C102.812 123.473 60.5871 135.582 44.4877 140.804C40.8773 127.353 38.6632 96.3488 58.6902 79.9431Z" fill="url(#paint0_linear_2575_1438)" fill-opacity="0.36"/>
<path d="M53.5781 82.7268C54.2608 82.197 54.9746 81.7042 55.7141 81.2588C75.0623 68.4106 124.202 46.8496 183.332 53.1179C216.144 58.4475 219.375 128.374 216.889 162.671C213.409 191.786 215.1 245.279 249.701 226.329C232.997 244.095 198.495 254.458 183.332 257.419C149.775 273.457 83.8541 280.07 88.6267 178.215C93.1609 81.447 69.784 72.7842 55.7141 81.2588C54.956 81.7622 54.2436 82.2523 53.5781 82.7268Z" fill="#D2D2D2"/>
<path d="M53.5781 82.7268C54.2608 82.197 54.9746 81.7042 55.7141 81.2588C75.0623 68.4106 124.202 46.8496 183.332 53.1179C216.144 58.4475 219.375 128.374 216.889 162.671C213.409 191.786 215.1 245.279 249.701 226.329C232.997 244.095 198.495 254.458 183.332 257.419C149.775 273.457 83.8541 280.07 88.6267 178.215C93.1609 81.447 69.784 72.7842 55.7141 81.2588C54.956 81.7622 54.2436 82.2523 53.5781 82.7268Z" fill="url(#paint1_linear_2575_1438)"/>
<path d="M246.623 244.377C225.847 259.882 149 268.5 140 266.5C151.377 261.282 173.758 242.141 164.26 203.38C204.625 198.61 247.365 188.472 263.689 184C266.657 197.666 267.399 228.873 246.623 244.377Z" fill="#F1F1FA"/>
<path d="M246.623 244.377C225.847 259.882 149 268.5 140 266.5C151.377 261.282 173.758 242.141 164.26 203.38C204.625 198.61 247.365 188.472 263.689 184C266.657 197.666 267.399 228.873 246.623 244.377Z" fill="url(#paint2_linear_2575_1438)" fill-opacity="0.16"/>
<path d="M306 104.051C280.746 114.608 268.779 133.083 265.952 141C259.167 113.552 224.49 95.5469 208 89.9752C216.292 91.7347 224.019 83.6703 226.846 79.4181C248.99 77.3654 295.823 79.4181 306 104.051Z" fill="#B18AFF"/>
<path d="M270.665 102.292C268.679 105.806 261.791 107.339 255.117 104.051C248.443 100.763 242.925 94.1346 244.911 90.6203C246.897 87.106 260.222 87.3324 266.896 90.6203C273.569 93.9081 272.651 98.7775 270.665 102.292Z" fill="#7F3DFF"/>
<g style="mix-blend-mode:soft-light">
<path d="M306 104.051C280.746 114.608 268.779 133.083 265.952 141C259.167 113.552 224.49 95.5469 208 89.9752C216.292 91.7347 224.019 83.6703 226.846 79.4181C248.99 77.3654 295.823 79.4181 306 104.051Z" fill="url(#paint3_radial_2575_1438)" fill-opacity="0.64"/>
</g>
<path d="M74 204.821C70.4 220.421 59.1667 228.988 54 231.321C44.1667 226.488 6 212.321 6 212.321C10.8333 207.821 21.4 195.421 25 181.821C29.5 164.821 40.5 140.821 58.5 138.321C72.9 136.321 101.167 144.154 113.5 148.321C87 168.821 78.5 185.321 74 204.821Z" fill="#B18AFF"/>
<ellipse cx="58.6058" cy="175.022" rx="15.1661" ry="12.6384" transform="rotate(-46.5366 58.6058 175.022)" fill="#7F3DFF"/>
<g style="mix-blend-mode:soft-light">
<path d="M74 204.821C70.4 220.421 59.1667 228.988 54 231.321C44.1667 226.488 6 212.321 6 212.321C10.8333 207.821 21.4 195.421 25 181.821C29.5 164.821 40.5 140.821 58.5 138.321C72.9 136.321 101.167 144.154 113.5 148.321C87 168.821 78.5 185.321 74 204.821Z" fill="url(#paint4_linear_2575_1438)" fill-opacity="0.46"/>
</g>
<g style="mix-blend-mode:soft-light" filter="url(#filter0_f_2575_1438)">
<path d="M74 205.821C70.4 221.421 59.1667 229.988 54 232.321C44.1667 227.488 6 213.321 6 213.321C10.8333 208.821 21.4 196.421 25 182.821C29.5 165.821 40.5 141.821 58.5 139.321C72.9 137.321 101.167 145.154 113.5 149.321C87 169.821 78.5 186.321 74 205.821Z" fill="url(#paint5_linear_2575_1438)" fill-opacity="0.64"/>
</g>
</g>
<defs>
<filter id="filter0_f_2575_1438" x="-42" y="91" width="203.5" height="189.32" filterUnits="userSpaceOnUse" color-interpolation-filters="sRGB">
<feFlood flood-opacity="0" result="BackgroundImageFix"/>
<feBlend mode="normal" in="SourceGraphic" in2="BackgroundImageFix" result="shape"/>
<feGaussianBlur stdDeviation="24" result="effect1_foregroundBlur_2575_1438"/>
</filter>
<linearGradient id="paint0_linear_2575_1438" x1="75.999" y1="136.5" x2="122.999" y2="41.5005" gradientUnits="userSpaceOnUse">
<stop stop-opacity="0.24"/>
<stop offset="0.59375"/>
</linearGradient>
<linearGradient id="paint1_linear_2575_1438" x1="106.501" y1="52" x2="209.001" y2="256.5" gradientUnits="userSpaceOnUse">
<stop stop-color="white"/>
<stop offset="1" stop-color="white" stop-opacity="0"/>
</linearGradient>
<linearGradient id="paint2_linear_2575_1438" x1="203.638" y1="200.985" x2="203.638" y2="349.485" gradientUnits="userSpaceOnUse">
<stop stop-opacity="0"/>
<stop offset="1"/>
</linearGradient>
<radialGradient id="paint3_radial_2575_1438" cx="0" cy="0" r="1" gradientUnits="userSpaceOnUse" gradientTransform="translate(218.5 80.5005) rotate(24.5672) scale(76.9675 121.298)">
<stop stop-color="white"/>
<stop offset="1" stop-color="white" stop-opacity="0"/>
</radialGradient>
<linearGradient id="paint4_linear_2575_1438" x1="85" y1="138" x2="37" y2="231" gradientUnits="userSpaceOnUse">
<stop stop-color="white"/>
<stop offset="0.421875" stop-color="#E3E3E3" stop-opacity="0.627968"/>
<stop offset="0.765625" stop-color="#636363" stop-opacity="0.32483"/>
<stop offset="1" stop-color="white" stop-opacity="0"/>
</linearGradient>
<linearGradient id="paint5_linear_2575_1438" x1="85" y1="139" x2="37" y2="232" gradientUnits="userSpaceOnUse">
<stop stop-color="white"/>
<stop offset="0.421875" stop-color="#E3E3E3" stop-opacity="0.627968"/>
<stop offset="0.765625" stop-color="#636363" stop-opacity="0.32483"/>
<stop offset="1" stop-color="white" stop-opacity="0"/>
</linearGradient>
</defs>
</svg>
