<svg width="24" height="24" viewBox="0 0 24 24" fill="none" xmlns="http://www.w3.org/2000/svg">
<g id="home">
<path id="Vector" d="M23.6703 9.55956L21.6703 7.73956L14.0003 0.779557C13.4502 0.287602 12.7382 0.015625 12.0003 0.015625C11.2623 0.015625 10.5503 0.287602 10.0003 0.779557L2.35026 7.77956L0.350263 9.59956C0.215588 9.73621 0.123067 9.90872 0.0837369 10.0965C0.0444067 10.2843 0.0599278 10.4794 0.128449 10.6586C0.196969 10.8378 0.315597 10.9936 0.47018 11.1072C0.624762 11.2208 0.808774 11.2876 1.00026 11.2996C1.25355 11.2881 1.49304 11.1809 1.67026 10.9996L2.00026 10.6996V20.9996C2.00026 21.7952 2.31633 22.5583 2.87894 23.1209C3.44155 23.6835 4.20461 23.9996 5.00026 23.9996H19.0003C19.7959 23.9996 20.559 23.6835 21.1216 23.1209C21.6842 22.5583 22.0003 21.7952 22.0003 20.9996V10.7396L22.3303 11.0396C22.5137 11.2063 22.7524 11.2989 23.0003 11.2996C23.2019 11.299 23.3986 11.2376 23.5647 11.1232C23.7308 11.0089 23.8584 10.8471 23.9309 10.6589C24.0033 10.4707 24.0172 10.2651 23.9707 10.0689C23.9242 9.87271 23.8195 9.69517 23.6703 9.55956Z" fill="#C6C6C6"/>
</g>
</svg>
