<svg width="24" height="24" viewBox="0 0 24 24" fill="none" xmlns="http://www.w3.org/2000/svg">
<g id="Frame 305811" clip-path="url(#clip0_557_6598)">
<path id="Vector" fill-rule="evenodd" clip-rule="evenodd" d="M3.84696 10.7383V21.2641C3.84696 22.7689 4.97591 24 6.35559 24H9.56837V14.8222C9.56837 14.1145 10.0994 13.5353 10.7484 13.5353H13.2516C13.9006 13.5353 14.4316 14.1145 14.4316 14.8222V23.9999H17.6444C19.0241 23.9999 20.153 22.7688 20.153 21.2641V10.7382L21.2161 11.5805C22.0006 12.2006 23.0976 12.0095 23.6661 11.1539C24.2347 10.2983 24.0595 9.10202 23.2749 8.48198L13.0599 0.388153C12.4604 -0.107612 11.6113 -0.142271 10.9706 0.364075L0.725071 8.48203C-0.0594796 9.10207 -0.234652 10.2983 0.333897 11.154C0.902447 12.0096 1.99938 12.2006 2.78393 11.5806L3.84696 10.7383Z" fill="#7F3DFF"/>
<rect id="Rectangle 146632" x="9" y="21" width="6" height="3" fill="#7F3DFF"/>
</g>
<defs>
<clipPath id="clip0_557_6598">
<rect width="24" height="24" fill="white"/>
</clipPath>
</defs>
</svg>
