<svg width="48" height="48" viewBox="0 0 48 48" fill="none" xmlns="http://www.w3.org/2000/svg">
<rect width="48" height="48" rx="16" fill="#FCFCFC"/>
<path d="M31 22H17C15.6739 22 14.4021 22.5268 13.4645 23.4645C12.5268 24.4021 12 25.6739 12 27V33C12 34.3261 12.5268 35.5979 13.4645 36.5355C14.4021 37.4732 15.6739 38 17 38H31C32.3261 38 33.5979 37.4732 34.5355 36.5355C35.4732 35.5979 36 34.3261 36 33V27C36 25.6739 35.4732 24.4021 34.5355 23.4645C33.5979 22.5268 32.3261 22 31 22ZM24 34C23.2089 34 22.4355 33.7654 21.7777 33.3259C21.1199 32.8864 20.6072 32.2616 20.3045 31.5307C20.0017 30.7998 19.9225 29.9956 20.0769 29.2196C20.2312 28.4437 20.6122 27.731 21.1716 27.1716C21.731 26.6122 22.4437 26.2312 23.2196 26.0769C23.9956 25.9225 24.7998 26.0017 25.5307 26.3045C26.2616 26.6072 26.8864 27.1199 27.3259 27.7777C27.7654 28.4355 28 29.2089 28 30C28 31.0609 27.5786 32.0783 26.8284 32.8284C26.0783 33.5786 25.0609 34 24 34Z" fill="#00A86B"/>
<path d="M24 32C25.1046 32 26 31.1046 26 30C26 28.8954 25.1046 28 24 28C22.8954 28 22 28.8954 22 30C22 31.1046 22.8954 32 24 32Z" fill="#00A86B"/>
<path d="M23.9991 10C23.7338 10 23.4795 10.1054 23.2919 10.2929C23.1044 10.4804 22.9991 10.7348 22.9991 11V16.59L20.4591 14.05C20.2677 13.8862 20.0217 13.8006 19.77 13.8103C19.5183 13.82 19.2796 13.9243 19.1015 14.1024C18.9234 14.2805 18.8191 14.5193 18.8093 14.7709C18.7996 15.0226 18.8852 15.2687 19.0491 15.46L23.2891 19.71C23.3812 19.8 23.4899 19.8713 23.6091 19.92C23.7324 19.9723 23.8651 19.9992 23.9991 19.9992C24.133 19.9992 24.2657 19.9723 24.3891 19.92C24.5082 19.8713 24.6169 19.8 24.7091 19.71L28.9991 15.46C29.1629 15.2687 29.2485 15.0226 29.2388 14.7709C29.229 14.5193 29.1247 14.2805 28.9466 14.1024C28.7685 13.9243 28.5298 13.82 28.2781 13.8103C28.0264 13.8006 27.7804 13.8862 27.5891 14.05L24.9991 16.59V11C24.9991 10.7348 24.8937 10.4804 24.7062 10.2929C24.5186 10.1054 24.2643 10 23.9991 10Z" fill="#00A86B"/>
</svg>
