<?xml version="1.0" encoding="UTF-8"?>
<svg version="1.1" xmlns="http://www.w3.org/2000/svg" width="512" height="512">
<path d="M0 0 C1.0054184 0.00465271 2.01083679 0.00930542 3.04672241 0.01409912 C17.55398411 0.09270742 31.81520628 0.39095071 46.0625 3.375 C47.03735352 3.57367676 48.01220703 3.77235352 49.01660156 3.97705078 C99.89746887 14.62041616 143.79350535 38.44300964 181.0625 74.375 C182.36380859 75.61443359 182.36380859 75.61443359 183.69140625 76.87890625 C189.30307006 82.33441942 194.22200586 88.23224094 199.0625 94.375 C200.25166016 95.85613281 200.25166016 95.85613281 201.46484375 97.3671875 C237.13564035 142.56146692 255.5933827 197.64884991 255.375 255 C255.37284485 256.01790619 255.3706897 257.03581238 255.36846924 258.08456421 C255.31879854 272.69363523 255.06790191 287.02575853 252.0625 301.375 C251.76448486 302.83728027 251.76448486 302.83728027 251.46044922 304.32910156 C240.81708384 355.20996887 216.99449036 399.10600535 181.0625 436.375 C179.82306641 437.67630859 179.82306641 437.67630859 178.55859375 439.00390625 C173.10308058 444.61557006 167.20525906 449.53450586 161.0625 454.375 C159.58136719 455.56416016 159.58136719 455.56416016 158.0703125 456.77734375 C123.54960811 484.02373512 82.55102625 501.7981712 39.0625 508.375 C37.94004883 508.55160156 36.81759766 508.72820312 35.66113281 508.91015625 C24.04802257 510.5670586 12.53070055 510.77373513 0.8125 510.75 C-0.70552216 510.74918427 -0.70552216 510.74918427 -2.25421143 510.74835205 C-18.78637291 510.70761077 -34.711492 509.79182284 -50.9375 506.375 C-52.484375 506.05354004 -52.484375 506.05354004 -54.0625 505.72558594 C-102.71804124 495.27984943 -145.33824005 470.69715646 -180.9375 436.375 C-181.80503906 435.54871094 -182.67257813 434.72242188 -183.56640625 433.87109375 C-189.17807006 428.41558058 -194.09700586 422.51775906 -198.9375 416.375 C-199.73027344 415.38757813 -200.52304688 414.40015625 -201.33984375 413.3828125 C-227.15592948 380.67428051 -244.18866739 342.27411943 -251.9375 301.375 C-252.10121094 300.56562988 -252.26492187 299.75625977 -252.43359375 298.92236328 C-257.90319558 270.93585724 -257.78227511 237.28078161 -251.9375 209.375 C-251.73882324 208.40014648 -251.54014648 207.42529297 -251.33544922 206.42089844 C-240.69208384 155.54003113 -216.86949036 111.64399465 -180.9375 74.375 C-180.11121094 73.50746094 -179.28492188 72.63992187 -178.43359375 71.74609375 C-172.97808058 66.13442994 -167.08025906 61.21549414 -160.9375 56.375 C-159.95007813 55.58222656 -158.96265625 54.78945313 -157.9453125 53.97265625 C-128.17783401 30.47787584 -93.36384251 13.76306916 -56.3125 5.5625 C-55.08321777 5.28853394 -55.08321777 5.28853394 -53.82910156 5.0090332 C-35.9426485 1.3097429 -18.23700511 -0.15143893 0 0 Z M-100.9375 70.375 C-102.07703125 70.96796875 -103.2165625 71.5609375 -104.390625 72.171875 C-120.34601203 80.85457399 -134.4747725 92.15672272 -147.39355469 104.86181641 C-148.73771286 106.17919344 -150.10522339 107.47265999 -151.4765625 108.76171875 C-157.50165382 114.52068413 -162.57449823 120.93969925 -167.58203125 127.57958984 C-168.45087029 128.73042599 -169.32538469 129.8770123 -170.20703125 131.01806641 C-203.76540678 174.52410326 -215.62550463 231.57109317 -208.9375 285.375 C-202.46646568 329.58025319 -182.14636819 369.75137996 -151.36621094 401.88330078 C-150.05084782 403.25665496 -148.7474915 404.6414824 -147.4453125 406.02734375 C-141.34836835 412.35417267 -134.72526368 417.7680749 -127.71679688 423.03564453 C-126.57238727 423.89709227 -125.43263499 424.76478106 -124.29882812 425.64013672 C-81.67628613 458.52001076 -25.550973 470.87281868 27.30175781 464.734375 C72.5021892 458.85048439 113.8057556 438.19035753 146.57080078 406.80371094 C147.94415496 405.48834782 149.3289824 404.1849915 150.71484375 402.8828125 C157.04167267 396.78586835 162.4555749 390.16276368 167.72314453 383.15429688 C168.58459227 382.00988727 169.45228106 380.87013499 170.32763672 379.73632812 C203.88938475 336.22986539 215.75081379 279.18139396 209.0625 225.375 C205.39338961 200.31038962 196.83764534 176.7134796 185.0625 154.375 C184.17304687 152.66570312 184.17304687 152.66570312 183.265625 150.921875 C174.58292601 134.96648797 163.28077728 120.8377275 150.57568359 107.91894531 C149.25830656 106.57478714 147.96484001 105.20727661 146.67578125 103.8359375 C140.91681587 97.81084618 134.49780075 92.73800177 127.85791016 87.73046875 C126.70707401 86.86162971 125.5604877 85.98711531 124.41943359 85.10546875 C59.77313072 35.24055193 -30.2083582 33.09198257 -100.9375 70.375 Z " fill="#000000" transform="translate(255.9375,0.625)"/>
<path d="M0 0 C0.89017319 -0.00708481 1.78034637 -0.01416962 2.69749451 -0.02146912 C3.66643646 -0.0189917 4.63537842 -0.01651428 5.63368225 -0.01396179 C6.66011337 -0.01907272 7.68654449 -0.02418365 8.74407959 -0.02944946 C12.13971271 -0.04335846 15.53514316 -0.04238772 18.93080139 -0.04008484 C21.28965328 -0.04397096 23.64850446 -0.04830546 26.00735474 -0.05307007 C30.95280729 -0.06053504 35.89818846 -0.0602389 40.84364319 -0.05497742 C47.18354157 -0.04918161 53.52314792 -0.06611538 59.86299801 -0.08932209 C64.73486034 -0.104048 69.60665215 -0.10493269 74.47853279 -0.10181236 C76.81612794 -0.10232612 79.15372698 -0.10757402 81.49130058 -0.11762428 C84.75900676 -0.12994931 88.02614159 -0.12322032 91.2938385 -0.11161804 C92.26075623 -0.11926178 93.22767395 -0.12690552 94.22389221 -0.13478088 C99.15075075 -0.09608122 102.54184354 0.03205651 106.52845764 3.26069641 C112.79886426 9.7102575 112.84276272 16.55453505 112.78334045 25.11299133 C112.48143947 32.10421212 110.84448811 38.90406694 109.36741638 45.72270203 C108.31502168 50.5928154 107.31358189 55.47333942 106.31361389 60.35444641 C106.09409561 61.42406113 105.87457733 62.49367584 105.64840698 63.59570312 C103.7668984 72.86745628 102.06035312 82.16620376 100.39955139 91.47944641 C100.26746655 92.22008142 100.1353817 92.96071644 99.99929428 93.72379494 C98.67760877 101.14578098 97.36953739 108.57014103 96.06707954 115.9955225 C95.45642035 119.47367522 94.84289288 122.95131584 94.22767639 126.42866516 C94.11035786 127.0926148 93.99303932 127.75656445 93.87216568 128.44063377 C92.36619154 136.93520646 90.76048718 145.3881478 88.74884033 153.77880859 C86.96828144 161.26232665 86.33053284 168.64861461 86.27845764 176.32319641 C86.25783264 177.08696594 86.23720764 177.85073547 86.21595764 178.63764954 C86.17269414 184.95952917 87.3526753 189.67695488 91.52845764 194.63569641 C95.08078556 197.52196285 98.5569802 197.6050458 102.94642639 197.53413391 C111.43021118 196.63569982 118.64308477 192.24769386 125.70423889 187.74897766 C129.65579527 185.66662223 132.91586669 184.85754867 137.27845764 185.94819641 C139.98139197 187.5249081 140.63983294 188.27168606 141.52845764 191.26069641 C142.23661786 196.52131516 141.32251885 199.77267511 138.38783264 204.02632141 C128.32432543 216.11944352 115.0711201 224.4877001 100.52845764 230.26069641 C99.80142639 230.55718079 99.07439514 230.85366516 98.32533264 231.15913391 C78.98189671 237.99020744 50.45948184 238.37190112 31.40345764 230.32319641 C27.90905348 228.56937614 24.67675091 226.58769578 21.52845764 224.26069641 C20.98705139 223.86495422 20.44564514 223.46921204 19.88783264 223.06147766 C10.18591315 215.43541932 3.56394279 204.41599921 1.52845764 192.26069641 C0.12816069 175.22917767 4.60360502 157.23545157 7.59095764 140.57710266 C7.98736817 138.34240357 8.38327306 136.10761473 8.77870178 133.8727417 C9.81181407 128.04177399 10.85181452 122.21205613 11.89332581 116.38258362 C12.95050756 110.45795663 14.00084459 104.53211669 15.05189514 98.60639954 C16.59138839 89.93268315 18.13337946 81.25941805 19.68080139 72.58711243 C19.91777237 71.2581897 19.91777237 71.2581897 20.15953064 69.90242004 C20.31084442 69.0550679 20.4621582 68.20771576 20.61805725 67.33468628 C20.7649852 66.51027102 20.91191315 65.68585575 21.06329346 64.83645821 C21.39511171 62.99907516 21.73385408 61.16293696 22.07723999 59.32768059 C22.25804611 58.35758615 22.43885223 57.38749172 22.62513733 56.38800049 C22.79060059 55.51086364 22.95606384 54.63372679 23.12654114 53.73001003 C23.71815681 50.09521372 23.83001968 46.6342892 23.84095764 42.94819641 C23.85771545 41.6320636 23.87447327 40.31593079 23.89173889 38.95991516 C23.5031138 35.00262526 22.63976438 32.60898051 20.52845764 29.26069641 C16.06039624 26.44387509 12.39451264 26.10484189 7.15345764 25.82319641 C-0.00763012 25.41116605 -5.46906357 23.81280338 -10.97154236 19.13569641 C-13.52700197 15.9413719 -13.86781637 13.40185963 -13.82310486 9.29585266 C-13.22470946 5.83180819 -11.15793375 4.33654431 -8.47154236 2.26069641 C-5.52840134 0.52424189 -3.40573935 0.00906228 0 0 Z " fill="#000000" transform="translate(185.47154235839844,192.7393035888672)"/>
<path d="M0 0 C9.64503623 8.25282118 16.47767608 18.32758319 18.5 31.05859375 C19.42071265 44.24957299 17.17328033 55.21016294 9.5 66.05859375 C8.83871094 67.01378906 8.83871094 67.01378906 8.1640625 67.98828125 C1.57524394 76.55755394 -9.04148948 81.98417844 -19.5 84.05859375 C-34.76964984 85.38246487 -47.2653526 82.25969761 -59.1875 72.37109375 C-68.16140676 64.00691236 -73.42818779 52.43054535 -73.97265625 40.17260742 C-74.15390609 26.57401452 -70.13208248 15.35388447 -61 5.30859375 C-60.175 4.56609375 -59.35 3.82359375 -58.5 3.05859375 C-57.613125 2.23359375 -56.72625 1.40859375 -55.8125 0.55859375 C-40.00958295 -12.28634139 -16.07880723 -12.48619874 0 0 Z " fill="#000000" transform="translate(288.5,88.94140625)"/>
</svg>
