<svg width="202" height="158" viewBox="0 0 202 158" fill="none" xmlns="http://www.w3.org/2000/svg">
<path d="M149.782 89.1038C170.144 89.1038 186.651 72.5973 186.651 52.2355C186.651 31.8737 170.144 15.3672 149.782 15.3672C129.421 15.3672 112.914 31.8737 112.914 52.2355C112.914 72.5973 129.421 89.1038 149.782 89.1038Z" fill="#DBE8EC"/>
<path d="M186.832 83.7332V78.1195C186.832 77.5894 186.727 77.0646 186.525 76.5749C186.322 76.0852 186.024 75.6402 185.65 75.2654C185.275 74.8906 184.83 74.5933 184.34 74.3905C183.85 74.1876 183.326 74.0832 182.796 74.0832H171.635C170.564 74.0832 169.538 73.658 168.781 72.9011C168.024 72.1441 167.599 71.1175 167.599 70.047V64.4333C167.599 62.2042 172.492 60.3971 174.721 60.3971H175.171C176.241 60.3971 177.268 59.9718 178.025 59.2149C178.782 58.458 179.207 57.4313 179.207 56.3609V50.7472C179.207 49.6767 178.782 48.6501 178.025 47.8931C177.268 47.1362 176.241 46.7109 175.171 46.7109H38.801C38.2709 46.7109 37.7461 46.8153 37.2564 47.0182C36.7667 47.221 36.3217 47.5183 35.9469 47.8931C35.5721 48.2679 35.2748 48.7129 35.072 49.2026C34.8691 49.6923 34.7647 50.2171 34.7647 50.7472V56.3609C34.7647 56.8909 34.8691 57.4158 35.072 57.9055C35.2748 58.3952 35.5721 58.8401 35.9469 59.2149C36.3217 59.5897 36.7667 59.887 37.2564 60.0898C37.7461 60.2927 38.2709 60.3971 38.801 60.3971C39.331 60.3971 39.8559 60.5015 40.3456 60.7043C40.8353 60.9072 41.2802 61.2045 41.655 61.5793C42.0298 61.9541 42.3271 62.399 42.53 62.8887C42.7328 63.3784 42.8372 63.9033 42.8372 64.4333V70.047C42.8372 71.1175 42.412 72.1441 41.655 72.9011C40.8981 73.658 39.8714 74.0832 38.801 74.0832H23.1925C22.122 74.0832 21.0954 74.5085 20.3384 75.2654C19.5815 76.0224 19.1563 77.049 19.1562 78.1195V83.7332C19.1563 84.8036 19.5815 85.8303 20.3384 86.5872C21.0954 87.3441 22.122 87.7694 23.1925 87.7694H29.317C29.8471 87.7694 30.3719 87.8738 30.8616 88.0766C31.3513 88.2795 31.7963 88.5768 32.1711 88.9516C32.5459 89.3264 32.8432 89.7713 33.046 90.261C33.2489 90.7507 33.3533 91.2756 33.3533 91.8056V97.4193C33.3533 98.4898 32.928 99.5164 32.1711 100.273C31.4141 101.03 30.3875 101.456 29.317 101.456H29.3022C28.2317 101.456 27.2051 101.881 26.4482 102.638C25.6912 103.395 25.266 104.421 25.266 105.492V111.105C25.266 112.176 25.6912 113.203 26.4482 113.96C27.2051 114.716 28.2317 115.142 29.3022 115.142H30.1883C31.2588 115.142 32.2854 115.567 33.0424 116.324C33.7993 117.081 34.2245 118.107 34.2245 119.178V124.792C34.2245 125.322 34.1201 125.847 33.9173 126.336C33.7145 126.826 33.4172 127.271 33.0424 127.646C32.6676 128.021 32.2226 128.318 31.7329 128.521C31.2432 128.723 30.7184 128.828 30.1883 128.828H24.9038C23.8333 128.828 22.8067 129.253 22.0497 130.01C21.2928 130.767 20.8676 131.794 20.8676 132.864V138.478C20.8676 139.548 21.2928 140.575 22.0497 141.332C22.8067 142.089 23.8333 142.514 24.9038 142.514H174.252C175.322 142.514 176.349 142.089 177.106 141.332C177.863 140.575 178.288 139.548 178.288 138.478V132.864C178.288 131.794 177.863 130.767 177.106 130.01C176.349 129.253 175.322 128.828 174.252 128.828H170.752C170.222 128.828 169.697 128.723 169.208 128.521C168.718 128.318 168.273 128.02 167.898 127.646C167.523 127.271 167.226 126.826 167.023 126.336C166.82 125.847 166.716 125.322 166.716 124.792V119.178C166.716 118.107 167.141 117.081 167.898 116.324C168.655 115.567 169.682 115.142 170.752 115.142H179.004C180.074 115.142 181.101 114.716 181.858 113.96C182.615 113.203 183.04 112.176 183.04 111.105V105.492C183.04 104.962 182.936 104.437 182.733 103.947C182.53 103.458 182.233 103.013 181.858 102.638C181.483 102.263 181.038 101.966 180.548 101.763C180.059 101.56 179.534 101.456 179.004 101.456H176.501C175.971 101.456 175.446 101.351 174.956 101.148C174.466 100.945 174.021 100.648 173.647 100.273C173.272 99.8986 172.975 99.4536 172.772 98.9639C172.569 98.4742 172.464 97.9494 172.464 97.4193V91.8056C172.464 90.7352 172.89 89.7085 173.647 88.9516C174.404 88.1946 175.43 87.7694 176.501 87.7694H182.796C183.326 87.7694 183.85 87.665 184.34 87.4622C184.83 87.2593 185.275 86.962 185.65 86.5872C186.024 86.2124 186.322 85.7675 186.525 85.2778C186.727 84.7881 186.832 84.2632 186.832 83.7332Z" fill="#DBE8EC"/>
<path d="M145.91 51.9459C130.185 51.6799 114.509 47.1931 100.29 38.8164C86.0832 47.1931 70.4071 51.6799 54.6791 51.9459C51.4737 86.1627 61.8294 127.335 100.29 142.632C138.763 127.335 149.08 86.1627 145.91 51.9459Z" fill="#409CB5"/>
<path d="M135.202 61.0542C123.17 60.8506 111.175 57.4175 100.295 51.0078C89.4242 57.4175 77.4292 60.8506 65.3945 61.0542C62.9419 87.236 70.8658 118.74 100.295 130.445C129.733 118.74 137.627 87.236 135.202 61.0542Z" fill="#DBE8EC"/>
<path d="M150.682 73.5829C163.149 73.5829 173.255 63.4768 173.255 51.0102C173.255 38.5436 163.149 28.4375 150.682 28.4375C138.216 28.4375 128.109 38.5436 128.109 51.0102C128.109 63.4768 138.216 73.5829 150.682 73.5829Z" fill="#EE781D"/>
<path d="M151.339 59.8449H139.469C139.24 59.8449 139.015 59.7845 138.817 59.67C138.618 59.5554 138.454 59.3906 138.339 59.1922C138.224 58.9938 138.164 58.7687 138.164 58.5396C138.164 58.3104 138.224 58.0854 138.339 57.8869L144.274 47.6077L150.208 37.3284C150.323 37.13 150.488 36.9652 150.686 36.8507C150.885 36.7361 151.11 36.6758 151.339 36.6758C151.568 36.6758 151.793 36.7361 151.991 36.8507C152.19 36.9652 152.355 37.13 152.469 37.3284L158.404 47.6077L164.339 57.8869C164.453 58.0854 164.514 58.3104 164.514 58.5396C164.514 58.7687 164.453 58.9938 164.339 59.1922C164.224 59.3907 164.059 59.5554 163.861 59.67C163.662 59.7846 163.437 59.8449 163.208 59.8449L151.339 59.8449Z" fill="#F9AE2B"/>
<path d="M151.993 42.8483C151.993 42.4877 151.701 42.1953 151.34 42.1953C150.98 42.1953 150.688 42.4877 150.688 42.8483V52.5826C150.688 52.9432 150.98 53.2356 151.34 53.2356C151.701 53.2356 151.993 52.9432 151.993 52.5826V42.8483Z" fill="#409CB5"/>
<path d="M152.888 56.5151C152.973 55.6566 152.346 54.8917 151.487 54.8066C150.629 54.7216 149.864 55.3487 149.779 56.2072C149.694 57.0658 150.321 57.8306 151.179 57.9156C152.038 58.0007 152.803 57.3736 152.888 56.5151Z" fill="#409CB5"/>
<path d="M94.4684 85.4169V77.4877C94.4684 76.6926 94.626 75.9054 94.9321 75.1716C95.2381 74.4378 95.6865 73.7718 96.2514 73.2123C96.8162 72.6527 97.4864 72.2106 98.223 71.9115C98.9597 71.6124 99.7484 71.4623 100.543 71.4697H101.205C102 71.4619 102.789 71.6119 103.525 71.9109C104.262 72.2099 104.932 72.652 105.497 73.2116C106.062 73.7712 106.511 74.4372 106.817 75.1712C107.123 75.9052 107.28 76.6925 107.28 77.4877V80.1588C107.281 80.3379 107.353 80.5094 107.479 80.6364C107.605 80.7634 107.776 80.8358 107.955 80.8382L111.155 80.8527C111.244 80.853 111.333 80.8357 111.416 80.8017C111.498 80.7677 111.574 80.7178 111.637 80.6547C111.701 80.5916 111.751 80.5166 111.785 80.434C111.82 80.3514 111.837 80.2628 111.838 80.1733V77.9297C111.838 76.5533 111.567 75.1904 111.04 73.9188C110.513 72.6473 109.741 71.4922 108.767 70.5195C107.793 69.5468 106.637 68.7756 105.365 68.2501C104.093 67.7246 102.73 67.4551 101.353 67.457H100.395C99.0189 67.4558 97.6561 67.7258 96.3845 68.2516C95.1129 68.7774 93.9574 69.5486 92.984 70.5212C92.0106 71.4938 91.2385 72.6487 90.7117 73.9199C90.185 75.1911 89.9139 76.5537 89.9141 77.9297V85.6289L94.4684 85.4169Z" fill="#EE781D"/>
<path d="M113.347 108.217C114.148 108.215 114.916 107.896 115.482 107.33C116.048 106.764 116.367 105.996 116.369 105.195V88.01C116.367 87.2092 116.048 86.4418 115.482 85.8755C114.916 85.3093 114.148 84.9903 113.347 84.9883H88.3967C87.5959 84.9903 86.8285 85.3093 86.2622 85.8755C85.696 86.4418 85.377 87.2092 85.375 88.01V105.195C85.377 105.996 85.696 106.764 86.2622 107.33C86.8285 107.896 87.5959 108.215 88.3967 108.217H113.347Z" fill="#F9AE2B"/>
<path d="M100.878 90.8828C100.02 90.8857 99.1982 91.2279 98.5917 91.8345C97.9852 92.4412 97.6433 93.2632 97.6406 94.121C97.6554 94.6081 97.7818 95.0852 98.01 95.5158C98.2381 95.9464 98.5621 96.3189 98.9568 96.6047V100.404C98.9568 100.914 99.1592 101.403 99.5195 101.763C99.8797 102.123 100.368 102.326 100.878 102.326C101.387 102.326 101.876 102.123 102.236 101.763C102.597 101.403 102.799 100.914 102.799 100.404V96.6047C103.193 96.3183 103.517 95.9457 103.745 95.5152C103.973 95.0848 104.1 94.6079 104.115 94.121C104.112 93.2632 103.771 92.4412 103.164 91.8345C102.558 91.2279 101.736 90.8857 100.878 90.8828Z" fill="#EE781D"/>
<path d="M71.3288 42.3686C73.9569 42.3686 76.0873 40.2381 76.0873 37.6101C76.0873 34.982 73.9569 32.8516 71.3288 32.8516C68.7008 32.8516 66.5703 34.982 66.5703 37.6101C66.5703 40.2381 68.7008 42.3686 71.3288 42.3686Z" fill="#B9D4DB"/>
<path d="M72.5177 30.4612C73.8866 30.4612 74.9963 29.3514 74.9963 27.9825C74.9963 26.6136 73.8866 25.5039 72.5177 25.5039C71.1488 25.5039 70.0391 26.6136 70.0391 27.9825C70.0391 29.3514 71.1488 30.4612 72.5177 30.4612Z" fill="#B9D4DB"/>
<path d="M81.25 29.6719C82.0396 29.6719 82.6797 29.0318 82.6797 28.2422C82.6797 27.4526 82.0396 26.8125 81.25 26.8125C80.4604 26.8125 79.8203 27.4526 79.8203 28.2422C79.8203 29.0318 80.4604 29.6719 81.25 29.6719Z" fill="#B9D4DB"/>
<path d="M82.0994 39.6129C83.9924 39.6129 85.527 38.0783 85.527 36.1854C85.527 34.2924 83.9924 32.7578 82.0994 32.7578C80.2064 32.7578 78.6719 34.2924 78.6719 36.1854C78.6719 38.0783 80.2064 39.6129 82.0994 39.6129Z" fill="#B9D4DB"/>
<path d="M139.61 137.001C142.238 137.001 144.369 134.871 144.369 132.243C144.369 129.615 142.238 127.484 139.61 127.484C136.982 127.484 134.852 129.615 134.852 132.243C134.852 134.871 136.982 137.001 139.61 137.001Z" fill="#B9D4DB"/>
<path d="M132.947 127.656C134.316 127.656 135.426 126.547 135.426 125.178C135.426 123.809 134.316 122.699 132.947 122.699C131.578 122.699 130.469 123.809 130.469 125.178C130.469 126.547 131.578 127.656 132.947 127.656Z" fill="#B9D4DB"/>
<path d="M138.719 120.063C139.508 120.063 140.148 119.422 140.148 118.633C140.148 117.843 139.508 117.203 138.719 117.203C137.929 117.203 137.289 117.843 137.289 118.633C137.289 119.422 137.929 120.063 138.719 120.063Z" fill="#B9D4DB"/>
<path d="M145.365 126.468C147.258 126.468 148.793 124.934 148.793 123.041C148.793 121.148 147.258 119.613 145.365 119.613C143.472 119.613 141.938 121.148 141.938 123.041C141.938 124.934 143.472 126.468 145.365 126.468Z" fill="#B9D4DB"/>
<path d="M48.2195 129.513C50.8475 129.513 52.978 127.383 52.978 124.755C52.978 122.127 50.8475 119.996 48.2195 119.996C45.5914 119.996 43.4609 122.127 43.4609 124.755C43.4609 127.383 45.5914 129.513 48.2195 129.513Z" fill="#B9D4DB"/>
<path d="M41.5724 120.168C42.9413 120.168 44.051 119.058 44.051 117.69C44.051 116.321 42.9413 115.211 41.5724 115.211C40.2035 115.211 39.0938 116.321 39.0938 117.69C39.0938 119.058 40.2035 120.168 41.5724 120.168Z" fill="#B9D4DB"/>
<path d="M47.336 112.57C48.1256 112.57 48.7657 111.93 48.7657 111.141C48.7657 110.351 48.1256 109.711 47.336 109.711C46.5464 109.711 45.9062 110.351 45.9062 111.141C45.9062 111.93 46.5464 112.57 47.336 112.57Z" fill="#B9D4DB"/>
<path d="M53.99 118.984C55.883 118.984 57.4176 117.449 57.4176 115.556C57.4176 113.663 55.883 112.129 53.99 112.129C52.0971 112.129 50.5625 113.663 50.5625 115.556C50.5625 117.449 52.0971 118.984 53.99 118.984Z" fill="#B9D4DB"/>
</svg>
