<svg width="29" height="27" viewBox="0 0 29 27" fill="none" xmlns="http://www.w3.org/2000/svg">
<path d="M20.2806 3.61866C19.2339 2.8193 18.01 2.24582 16.6969 1.93945C15.3838 1.63308 14.014 1.60143 12.6862 1.84678C11.0675 2.13667 9.56673 2.83862 8.35063 3.87467C7.13453 4.91072 6.25066 6.24033 5.79719 7.71582C5.34372 9.19132 5.3384 10.755 5.7818 12.2331C6.22521 13.7113 7.09999 15.0461 8.309 16.0893C8.55448 16.3181 8.74767 16.5908 8.87694 16.8909C9.00621 17.1911 9.06889 17.5125 9.06119 17.8358V19.4052C9.06323 19.7591 9.14494 20.1086 9.30103 20.4312C9.45713 20.7539 9.68415 21.0424 9.96744 21.2783V22.7802C9.96744 23.4515 10.2539 24.0954 10.7637 24.5701C11.2736 25.0448 11.9651 25.3115 12.6862 25.3115H16.3112C17.0322 25.3115 17.7238 25.0448 18.2336 24.5701C18.7435 24.0954 19.0299 23.4515 19.0299 22.7802V21.2783C19.3132 21.0424 19.5402 20.7539 19.6963 20.4312C19.8524 20.1086 19.9341 19.7591 19.9362 19.4052V17.8443C19.9294 17.5171 19.9942 17.192 20.1267 16.8889C20.2591 16.5857 20.4564 16.3108 20.7065 16.0808C21.6417 15.2797 22.3805 14.3003 22.8725 13.2093C23.3646 12.1184 23.5984 10.9416 23.558 9.75896C23.5175 8.57634 23.2039 7.41572 22.6383 6.35612C22.0728 5.29653 21.2686 4.36285 20.2806 3.61866ZM18.1237 18.5615V19.4052C18.1237 19.629 18.0282 19.8436 17.8583 20.0018C17.6883 20.1601 17.4578 20.249 17.2174 20.249H11.7799C11.5396 20.249 11.3091 20.1601 11.1391 20.0018C10.9692 19.8436 10.8737 19.629 10.8737 19.4052V18.5615H18.1237ZM17.2174 22.7802C17.2174 23.004 17.122 23.2186 16.952 23.3768C16.7821 23.5351 16.5515 23.624 16.3112 23.624H12.6862C12.4458 23.624 12.2153 23.5351 12.0454 23.3768C11.8754 23.2186 11.7799 23.004 11.7799 22.7802V21.9365H17.2174V22.7802ZM19.4559 14.8574C18.8513 15.4056 18.4323 16.1066 18.2506 16.874H10.7468C10.568 16.1118 10.1556 15.4142 9.55963 14.8658C8.67203 14.1088 8.00587 13.154 7.62379 12.0913C7.24172 11.0286 7.1563 9.89279 7.37557 8.79084C7.70677 7.26025 8.59765 5.88388 9.89646 4.89619C11.1953 3.90849 12.8217 3.37054 14.4987 3.37397C16.1937 3.3715 17.8371 3.91729 19.1478 4.91803C19.9629 5.54547 20.6189 6.33309 21.0686 7.22439C21.5182 8.1157 21.7505 9.08861 21.7487 10.0733C21.7376 10.9743 21.5284 11.8635 21.1341 12.6863C20.7398 13.5091 20.1686 14.248 19.4559 14.8574Z" fill="black"/>
<path d="M19.8311 9.10999C19.618 8.13709 19.1023 7.24402 18.3481 6.54191C17.594 5.8398 16.6348 5.35966 15.5898 5.16124C15.3495 5.11649 15.0999 5.16246 14.8959 5.28905C14.692 5.41564 14.5504 5.61247 14.5023 5.83624C14.4543 6.06002 14.5036 6.29241 14.6396 6.48229C14.7756 6.67217 14.987 6.80399 15.2273 6.84874C15.924 6.98102 16.5635 7.30111 17.0662 7.76919C17.5689 8.23726 17.9127 8.83264 18.0548 9.48124C18.0972 9.6747 18.2111 9.84819 18.3767 9.97152C18.5423 10.0949 18.7491 10.1602 18.9611 10.1562H19.1423C19.2631 10.1327 19.3774 10.0864 19.4783 10.0202C19.5792 9.954 19.6645 9.86933 19.729 9.77137C19.7935 9.67341 19.8358 9.56422 19.8533 9.45049C19.8709 9.33677 19.8633 9.2209 19.8311 9.10999Z" fill="black"/>
<path d="M13.5789 0.0153436H13.5378L12.861 0.0957669L12.9861 0.943943L13.6428 0.865294L13.8939 0.855065L13.8509 0L13.5789 0.0153436ZM15.7151 0.910647L16.1237 0.957669H16.1275L16.6143 1.05255L16.8176 0.217994L16.327 0.120557L16.2888 0.111998L15.8383 0.0589736L15.7151 0.910647ZM10.1215 0.83539L10.0852 0.850786L9.98023 0.89953L10.4174 1.65966L10.5081 1.61692L11.2584 1.34241L10.8956 0.550647L10.1215 0.83539ZM18.3459 1.56217L18.4652 1.60492L19.1668 1.92473L19.5992 1.16115L18.8814 0.836225L18.8432 0.819994L18.7057 0.768692L18.3459 1.56217ZM7.88118 2.08292L7.85255 2.10431L7.50891 2.37622L8.14082 3.0158L8.45391 2.76785H8.45582L8.851 2.50189L8.28018 1.81701L7.88118 2.08292ZM20.6339 2.83538L21.1131 3.21328L21.1207 3.22184L21.305 3.39542L21.9922 2.80286L21.7803 2.60449L21.7507 2.58143L21.2639 2.19664L20.6339 2.83538ZM6.058 3.78788L6.03414 3.81784L5.58836 4.41039L6.37873 4.88834L6.80255 4.32574L6.81209 4.31374L6.90086 4.21541L6.15632 3.67933L6.058 3.78788ZM22.4552 4.66351L22.6175 4.87894L22.9229 5.36462L23.7562 4.94564L23.4431 4.4463L23.4212 4.41634L23.2436 4.18212L22.4552 4.66351ZM4.4515 6.65066L4.44005 6.68489L4.38277 6.88749L5.30677 7.09792L5.36118 6.90805L5.59027 6.32145L4.69014 6.03932L4.4515 6.65066ZM23.7114 6.84397L23.6283 6.86442L23.6302 6.87298L23.8421 7.60666L23.846 7.62805H23.8498L23.8965 7.61605L24.7881 7.48349L24.7824 7.45019L24.7728 7.41335L24.5533 6.64899L24.5418 6.61392L24.5285 6.58396L23.7114 6.84397ZM4.00191 9.08079L4 9.11753L4.00573 9.53306L4.96027 9.52283L4.95455 9.12181L4.98986 8.70628L4.03914 8.64125L4.00191 9.08079ZM24.0416 9.82469L24.0159 10.0675L24.9666 10.1478L24.9924 9.88878L24.9943 9.85204L25 9.25781L24.0455 9.24925L24.0416 9.82469ZM4.22145 11.3013L4.25582 11.4673L4.26536 11.5014L4.46582 12.165L5.38695 11.9393L5.19127 11.297L5.15977 11.1466L4.22145 11.3013ZM23.6178 11.9393L23.615 11.9512L23.4116 12.454L24.3089 12.7448L24.517 12.23L24.5285 12.1957L24.6182 11.8999L23.697 11.6759L23.6178 11.9393ZM5.25141 13.8383L5.59027 14.3728L5.61223 14.4027L5.764 14.5994L6.55055 14.1154L6.40736 13.9281L6.39973 13.9179L6.08091 13.4134L5.25141 13.8383ZM22.1755 14.4831L22.166 14.4933L22.103 14.5635L22.8427 15.1022L22.9153 15.0226L22.9401 14.9944L23.4135 14.3711L22.6232 13.8905L22.1755 14.4831ZM7.01732 15.9811L7.26264 16.2086L7.29223 16.2334L7.74564 16.5857L8.37182 15.9409L7.94895 15.6117H7.94705L7.70077 15.3851L7.01732 15.9811ZM20.5031 16.0444L20.4917 16.0529L20.1528 16.277L20.7179 16.9645L21.0682 16.7336L21.0997 16.7113L21.4911 16.4052L20.8611 15.7622L20.5031 16.0444ZM9.37886 17.6006L9.44186 17.6349L9.47718 17.6519L10.2695 18L10.6895 17.2313L9.9115 16.891L9.87332 16.8678L9.37886 17.6006ZM18.3478 17.2184L18.7716 17.9854L19.0121 17.8785L18.5864 17.1132L18.3478 17.2184Z" fill="black"/>
</svg>
