<svg width="32" height="32" viewBox="0 0 32 32" fill="none" xmlns="http://www.w3.org/2000/svg">
<g id="download 5">
<path id="Vector" d="M22.3043 17.4202C18.1746 15.7803 13.4099 19.0552 13.5099 23.5051C13.4999 29.26 20.5445 32.1699 24.6142 28.105C27.9589 24.8451 26.649 19.0052 22.3043 17.4202ZM19.5745 23.0001H20.4244C22.7278 23.0702 22.8001 26.3886 20.4994 26.55L20.4995 27C20.4995 27.275 20.2745 27.5 19.9995 27.5C19.7245 27.5 19.4995 27.275 19.4995 27V26.555H18.2946C17.6384 26.5416 17.6371 25.5684 18.2946 25.5551H20.4245C21.4518 25.5348 21.4468 24.019 20.4244 24.0001H19.5745C17.2712 23.9301 17.1989 20.6116 19.4996 20.4502L19.4995 20.0002C19.4995 19.7252 19.7245 19.5002 19.9995 19.5002C20.2745 19.5002 20.4995 19.7252 20.4995 20.0002V20.4452H21.7044C22.3606 20.4586 22.3618 21.4319 21.7043 21.4452H19.5745C18.5472 21.4655 18.5522 22.9813 19.5745 23.0001ZM13 12.0004H14.4999C14.7748 12.0004 14.9998 12.2254 14.9998 12.5004V14.0003C14.9998 14.2753 15.2248 14.5003 15.4998 14.5003H16.4997C16.7747 14.5003 16.9997 14.2753 16.9997 14.0003V12.5004C16.9997 12.2254 17.2247 12.0004 17.4997 12.0004H18.9996C19.2745 12.0004 19.4995 11.7754 19.4995 11.5004V10.5004C19.4995 10.2254 19.2745 10.0004 18.9996 10.0004H17.4997C17.2247 10.0004 16.9997 9.77543 16.9997 9.50044V8.00048C16.9997 7.72549 16.7747 7.50049 16.4997 7.50049H15.4998C15.2248 7.50049 14.9998 7.72549 14.9998 8.00048V9.50044C14.9998 9.77543 14.7748 10.0004 14.4999 10.0004H13C12.725 10.0004 12.5 10.2254 12.5 10.5004V11.5004C12.5 11.7754 12.725 12.0004 13 12.0004Z" fill="#7F3DFF"/>
<path id="Vector_2" d="M9.91018 17.6202C11.735 17.4202 13.4149 17.4552 15.1698 17.7852C16.5047 16.6303 18.2346 16.0003 20.0195 16.0053C21.0394 16.0003 22.0943 16.2203 23.0293 16.6303C24.3142 15.0303 25.0191 13.0653 25.0142 11.0004C25.0342 3.15056 15.4848 -0.954323 9.81018 4.47054C6.02543 7.92044 6.12544 14.2853 9.91018 17.6202ZM11.5001 10.5004C11.5001 9.6754 12.175 9.00043 13 9.00043H13.9999V8.00045C13.9999 7.17546 14.6748 6.50049 15.4998 6.50049H16.4997C17.3247 6.50049 17.9996 7.17546 17.9996 8.00045V9.00043H18.9996C19.8245 9.00043 20.4995 9.6754 20.4995 10.5004V11.5004C20.4995 12.3253 19.8245 13.0003 18.9996 13.0003H17.9996V14.0003C17.9996 14.8253 17.3247 15.5003 16.4997 15.5003H15.4998C14.6748 15.5003 13.9999 14.8253 13.9999 14.0003V13.0003H13C12.175 13.0003 11.5001 12.3253 11.5001 11.5004V10.5004ZM10.5954 26.9525C8.84412 26.8054 6.89878 26.4923 5.50267 25.4169C5.5027 25.4169 5.5027 26.0021 5.5027 26.0021C5.5027 27.6427 8.77442 28.5029 12.0061 28.5029C12.8016 28.5029 13.572 28.4529 14.2924 28.3579C13.9025 27.9145 13.5865 27.4266 13.3219 26.9024C12.4536 27.1085 11.4829 26.974 10.5954 26.9525ZM6.50325 24.9018C8.39393 25.9309 10.7911 26.0478 12.9266 25.9821C12.7686 25.5269 12.6292 25.0019 12.5714 24.4916C12.3846 24.5011 12.198 24.5019 12.0061 24.5016C9.21321 24.4481 7.06134 24.0777 5.50267 22.9112C5.50167 23.7382 5.40313 24.1987 6.50325 24.9018ZM6.50325 22.3959C7.78157 23.1834 10.3534 23.5728 12.5064 23.4913C12.4967 22.0475 12.9168 20.6485 13.712 19.4149C13.8896 19.1462 14.0761 18.8955 14.2874 18.6497C13.5325 18.5437 12.7892 18.5009 12.0061 18.4996C9.41623 18.4364 5.51379 19.284 5.51278 20.9005C5.44982 21.5099 5.84933 21.9976 6.50325 22.3959Z" fill="#7F3DFF"/>
</g>
</svg>
