<svg width="52" height="58" viewBox="0 0 52 58" fill="none" xmlns="http://www.w3.org/2000/svg">
<rect y="0.636719" width="52" height="56.7273" rx="18.9091" fill="#FCEED4"/>
<path d="M16.8813 25.2254C16.8813 25.1082 16.9279 24.9958 17.0107 24.9129C17.0936 24.83 17.206 24.7835 17.3232 24.7835H31.9844C32.1016 24.7835 32.214 24.83 32.2969 24.9129C32.3798 24.9958 32.4263 25.1082 32.4263 25.2254C32.4263 25.3426 32.3798 25.455 32.2969 25.5379C32.214 25.6207 32.1016 25.6673 31.9844 25.6673H17.3232C17.206 25.6673 17.0936 25.6207 17.0107 25.5379C16.9279 25.455 16.8813 25.3426 16.8813 25.2254ZM17.3232 28.3206H31.9844C32.1016 28.3206 32.214 28.274 32.2969 28.1911C32.3798 28.1082 32.4263 27.9958 32.4263 27.8786C32.4263 27.7614 32.3798 27.649 32.2969 27.5661C32.214 27.4833 32.1016 27.4367 31.9844 27.4367H17.3232C17.206 27.4367 17.0936 27.4833 17.0107 27.5661C16.9279 27.649 16.8813 27.7614 16.8813 27.8786C16.8813 27.9958 16.9279 28.1082 17.0107 28.1911C17.0936 28.274 17.206 28.3206 17.3232 28.3206ZM17.3232 30.9738H31.9844C32.1016 30.9738 32.214 30.9272 32.2969 30.8444C32.3798 30.7615 32.4263 30.6491 32.4263 30.5319C32.4263 30.4147 32.3798 30.3023 32.2969 30.2194C32.214 30.1365 32.1016 30.09 31.9844 30.09H17.3232C17.206 30.09 17.0936 30.1365 17.0107 30.2194C16.9279 30.3023 16.8813 30.4147 16.8813 30.5319C16.8813 30.6491 16.9279 30.7615 17.0107 30.8444C17.0936 30.9272 17.206 30.9738 17.3232 30.9738ZM32.4263 33.1852C32.4263 33.068 32.3798 32.9556 32.2969 32.8727C32.214 32.7898 32.1016 32.7433 31.9844 32.7433H17.3232C17.206 32.7433 17.0936 32.7898 17.0107 32.8727C16.9279 32.9556 16.8813 33.068 16.8813 33.1852C16.8813 33.3024 16.9279 33.4148 17.0107 33.4977C17.0936 33.5806 17.206 33.6271 17.3232 33.6271H31.9844C32.1016 33.6271 32.214 33.5806 32.2969 33.4977C32.3798 33.4148 32.4263 33.3024 32.4263 33.1852ZM17.3232 23.0141H31.9844C32.1016 23.0141 32.214 22.9675 32.2969 22.8846C32.3798 22.8017 32.4263 22.6893 32.4263 22.5721C32.4263 22.4549 32.3798 22.3425 32.2969 22.2596C32.214 22.1768 32.1016 22.1302 31.9844 22.1302H17.3232C17.206 22.1302 17.0936 22.1768 17.0107 22.2596C16.9279 22.3425 16.8813 22.4549 16.8813 22.5721C16.8813 22.6893 16.9279 22.8017 17.0107 22.8846C17.0936 22.9675 17.206 23.0141 17.3232 23.0141ZM17.3232 20.3608H31.9844C32.1016 20.3608 32.214 20.3142 32.2969 20.2314C32.3798 20.1485 32.4263 20.0361 32.4263 19.9189C32.4263 19.8017 32.3798 19.6893 32.2969 19.6064C32.214 19.5235 32.1016 19.4769 31.9844 19.4769H17.3232C17.206 19.4769 17.0936 19.5235 17.0107 19.6064C16.9279 19.6893 16.8813 19.8017 16.8813 19.9189C16.8813 20.0361 16.9279 20.1485 17.0107 20.2314C17.0936 20.3142 17.206 20.3608 17.3232 20.3608ZM36.3658 37.9352C36.1269 37.9025 35.9658 37.7987 35.9121 37.643C35.8913 37.581 35.8879 37.5145 35.9023 37.4507C35.9167 37.387 35.9484 37.3284 35.9938 37.2814C36.0622 37.2183 36.1428 37.1698 36.2307 37.1389C36.3185 37.1081 36.4117 37.0955 36.5046 37.1019C36.6089 37.1057 36.7112 37.1322 36.8043 37.1795C36.8974 37.2268 36.9791 37.2938 37.0437 37.3759C37.0802 37.4212 37.1253 37.4588 37.1763 37.4866C37.2274 37.5144 37.2835 37.5318 37.3413 37.5379C37.3991 37.544 37.4576 37.5386 37.5133 37.5221C37.5691 37.5056 37.621 37.4782 37.6662 37.4415C37.7113 37.4049 37.7488 37.3597 37.7764 37.3085C37.8041 37.2574 37.8213 37.2012 37.8273 37.1434C37.8332 37.0855 37.8276 37.0271 37.8109 36.9714C37.7942 36.9157 37.7666 36.8639 37.7299 36.8188C37.516 36.552 37.2225 36.3605 36.8922 36.2722V35.9201C36.8922 35.8029 36.8457 35.6905 36.7628 35.6076C36.6799 35.5247 36.5675 35.4782 36.4503 35.4782C36.3331 35.4782 36.2207 35.5247 36.1378 35.6076C36.0549 35.6905 36.0084 35.8029 36.0084 35.9201V36.2838C35.7629 36.3533 35.5395 36.4848 35.3596 36.6657C35.201 36.8304 35.0907 37.0356 35.0408 37.2587C34.9909 37.4819 35.0032 37.7144 35.0765 37.931C35.2396 38.4041 35.6768 38.7328 36.2459 38.8109C36.7185 38.8755 37.0288 39.0709 37.0763 39.3334C37.0899 39.4298 37.0731 39.5281 37.0283 39.6146C36.9834 39.701 36.9127 39.7713 36.8259 39.8156C36.7112 39.8761 36.5847 39.9108 36.4552 39.9172C36.3256 39.9236 36.1963 39.9016 36.0762 39.8527C35.9319 39.7917 35.8315 39.6953 35.8009 39.5882C35.7687 39.4755 35.693 39.3802 35.5906 39.3233C35.4881 39.2664 35.3672 39.2525 35.2545 39.2847C35.1418 39.317 35.0466 39.3926 34.9897 39.4951C34.9328 39.5975 34.9189 39.7184 34.9511 39.8311C35.0556 40.1966 35.3403 40.5013 35.7322 40.6668C35.8215 40.7044 35.9139 40.7342 36.0084 40.7561V41.0994C36.0084 41.2166 36.0549 41.329 36.1378 41.4119C36.2207 41.4947 36.3331 41.5413 36.4503 41.5413C36.5675 41.5413 36.6799 41.4947 36.7628 41.4119C36.8457 41.329 36.8922 41.2166 36.8922 41.0994V40.7352C37.0143 40.7012 37.1323 40.654 37.2441 40.5943C37.4961 40.4627 37.6998 40.2546 37.826 39.9998C37.9521 39.745 37.9942 39.4568 37.946 39.1766C37.8273 38.5185 37.2366 38.0544 36.3658 37.9352ZM40.6946 38.5097C40.6946 39.3492 40.4457 40.1698 39.9793 40.8678C39.513 41.5658 38.8501 42.1098 38.0745 42.431C37.299 42.7523 36.4456 42.8363 35.6222 42.6726C34.7989 42.5088 34.0426 42.1046 33.449 41.511C32.8554 40.9174 32.4512 40.1611 32.2874 39.3378C32.1236 38.5145 32.2077 37.6611 32.5289 36.8855C32.8502 36.11 33.3942 35.4471 34.0922 34.9807C34.7902 34.5143 35.6108 34.2654 36.4502 34.2654C37.5755 34.2667 38.6543 34.7142 39.45 35.5099C40.2457 36.3056 40.6933 37.3844 40.6946 38.5097ZM39.8108 38.5097C39.8107 37.8451 39.6136 37.1953 39.2444 36.6427C38.8751 36.0901 38.3503 35.6594 37.7362 35.405C37.1221 35.1507 36.4465 35.0841 35.7946 35.2138C35.1427 35.3435 34.5439 35.6636 34.074 36.1335C33.604 36.6035 33.2839 37.2023 33.1543 37.8542C33.0246 38.5061 33.0912 39.1817 33.3455 39.7958C33.5999 40.4098 34.0306 40.9347 34.5832 41.3039C35.1359 41.6732 35.7856 41.8703 36.4502 41.8703C37.3412 41.8693 38.1954 41.5149 38.8254 40.8849C39.4554 40.2549 39.8098 39.4007 39.8108 38.5097ZM42.5437 38.5097C42.5436 39.4792 42.3122 40.4346 41.8687 41.2967C41.4252 42.1588 40.7824 42.9027 39.9938 43.4665C39.2051 44.0304 38.2933 44.3979 37.3341 44.5386C36.3749 44.6793 35.3959 44.5892 34.4786 44.2756H26.1952C25.909 44.2751 25.6339 44.1645 25.4271 43.9667C25.2203 43.7688 25.0976 43.4989 25.0844 43.213H13.3657C12.9549 43.2126 12.5611 43.0492 12.2707 42.7588C11.9802 42.4684 11.8169 42.0746 11.8164 41.6638V16.9311C11.8164 16.8139 11.8629 16.7015 11.9458 16.6186L15.9819 12.5825C16.023 12.5415 16.0717 12.509 16.1253 12.4868C16.1789 12.4645 16.2364 12.4531 16.2944 12.4531H35.7197C36.1304 12.4536 36.5242 12.617 36.8146 12.9074C37.105 13.1978 37.2684 13.5916 37.2689 14.0023V32.4715C38.729 32.6713 40.0675 33.3929 41.0371 34.5028C42.0066 35.6127 42.5418 37.0359 42.5437 38.5097ZM13.3252 16.4892H15.8525V13.9619L13.3252 16.4892ZM13.3657 42.3292H25.0848C25.0952 42.1052 25.1735 41.8897 25.3094 41.7113C25.162 41.5184 25.0822 41.2825 25.0821 41.0398V40.2604C25.0822 40.0177 25.162 39.7818 25.3094 39.5889C25.162 39.3961 25.0822 39.1602 25.0821 38.9175V38.138C25.0824 37.8429 25.1998 37.5599 25.4084 37.3512C25.6171 37.1425 25.9 37.025 26.1952 37.0246H30.54C30.8699 35.7196 31.6219 34.5603 32.6791 33.727C33.7362 32.8937 35.0391 32.4332 36.385 32.4171V14.0023C36.3848 13.8259 36.3147 13.6568 36.1899 13.5321C36.0652 13.4073 35.8961 13.3372 35.7197 13.337H16.7364V16.9311C16.7364 17.0484 16.6898 17.1608 16.6069 17.2436C16.524 17.3265 16.4116 17.3731 16.2944 17.3731H12.7003V41.6638C12.7005 41.8402 12.7706 42.0094 12.8954 42.1341C13.0201 42.2588 13.1893 42.329 13.3657 42.3292ZM26.1952 39.147H30.3899C30.3677 38.9351 30.3566 38.7223 30.3566 38.5093C30.3566 38.3065 30.3665 38.1061 30.3863 37.9081H26.1952C26.1343 37.9082 26.076 37.9324 26.033 37.9754C25.9899 38.0185 25.9657 38.0768 25.9657 38.1377V38.9171C25.9657 38.978 25.9898 39.0364 26.0329 39.0795C26.0759 39.1226 26.1343 39.1469 26.1952 39.147ZM26.1952 41.2693H31.0185C30.8172 40.8749 30.6598 40.4596 30.5491 40.0308H26.1952C26.1343 40.0309 26.076 40.0551 26.033 40.0981C25.9899 40.1411 25.9657 40.1995 25.9657 40.2603V41.0398C25.9657 41.1006 25.9899 41.159 26.0329 41.202C26.076 41.2451 26.1343 41.2693 26.1952 41.2693V41.2693ZM32.8076 43.3917C32.3376 43.0401 31.9205 42.623 31.5688 42.1531H26.1952C26.1343 42.1532 26.076 42.1774 26.033 42.2204C25.9899 42.2635 25.9657 42.3218 25.9657 42.3827V43.1622C25.9657 43.223 25.9899 43.2814 26.033 43.3244C26.076 43.3674 26.1343 43.3916 26.1952 43.3917H32.8076ZM41.6596 38.5096C41.6596 37.4793 41.3541 36.472 40.7817 35.6153C40.2092 34.7586 39.3956 34.0909 38.4437 33.6966C37.4917 33.3023 36.4442 33.1991 35.4337 33.4001C34.4231 33.6012 33.4949 34.0973 32.7663 34.8259C32.0377 35.5545 31.5415 36.4828 31.3405 37.4933C31.1395 38.5039 31.2427 39.5514 31.637 40.5033C32.0313 41.4552 32.6991 42.2689 33.5558 42.8413C34.4125 43.4137 35.4197 43.7192 36.4501 43.7192C37.8313 43.7177 39.1555 43.1684 40.1322 42.1917C41.1089 41.2151 41.6583 39.8909 41.6598 38.5097L41.6596 38.5096Z" fill="#FCAC12"/>
</svg>
