<svg width="32" height="32" viewBox="0 0 32 32" fill="none" xmlns="http://www.w3.org/2000/svg">
<path d="M28 15H17V4C19.8412 4.22837 22.5083 5.46063 24.5239 7.47614C26.5394 9.49166 27.7716 12.1588 28 15Z" fill="#C6C6C6"/>
<path d="M28.0012 17C27.8022 19.2756 26.9578 21.4471 25.5672 23.2594C24.1767 25.0716 22.2977 26.4493 20.1512 27.2306C18.0047 28.0119 15.6798 28.1643 13.4497 27.6699C11.2195 27.1755 9.17683 26.0549 7.5616 24.4396C5.94637 22.8244 4.82571 20.7817 4.33131 18.5516C3.83691 16.3214 3.98931 13.9965 4.7706 11.85C5.55189 9.7035 6.92961 7.82457 8.74188 6.43401C10.5541 5.04346 12.7256 4.19905 15.0012 4V16C15.0012 16.2652 15.1066 16.5196 15.2941 16.7071C15.4817 16.8946 15.736 17 16.0012 17H28.0012Z" fill="#C6C6C6"/>
</svg>
