<svg width="55" height="55" viewBox="0 0 55 55" fill="none" xmlns="http://www.w3.org/2000/svg">
<rect width="55" height="55" rx="16" fill="#F5F5DC"/>
<path d="M26.6596 39.8107H20.8053C17.0462 39.8107 13.9866 39.601 13.9866 36.1188V27.337H11.8222C11.4625 27.3374 11.1107 27.2381 10.811 27.0516C10.5114 26.865 10.2773 26.5996 10.1381 26.2887C10.0007 25.9776 9.9648 25.6353 10.035 25.3052C10.1053 24.975 10.2785 24.6718 10.5327 24.434L24.9236 10.9972C25.2616 10.68 25.6631 10.4286 26.1051 10.2575C26.5471 10.0863 27.0208 9.99884 27.499 10C28.472 10 29.3882 10.3544 30.0759 10.997L35.4347 16.0009L35.8116 16.3525C35.8457 16.3845 35.8629 16.1644 35.8629 15.6919C35.9049 15.1211 36.1766 14.5867 36.623 14.1966C37.0694 13.8065 37.6572 13.59 38.2674 13.5908H38.282C39.619 13.5908 40.7014 14.6011 40.7014 15.8494V20.541C40.7014 20.666 40.683 20.7743 40.6626 20.8847L44.4665 24.434C44.7212 24.6714 44.8947 24.9747 44.9648 25.3049C45.0349 25.6352 44.9985 25.9776 44.8603 26.2884C44.7214 26.5993 44.4875 26.8648 44.188 27.0513C43.8885 27.2379 43.5369 27.3373 43.1774 27.337H40.7011V28.4598C43.2929 30.0766 45 32.8397 45 35.9766C45 40.96 40.6906 45 35.375 45C31.5214 45 28.197 42.877 26.6596 39.8107ZM35.375 44.1797C40.2076 44.1797 44.125 40.5072 44.125 35.9766C44.125 31.446 40.2076 27.7734 35.375 27.7734C30.5423 27.7734 26.6249 31.446 26.6249 35.9766C26.6249 40.5072 30.5423 44.1797 35.375 44.1797ZM38.9937 37.4818C38.9937 38.0856 38.763 38.6073 38.3013 39.0473C37.8398 39.4875 37.1708 39.7691 36.2943 39.8927V40.4489C36.2943 40.6225 36.2207 40.789 36.0898 40.9118C35.9588 41.0345 35.7812 41.1035 35.596 41.1035C35.4109 41.1035 35.2332 41.0345 35.1023 40.9118C34.9714 40.789 34.8978 40.6225 34.8978 40.4489V39.9362C34.3374 39.9035 33.783 39.8102 33.2455 39.6581C32.9478 39.5748 32.658 39.4684 32.3792 39.3398C32.2612 39.2845 32.1706 39.1887 32.1261 39.0722C32.0816 38.9558 32.0867 38.8278 32.1404 38.7148L32.1511 38.6923L32.5294 37.8955C32.5517 37.8487 32.584 37.8066 32.6244 37.7719C32.6648 37.7373 32.7124 37.7109 32.7642 37.6943C32.816 37.6776 32.8709 37.6712 32.9254 37.6754C32.98 37.6796 33.0331 37.6943 33.0813 37.7186L33.1379 37.7465C33.3948 37.8682 33.6751 37.9729 33.9787 38.0602C34.4597 38.1982 34.9328 38.2674 35.3983 38.2674C36.2826 38.2674 36.7248 38.0602 36.7248 37.6456C36.7248 37.4274 36.5985 37.2656 36.3465 37.16C36.0945 37.0547 35.6891 36.944 35.1305 36.8275C34.518 36.7039 34.0059 36.571 33.5946 36.4294C33.1861 36.2892 32.8219 36.0546 32.5359 35.7474C32.2413 35.4349 32.0937 35.013 32.0937 34.4822C32.0937 33.8566 32.334 33.3201 32.815 32.8731C33.2962 32.426 33.9904 32.1512 34.8978 32.0495V31.5042C34.8978 31.3306 34.9714 31.1641 35.1023 31.0413C35.2332 30.9186 35.4109 30.8496 35.596 30.8496C35.7812 30.8496 35.9588 30.9186 36.0898 31.0413C36.2207 31.1641 36.2943 31.3306 36.2943 31.5042V32.0279C36.7365 32.0639 37.1611 32.1367 37.5683 32.2458C37.8553 32.3229 38.1201 32.4159 38.3628 32.5252L38.4316 32.5575C38.56 32.6193 38.6157 32.7626 38.5606 32.8875L38.0326 34.0806C38.0218 34.1052 38.0056 34.1274 37.9851 34.1459C37.9646 34.1643 37.9403 34.1787 37.9137 34.1879C37.8871 34.1972 37.8587 34.2012 37.8303 34.1997C37.8019 34.1982 37.7742 34.1913 37.7488 34.1793C37.716 34.1638 37.6829 34.1486 37.6497 34.1339C36.9788 33.835 36.3249 33.6857 35.6891 33.6857C35.2315 33.6857 34.8978 33.7494 34.6887 33.8766C34.479 34.004 34.3742 34.1694 34.3742 34.3731C34.3742 34.5766 34.4985 34.7294 34.7467 34.8311C34.9946 34.9331 35.3942 35.0384 35.9452 35.1475C36.5655 35.2711 37.0798 35.404 37.4869 35.5456C37.8933 35.687 38.2568 35.9192 38.5457 36.2221C38.8443 36.5311 38.9937 36.9511 38.9937 37.4818Z" fill="#1E3A8A"/>
</svg>
