<svg width="35" height="35" viewBox="0 0 35 35" fill="none" xmlns="http://www.w3.org/2000/svg">
<path id="Vector" d="M16.6596 29.8107H10.8053C7.04624 29.8107 3.98664 29.601 3.98664 26.1188V17.337H1.82217C1.46248 17.3374 1.1107 17.2381 0.811049 17.0516C0.511401 16.865 0.277266 16.5996 0.138083 16.2887C0.000656831 15.9776 -0.0352017 15.6353 0.0350495 15.3052C0.105301 14.975 0.278501 14.6718 0.53271 14.434L14.9236 0.997238C15.2616 0.680037 15.6631 0.428629 16.1051 0.257483C16.5471 0.0863379 17.0208 -0.00116477 17.499 1.17074e-05C18.472 1.17074e-05 19.3882 0.354387 20.0759 0.996965L25.4347 6.00087L25.8116 6.35251C25.8457 6.3845 25.8629 6.16438 25.8629 5.69188C25.9049 5.12114 26.1766 4.58667 26.623 4.1966C27.0694 3.80653 27.6572 3.58999 28.2674 3.59079H28.282C29.619 3.59079 30.7014 4.60114 30.7014 5.84938V10.541C30.7014 10.666 30.683 10.7743 30.6626 10.8847L34.4665 14.434C34.7212 14.6714 34.8947 14.9747 34.9648 15.3049C35.0349 15.6352 34.9985 15.9776 34.8603 16.2884C34.7214 16.5993 34.4875 16.8648 34.188 17.0513C33.8885 17.2379 33.5369 17.3373 33.1774 17.337H30.7011V18.4598C33.2929 20.0766 35 22.8397 35 25.9766C35 30.96 30.6906 35 25.375 35C21.5214 35 18.197 32.877 16.6596 29.8107ZM25.375 34.1797C30.2076 34.1797 34.125 30.5072 34.125 25.9766C34.125 21.446 30.2076 17.7734 25.375 17.7734C20.5423 17.7734 16.6249 21.446 16.6249 25.9766C16.6249 30.5072 20.5423 34.1797 25.375 34.1797ZM28.9937 27.4818C28.9937 28.0856 28.763 28.6073 28.3013 29.0473C27.8398 29.4875 27.1708 29.7691 26.2943 29.8927V30.4489C26.2943 30.6225 26.2207 30.789 26.0898 30.9118C25.9588 31.0345 25.7812 31.1035 25.596 31.1035C25.4109 31.1035 25.2332 31.0345 25.1023 30.9118C24.9714 30.789 24.8978 30.6225 24.8978 30.4489V29.9362C24.3374 29.9035 23.783 29.8102 23.2455 29.6581C22.9478 29.5748 22.658 29.4684 22.3792 29.3398C22.2612 29.2845 22.1706 29.1887 22.1261 29.0722C22.0816 28.9558 22.0867 28.8278 22.1404 28.7148L22.1511 28.6923L22.5294 27.8955C22.5517 27.8487 22.584 27.8066 22.6244 27.7719C22.6648 27.7373 22.7124 27.7109 22.7642 27.6943C22.816 27.6776 22.8709 27.6712 22.9254 27.6754C22.98 27.6796 23.0331 27.6943 23.0813 27.7186L23.1379 27.7465C23.3948 27.8682 23.6751 27.9729 23.9787 28.0602C24.4597 28.1982 24.9328 28.2674 25.3983 28.2674C26.2826 28.2674 26.7248 28.0602 26.7248 27.6456C26.7248 27.4274 26.5985 27.2656 26.3465 27.16C26.0945 27.0547 25.6891 26.944 25.1305 26.8275C24.518 26.7039 24.0059 26.571 23.5946 26.4294C23.1861 26.2892 22.8219 26.0546 22.5359 25.7474C22.2413 25.4349 22.0937 25.013 22.0937 24.4822C22.0937 23.8566 22.334 23.3201 22.815 22.8731C23.2962 22.426 23.9904 22.1512 24.8978 22.0495V21.5042C24.8978 21.3306 24.9714 21.1641 25.1023 21.0413C25.2332 20.9186 25.4109 20.8496 25.596 20.8496C25.7812 20.8496 25.9588 20.9186 26.0898 21.0413C26.2207 21.1641 26.2943 21.3306 26.2943 21.5042V22.0279C26.7365 22.0639 27.1611 22.1367 27.5683 22.2458C27.8553 22.3229 28.1201 22.4159 28.3628 22.5252L28.4316 22.5575C28.56 22.6193 28.6157 22.7626 28.5606 22.8875L28.0326 24.0806C28.0218 24.1052 28.0056 24.1274 27.9851 24.1459C27.9646 24.1643 27.9403 24.1787 27.9137 24.1879C27.8871 24.1972 27.8587 24.2012 27.8303 24.1997C27.8019 24.1982 27.7742 24.1913 27.7488 24.1793C27.716 24.1638 27.6829 24.1486 27.6497 24.1339C26.9788 23.835 26.3249 23.6857 25.6891 23.6857C25.2315 23.6857 24.8978 23.7494 24.6887 23.8766C24.479 24.004 24.3742 24.1694 24.3742 24.3731C24.3742 24.5766 24.4985 24.7294 24.7467 24.8311C24.9946 24.9331 25.3942 25.0384 25.9452 25.1475C26.5655 25.2711 27.0798 25.404 27.4869 25.5456C27.8933 25.687 28.2568 25.9192 28.5457 26.2221C28.8443 26.5311 28.9937 26.9511 28.9937 27.4818Z" fill="#1E3A8A"/>
</svg>
