<?xml version="1.0" encoding="UTF-8"?>
<svg version="1.1" xmlns="http://www.w3.org/2000/svg" width="512" height="512">
<path d="M0 0 C7.59 0 15.18 0 23 0 C23.226875 2.18625 23.45375 4.3725 23.6875 6.625 C25.23903051 19.0672913 29.57747501 29.87837501 37 40 C37.53367187 40.72960937 38.06734375 41.45921875 38.6171875 42.2109375 C48.8696593 55.01426353 65.28877078 60.77524855 81 63 C97.84095262 64.81058843 114.06410339 58.08377431 127.4375 48.3125 C133.17510235 43.43747639 136.94363022 37.27119745 141 31 C141.98589166 29.65620113 142.97964683 28.3178229 144 27 C147.7978208 30.46910679 151.57891177 33.95493791 155.34179688 37.46191406 C156.72314951 38.74320405 158.11777651 40.01016448 159.515625 41.2734375 C168.60729315 49.80914033 176.36150134 61.40375335 181 73 C181 73.66 181 74.32 181 75 C181.66993484 75.04821396 182.33986969 75.09642792 183.03010559 75.14610291 C189.71143196 75.68216235 196.14604059 76.67930151 202.69921875 78.06640625 C203.6602803 78.26475571 204.62134186 78.46310516 205.61152649 78.66746521 C208.63806643 79.29344762 211.66277501 79.92781232 214.6875 80.5625 C216.75704548 80.99209557 218.82670607 81.42113698 220.89648438 81.84960938 C225.93234109 82.89334746 230.96657515 83.94459934 236 85 C230.20737233 135.72025492 230.20737233 135.72025492 227.93762207 154.04321289 C227.69194303 156.02663048 227.44897382 158.01038313 227.20605469 159.99414062 C227.05942383 161.16267578 226.91279297 162.33121094 226.76171875 163.53515625 C226.63756592 164.529104 226.51341309 165.52305176 226.38549805 166.54711914 C226 169 226 169 225 172 C222.08211116 172.98666559 219.28056202 173.77210363 216.29296875 174.48046875 C215.41602859 174.69818436 214.53908844 174.91589996 213.63557434 175.14021301 C211.77668333 175.59912999 209.9162439 176.05181245 208.05444336 176.4987793 C205.20662146 177.18290648 202.36389713 177.88556909 199.52148438 178.59179688 C197.71641542 179.03495368 195.91108473 179.47704606 194.10546875 179.91796875 C192.82871529 180.23195869 192.82871529 180.23195869 191.52616882 180.55229187 C190.72886856 180.74281631 189.9315683 180.93334076 189.11010742 181.12963867 C188.41141037 181.29823898 187.71271332 181.46683929 186.99284363 181.64054871 C185 182 185 182 181 182 C180.73574219 182.87011719 180.47148437 183.74023438 180.19921875 184.63671875 C171.99978656 207.63252042 148.52605032 230.23697484 127 241 C126.56789996 243.50688535 126.26818502 245.9291969 126.03857422 248.45727539 C125.9602536 249.23770706 125.88193298 250.01813873 125.80123901 250.82221985 C125.54346535 253.41323923 125.29905988 256.0053414 125.0546875 258.59765625 C124.87900238 260.38992721 124.70248879 262.18211714 124.525177 263.97422791 C124.05987593 268.69991456 123.60588233 273.42662274 123.1541748 278.15362549 C122.61031563 283.82039072 122.05252861 289.48579961 121.49705505 295.15143585 C120.65398429 303.76662804 119.8287084 312.3833599 119 321 C97.22 321 75.44 321 53 321 C52.01 311.368125 51.02 301.73625 50 291.8125 C49.53013672 287.26045776 49.53013672 287.26045776 49.05078125 282.61645508 C48.80448721 280.20916762 48.55838068 277.80186097 48.3125 275.39453125 C48.18294922 274.14619507 48.05339844 272.89785889 47.91992188 271.61169434 C47.79810547 270.41443726 47.67628906 269.21718018 47.55078125 267.98364258 C47.44419189 266.94661697 47.33760254 265.90959137 47.2277832 264.84114075 C47.01881567 262.23468793 47 259.61481619 47 257 C9.38 257 -28.24 257 -67 257 C-67.33 261.62 -67.66 266.24 -68 271 C-68.38026954 275.10431645 -68.77305302 279.20439974 -69.19140625 283.3046875 C-69.28869019 284.27349854 -69.38597412 285.24230957 -69.48620605 286.24047852 C-69.84277127 289.78554092 -70.20282617 293.33025164 -70.5625 296.875 C-71.366875 304.83625 -72.17125 312.7975 -73 321 C-94.78 321 -116.56 321 -139 321 C-139.42667969 315.3178125 -139.85335937 309.635625 -140.29296875 303.78125 C-140.59160674 300.17103498 -140.89379938 296.56183984 -141.20898438 292.953125 C-141.70832818 287.23193869 -142.19453214 281.51181264 -142.60131836 275.78320312 C-142.93038133 271.16104447 -143.31927669 266.54741515 -143.74913979 261.93357849 C-143.90225943 260.17796783 -144.03418828 258.42036861 -144.14394188 256.66151428 C-144.42181789 247.46537699 -144.42181789 247.46537699 -148.34630966 239.49641228 C-151.89331043 236.62383088 -155.84939862 234.86864178 -160 233 C-162.5681014 231.17317917 -164.9078013 229.16802928 -167.25 227.0625 C-167.83442871 226.54582764 -168.41885742 226.02915527 -169.02099609 225.49682617 C-170.69117445 224.00907133 -172.34612267 222.50581593 -174 221 C-174.81210938 220.28328125 -175.62421875 219.5665625 -176.4609375 218.828125 C-191.84984632 204.4947731 -201.71318645 184.79626404 -208 165 C-208.44472656 163.63681641 -208.44472656 163.63681641 -208.8984375 162.24609375 C-211.28599337 154.31515322 -212.12469691 146.20725372 -213 138 C-214.258125 137.79375 -215.51625 137.5875 -216.8125 137.375 C-230.24136463 134.32298531 -241.12261308 124.84673321 -248.53515625 113.52734375 C-254.1186235 103.89400158 -257.71694226 92.06183633 -255 81 C-253.17890734 78.23898854 -251.95798903 76.47899452 -249 75 C-244.24530251 74.34611233 -241.02692821 74.25711577 -237.0625 77.125 C-233.92119561 81.50378793 -233.05863243 85.66421389 -232.125 90.875 C-230.68323688 98.30734475 -227.91718088 104.11189406 -222 109 C-218.72541324 111.10760653 -215.39005536 113.08445416 -212 115 C-211.98582031 114.35417969 -211.97164062 113.70835937 -211.95703125 113.04296875 C-210.49519945 84.16191338 -195.84049705 58.29073525 -176 38 C-175.32324219 37.27296875 -174.64648438 36.5459375 -173.94921875 35.796875 C-157.95688871 18.9767846 -130.72802862 2.71005105 -107.03515625 1.8984375 C-106.36355469 1.93195313 -105.69195312 1.96546875 -105 2 C-104.90203125 2.73863281 -104.8040625 3.47726563 -104.703125 4.23828125 C-103.12657841 14.93433442 -100.22399653 24.0976443 -94 33 C-95.03640625 33.04898438 -96.0728125 33.09796875 -97.140625 33.1484375 C-98.51044208 33.22349597 -99.88023248 33.29904247 -101.25 33.375 C-101.93191406 33.4059375 -102.61382812 33.436875 -103.31640625 33.46875 C-106.9714438 33.68166481 -109.92056876 33.93195059 -113 36 C-115.30567313 39.22794238 -115.32369432 42.11566819 -115 46 C-114.13320737 48.60037789 -113.55859974 49.65701801 -111.21837616 51.09392262 C-108.7218643 52.11360223 -106.94619917 52.24901583 -104.25598145 52.24723816 C-102.83020531 52.25352989 -102.83020531 52.25352989 -101.37562561 52.25994873 C-100.33965744 52.25432922 -99.30368927 52.24870972 -98.23632812 52.24291992 C-96.59185951 52.24576744 -96.59185951 52.24576744 -94.91416931 52.24867249 C-91.28645704 52.25238033 -87.65894452 52.2416755 -84.03125 52.23046875 C-81.51306176 52.22927681 -78.99487308 52.22882382 -76.47668457 52.2290802 C-71.19748617 52.2275153 -65.91833929 52.21946817 -60.63916016 52.20581055 C-54.53842168 52.19008565 -48.4377462 52.18481249 -42.33698893 52.1855461 C-36.46475743 52.18615683 -30.59254708 52.18093886 -24.72032166 52.17275429 C-22.22281518 52.16956845 -19.72530686 52.16760041 -17.22779846 52.16686058 C-13.73972406 52.16469615 -10.25172922 52.15594952 -6.76367188 52.14526367 C-5.20971962 52.14594345 -5.20971962 52.14594345 -3.62437439 52.14663696 C-2.67385696 52.14237198 -1.72333954 52.13810699 -0.74401855 52.13371277 C0.08039986 52.13203692 0.90481827 52.13036108 1.75421906 52.12863445 C3.95898408 52.00234932 5.88284546 51.61102719 8 51 C9.79172099 44.92193109 10.28545662 40.96758117 8 35 C4.15158652 33.81968762 0.241721 33.66764649 -3.75 33.4375 C-4.79607422 33.37272461 -4.79607422 33.37272461 -5.86328125 33.30664062 C-7.57531922 33.20110404 -9.28763561 33.1001009 -11 33 C-10.16855469 31.40671875 -10.16855469 31.40671875 -9.3203125 29.78125 C-8.58810766 28.35438929 -7.85636127 26.92729327 -7.125 25.5 C-6.76019531 24.80390625 -6.39539063 24.1078125 -6.01953125 23.390625 C-2.0469911 15.5900007 -0.98464546 8.86180912 0 0 Z M103 88 C98.6945999 94.72350152 96.44665347 100.97647537 97 109 C98.56796232 113.24161735 98.56796232 113.24161735 101.828125 116.171875 C105.62029198 117.61780917 109.14713603 117.07142258 113 116 C116.41649646 113.19672085 117.14232424 110.68671863 117.875 106.5 C118.51184472 103.18286966 119.18727418 101.25301257 121.6875 98.9375 C125.57399232 96.66426864 127.56775198 96.43589571 132 97 C134.61328125 97.6953125 134.61328125 97.6953125 137 99 C138.0390625 101.42578125 138.0390625 101.42578125 138.625 104.3125 C140.18301313 111.17312777 140.18301313 111.17312777 144.75 116.3125 C148.06211832 117.32453615 150.55439226 117.42314481 154 117 C157.2634295 114.30412346 159.70258166 112.10075232 160.30859375 107.8203125 C160.73889616 98.82308027 157.98109114 91.72967238 152.171875 84.828125 C145.216275 78.21182257 137.88128525 75.78906489 128.375 75.5625 C116.96638881 75.95155996 110.6916786 79.38320542 103 88 Z " fill="#7F3CFF" transform="translate(266,181)"/>
<path d="M0 0 C1.04696045 -0.0306958 2.0939209 -0.0613916 3.17260742 -0.09301758 C11.58378705 -0.09504518 11.58378705 -0.09504518 15.2890625 2.90625 C18.6922924 6.68508722 18.75776734 8.49732715 18.80200195 13.50341797 C18.82125481 15.39711624 18.82125481 15.39711624 18.84089661 17.32907104 C18.84907038 18.71677252 18.85651289 20.10447846 18.86328125 21.4921875 C18.86735678 22.1924921 18.8714323 22.89279671 18.87563133 23.61432266 C18.89651367 27.33044388 18.91079853 31.04652808 18.92016602 34.76269531 C18.93115582 38.57313347 18.96546125 42.38297552 19.00533772 46.19320488 C19.03170908 49.14465287 19.03987645 52.09596429 19.04344749 55.04751968 C19.0482712 56.44993175 19.05976235 57.85233949 19.07848549 59.25463486 C19.26403194 74.08944449 15.93592131 85.48476333 5.78125 96.5 C-4.16886159 105.96076184 -15.61348586 107.99183269 -28.8125 107.77734375 C-39.8824874 107.3206386 -49.6400406 101.75116349 -57.125 93.75 C-66.38656972 82.51148269 -68.59820071 69.65283889 -67.375 55.5 C-64.94808616 38.36787725 -55.89071791 24.3034812 -42.83203125 13.37109375 C-37.10812939 9.15779238 -31.00813362 6.02558644 -24.375 3.5 C-23.54355469 3.17902344 -22.71210938 2.85804687 -21.85546875 2.52734375 C-14.6971601 0.27399623 -7.4448919 0.12750581 0 0 Z " fill="#7F3DFF" transform="translate(376.375,116.5)"/>
<path d="M0 0 C7.75240277 5.66986823 12.98186318 12.02825462 15.6875 21.375 C16.80439365 30.7569067 15.86168324 39.37263717 10.25 47.25 C4.31239316 54.50707503 -2.41391614 59.85879954 -12 61 C-21.18888056 61.75198424 -29.70525808 59.83579354 -37 54 C-43.06325488 48.77627272 -47.45913435 42.99505761 -49 35 C-49.802338 23.47410607 -48.47789431 15.07379862 -41.0234375 6.078125 C-30.21292395 -5.02456459 -13.59598635 -7.94842279 0 0 Z " fill="#7F3DFF" transform="translate(230,153)"/>
<path d="M0 0 C3.3192245 2.80640447 4.76517325 4.56214508 5.4733429 8.89830017 C5.66286204 12.58657023 5.69267463 16.24440061 5.6640625 19.9375 C5.66743509 21.3046105 5.67229139 22.67171806 5.67855835 24.03881836 C5.68590916 26.89693899 5.67528411 29.75427559 5.65185547 32.61230469 C5.62336637 36.26440337 5.63978033 39.9146648 5.66971779 43.56669617 C5.68784075 46.38763108 5.68201041 49.2081349 5.66907883 52.02908325 C5.66415136 54.02648114 5.67925833 56.02389621 5.69473267 58.02124023 C5.56454449 68.11086549 5.56454449 68.11086549 2.58520508 71.81420898 C-0.99296018 74.83954788 -3.4031287 75.37856587 -8 75 C-11.66689402 73.82382645 -13.40767361 72.83084118 -15.64306641 69.6953125 C-17.68113241 64.14508453 -17.42766886 58.8047134 -17.3984375 52.9375 C-17.40130768 51.67284912 -17.40417786 50.40819824 -17.40713501 49.10522461 C-17.40917358 46.43539397 -17.40517601 43.76639155 -17.39111328 41.09667969 C-17.37402167 37.68710765 -17.38387086 34.27824421 -17.40183067 30.86869812 C-17.41532223 27.59994056 -17.4058561 24.33126683 -17.3984375 21.0625 C-17.40451019 19.84361084 -17.41058289 18.62472168 -17.4168396 17.36889648 C-17.32818459 6.66835996 -17.32818459 6.66835996 -14 2 C-9.69468976 -1.10382832 -4.94817433 -2.22143472 0 0 Z " fill="#7E3DFF" transform="translate(219,11)"/>
<path d="M0 0 C3.02508145 1.73602105 5.41790069 3.83580137 7 7 C7.11036536 8.60707758 7.15911485 10.21858225 7.17700195 11.8293457 C7.18983719 12.83411453 7.20267242 13.83888336 7.21589661 14.87409973 C7.22328354 15.96365463 7.23067047 17.05320953 7.23828125 18.17578125 C7.246353 19.29309128 7.25442474 20.41040131 7.26274109 21.56156921 C7.27658946 23.92962081 7.28730823 26.29769243 7.29516602 28.66577148 C7.31238037 32.28733138 7.35626128 35.907979 7.40039062 39.52929688 C7.41051715 41.82811828 7.41903338 44.12694745 7.42578125 46.42578125 C7.44328934 47.50926346 7.46079742 48.59274567 7.47883606 49.70906067 C7.45708972 57.24800237 7.45708972 57.24800237 5.09057617 61.14135742 C2.05035102 63.84429262 0.17856431 64.84627422 -3.875 65.375 C-7.84487514 64.89861498 -9.89536536 63.46959574 -13 61 C-15.15891428 57.76162858 -15.26117536 56.81847576 -15.30639648 53.07299805 C-15.32238388 52.07153244 -15.33837128 51.07006683 -15.35484314 50.03825378 C-15.36020584 48.95699722 -15.36556854 47.87574066 -15.37109375 46.76171875 C-15.38463646 45.09143364 -15.38463646 45.09143364 -15.39845276 43.3874054 C-15.41296986 41.0295379 -15.4218456 38.67162999 -15.42553711 36.3137207 C-15.43742014 32.71170822 -15.48658325 29.11141576 -15.53710938 25.50976562 C-15.54657498 23.21875836 -15.55380936 20.92774057 -15.55859375 18.63671875 C-15.57812607 17.56153488 -15.59765839 16.48635101 -15.61778259 15.37858582 C-15.56754315 7.02214786 -15.56754315 7.02214786 -12.59008789 3.33520508 C-8.65339741 -0.21408745 -5.22118326 -0.89118527 0 0 Z " fill="#7F3DFF" transform="translate(260,53)"/>
<path d="M0 0 C3.57623788 1.9137306 5.69762236 4.09286708 7 8 C7.10150269 9.55344107 7.14834158 11.11077936 7.16113281 12.66748047 C7.17074036 13.61211151 7.1803479 14.55674255 7.19024658 15.52999878 C7.19449646 16.54877106 7.19874634 17.56754333 7.203125 18.6171875 C7.20882507 19.66649445 7.21452515 20.71580139 7.22039795 21.79690552 C7.22984686 24.01775097 7.2363815 26.23861044 7.24023438 28.45947266 C7.24994208 31.85474112 7.28096784 35.24940482 7.3125 38.64453125 C7.31902995 40.80207974 7.32428045 42.95963256 7.328125 45.1171875 C7.3404718 46.13191132 7.3528186 47.14663513 7.36553955 48.19210815 C7.34570051 54.4783553 6.66089502 58.03207864 2.375 62.8125 C-1.34822642 64.67411321 -4.92566692 64.6754242 -9 64 C-11.87029869 62.20606332 -13.49131638 61.01736724 -15 58 C-15.11051179 56.36228281 -15.15913334 54.72020173 -15.17700195 53.07885742 C-15.18983719 52.05406784 -15.20267242 51.02927826 -15.21589661 49.97343445 C-15.22328354 48.86200577 -15.23067047 47.75057709 -15.23828125 46.60546875 C-15.246353 45.46596268 -15.25442474 44.3264566 -15.26274109 43.15242004 C-15.27658987 40.73728969 -15.28730846 38.3221397 -15.29516602 35.90698242 C-15.31238115 32.21300176 -15.35626194 28.51991529 -15.40039062 24.82617188 C-15.41051706 22.48177743 -15.41903331 20.13737536 -15.42578125 17.79296875 C-15.45204338 16.13493477 -15.45204338 16.13493477 -15.47883606 14.44340515 C-15.45711082 6.76310335 -15.45711082 6.76310335 -13.09838867 2.82543945 C-9.0933403 -0.65864975 -5.14261458 -0.78519786 0 0 Z " fill="#7E3CFF" transform="translate(175,64)"/>
</svg>
