<svg width="60" height="60" viewBox="0 0 60 60" fill="none" xmlns="http://www.w3.org/2000/svg">
<rect width="60" height="60" rx="16" fill="#CFFAEA"/>
<path d="M38.8375 27.4264C37.9854 26.5634 37.0077 25.8343 35.9375 25.2639C35.6576 25.1073 35.3697 24.9654 35.075 24.8389C34.4808 24.5702 33.8664 24.3486 33.2375 24.1764L32.6375 24.0389C32.2 23.9514 31.775 23.8889 31.3875 23.8389H30.8H30.5C30.1796 23.8141 29.8579 23.8141 29.5375 23.8389H29.2625H28.8H28.625C28.2048 23.8749 27.7873 23.9376 27.375 24.0264L26.7875 24.1639C26.1641 24.3355 25.5541 24.5528 24.9625 24.8139C24.6625 24.9514 24.3625 25.0889 24.0875 25.2389C22.0966 26.3077 20.4327 27.8961 19.2728 29.8353C18.1128 31.7744 17.5001 33.9918 17.5 36.2514V40.0014C17.5 41.659 18.1585 43.2487 19.3306 44.4208C20.5027 45.5929 22.0924 46.2514 23.75 46.2514H36.25C37.9076 46.2514 39.4973 45.5929 40.6694 44.4208C41.8415 43.2487 42.5 41.659 42.5 40.0014V36.2514C42.5077 34.6107 42.1876 32.9849 41.5587 31.4695C40.9298 29.9541 40.0046 28.5795 38.8375 27.4264ZM29.375 33.7514H30.625C31.4538 33.6685 32.2816 33.9182 32.9262 34.4457C33.5709 34.9731 33.9796 35.7351 34.0625 36.5639C34.1454 37.3927 33.8956 38.2205 33.3682 38.8651C32.8407 39.5098 32.0788 39.9185 31.25 40.0014C31.25 40.3329 31.1183 40.6508 30.8839 40.8853C30.6495 41.1197 30.3315 41.2514 30 41.2514C29.6685 41.2514 29.3505 41.1197 29.1161 40.8853C28.8817 40.6508 28.75 40.3329 28.75 40.0014H27.5C27.1685 40.0014 26.8505 39.8697 26.6161 39.6353C26.3817 39.4008 26.25 39.0829 26.25 38.7514C26.25 38.4198 26.3817 38.1019 26.6161 37.8675C26.8505 37.6331 27.1685 37.5014 27.5 37.5014H30.625C30.7908 37.5014 30.9497 37.4355 31.0669 37.3183C31.1842 37.2011 31.25 37.0421 31.25 36.8764C31.25 36.7106 31.1842 36.5516 31.0669 36.4344C30.9497 36.3172 30.7908 36.2514 30.625 36.2514H29.375C28.6 36.2521 27.8524 35.9649 27.2773 35.4455C26.7022 34.9261 26.3406 34.2115 26.2627 33.4404C26.1848 32.6694 26.3962 31.8969 26.8558 31.2729C27.3155 30.649 27.9905 30.2181 28.75 30.0639V30.0014C28.75 29.6698 28.8817 29.3519 29.1161 29.1175C29.3505 28.8831 29.6685 28.7514 30 28.7514C30.3315 28.7514 30.6495 28.8831 30.8839 29.1175C31.1183 29.3519 31.25 29.6698 31.25 30.0014H32.5C32.8315 30.0014 33.1495 30.1331 33.3839 30.3675C33.6183 30.6019 33.75 30.9198 33.75 31.2514C33.75 31.5829 33.6183 31.9008 33.3839 32.1353C33.1495 32.3697 32.8315 32.5014 32.5 32.5014H29.375C29.2092 32.5014 29.0503 32.5672 28.9331 32.6844C28.8158 32.8016 28.75 32.9606 28.75 33.1264C28.75 33.2921 28.8158 33.4511 28.9331 33.5683C29.0503 33.6855 29.2092 33.7514 29.375 33.7514Z" fill="#00A86B"/>
<path d="M36.8261 19.5138L36.3387 22.6638L36.1012 22.5013C35.4065 22.1856 34.6875 21.9264 33.9512 21.7263C32.6612 21.3946 31.333 21.2348 30.0012 21.2513C28.6674 21.2556 27.3397 21.4321 26.0512 21.7763C25.3241 21.98 24.6137 22.2391 23.9262 22.5513L23.6637 22.6763L23.1762 19.5138C23.0759 18.8602 23.1503 18.1918 23.3917 17.5762C23.6331 16.9606 24.033 16.4198 24.5508 16.0086C25.0686 15.5975 25.6859 15.3305 26.3401 15.2348C26.9944 15.1391 27.6623 15.2181 28.2762 15.4638L29.5262 15.9638C29.8231 16.0821 30.1542 16.0821 30.4512 15.9638L31.7012 15.4638C32.315 15.2181 32.9829 15.1391 33.6372 15.2348C34.2914 15.3305 34.9087 15.5975 35.4265 16.0086C35.9443 16.4198 36.3442 16.9606 36.5856 17.5762C36.827 18.1918 36.9014 18.8602 36.8012 19.5138H36.8261Z" fill="#00A86B"/>
</svg>
