<svg width="24" height="24" viewBox="0 0 24 24" fill="none" xmlns="http://www.w3.org/2000/svg">
<g id="Layer 2">
<g id="shopping-cart">
<path id="Vector" d="M23.6469 5.33333C23.4328 4.93417 23.1261 4.60153 22.7568 4.36786C22.3876 4.13419 21.9683 4.00746 21.54 4.00004H5.67625L4.95742 0.986806C4.88479 0.695933 4.72276 0.440083 4.49772 0.260926C4.27267 0.0817686 3.99787 -0.010139 3.71807 0.000171597H1.23936C0.910658 0.000171597 0.595423 0.140643 0.362999 0.390683C0.130574 0.640723 0 0.979851 0 1.33346C0 1.68707 0.130574 2.0262 0.362999 2.27624C0.595423 2.52628 0.910658 2.66675 1.23936 2.66675H2.77616L6.19678 16.3463C6.2694 16.6372 6.43143 16.893 6.65648 17.0722C6.88153 17.2513 7.15633 17.3433 7.43613 17.3329H18.5903C18.8192 17.3322 19.0434 17.2633 19.2381 17.1338C19.4328 17.0044 19.5904 16.8195 19.6934 16.5996L23.7584 7.85325C23.9346 7.45595 24.0167 7.0179 23.9972 6.5782C23.9777 6.1385 23.8574 5.71082 23.6469 5.33333Z" fill="#7F3DFF"/>
<path id="Vector_2" d="M6.81606 23.9993C7.84278 23.9993 8.6751 23.1039 8.6751 21.9993C8.6751 20.8948 7.84278 19.9994 6.81606 19.9994C5.78935 19.9994 4.95703 20.8948 4.95703 21.9993C4.95703 23.1039 5.78935 23.9993 6.81606 23.9993Z" fill="#7F3DFF"/>
<path id="Vector_3" d="M19.2096 23.9993C20.2363 23.9993 21.0687 23.1039 21.0687 21.9993C21.0687 20.8948 20.2363 19.9994 19.2096 19.9994C18.1829 19.9994 17.3506 20.8948 17.3506 21.9993C17.3506 23.1039 18.1829 23.9993 19.2096 23.9993Z" fill="#7F3DFF"/>
</g>
</g>
</svg>
