<svg width="60" height="60" viewBox="0 0 60 60" fill="none" xmlns="http://www.w3.org/2000/svg">
<rect width="60" height="60" rx="16" fill="#FCEED4"/>
<path d="M41.2516 35H18.7516H18.2266L19.2266 40C19.5147 41.4117 20.2818 42.6805 21.3979 43.5916C22.5141 44.5028 23.9107 45.0003 25.3516 45H34.6516C36.0924 45.0003 37.489 44.5028 38.6052 43.5916C39.7213 42.6805 40.4884 41.4117 40.7766 40L41.7766 35H41.2516ZM28.7516 41.25C28.7516 41.5815 28.6199 41.8995 28.3854 42.1339C28.151 42.3683 27.8331 42.5 27.5016 42.5C27.17 42.5 26.8521 42.3683 26.6177 42.1339C26.3833 41.8995 26.2516 41.5815 26.2516 41.25V38.75C26.2516 38.4185 26.3833 38.1005 26.6177 37.8661C26.8521 37.6317 27.17 37.5 27.5016 37.5C27.8331 37.5 28.151 37.6317 28.3854 37.8661C28.6199 38.1005 28.7516 38.4185 28.7516 38.75V41.25ZM33.7516 41.25C33.7516 41.5815 33.6199 41.8995 33.3854 42.1339C33.151 42.3683 32.8331 42.5 32.5016 42.5C32.17 42.5 31.8521 42.3683 31.6177 42.1339C31.3833 41.8995 31.2516 41.5815 31.2516 41.25V38.75C31.2516 38.4185 31.3833 38.1005 31.6177 37.8661C31.8521 37.6317 32.17 37.5 32.5016 37.5C32.8331 37.5 33.151 37.6317 33.3854 37.8661C33.6199 38.1005 33.7516 38.4185 33.7516 38.75V41.25Z" fill="#FCAC12"/>
<path d="M41.25 22.5H38.75V21.25C38.75 20.4292 38.5883 19.6165 38.2742 18.8582C37.9602 18.0999 37.4998 17.4109 36.9194 16.8306C36.3391 16.2502 35.6501 15.7898 34.8918 15.4758C34.1335 15.1617 33.3208 15 32.5 15H27.5C25.8424 15 24.2527 15.6585 23.0806 16.8306C21.9085 18.0027 21.25 19.5924 21.25 21.25V22.5H18.75C17.7554 22.5 16.8016 22.8951 16.0983 23.5983C15.3951 24.3016 15 25.2554 15 26.25V28.75C15 29.7446 15.3951 30.6984 16.0983 31.4017C16.8016 32.1049 17.7554 32.5 18.75 32.5H41.25C42.2446 32.5 43.1984 32.1049 43.9017 31.4017C44.6049 30.6984 45 29.7446 45 28.75V26.25C45 25.2554 44.6049 24.3016 43.9017 23.5983C43.1984 22.8951 42.2446 22.5 41.25 22.5ZM23.75 21.25C23.75 20.2554 24.1451 19.3016 24.8483 18.5983C25.5516 17.8951 26.5054 17.5 27.5 17.5H32.5C33.4946 17.5 34.4484 17.8951 35.1517 18.5983C35.8549 19.3016 36.25 20.2554 36.25 21.25V22.5H23.75V21.25Z" fill="#FCAC12"/>
</svg>
