<svg width="28" height="22" viewBox="0 0 28 22" fill="none" xmlns="http://www.w3.org/2000/svg">
<path d="M18.1296 12.9313V13.9313C18.1296 14.5879 18.0003 15.2381 17.749 15.8447C17.4977 16.4514 17.1294 17.0026 16.6651 17.4668C16.2008 17.9311 15.6496 18.2994 15.043 18.5507C14.4364 18.802 13.7862 18.9313 13.1296 18.9313H9.86959C9.85416 19.4782 9.68948 20.0104 9.39337 20.4705C9.09726 20.9305 8.68098 21.3008 8.18958 21.5413C7.77975 21.7461 7.32773 21.8522 6.86959 21.8513C6.19185 21.8553 5.53273 21.6298 4.99959 21.2113L1.28959 18.3013C0.928253 18.0209 0.635825 17.6616 0.434657 17.2508C0.233488 16.84 0.128906 16.3887 0.128906 15.9313C0.128906 15.4739 0.233488 15.0226 0.434657 14.6118C0.635825 14.2011 0.928253 13.8417 1.28959 13.5613L4.99959 10.6513C5.44658 10.2946 5.98624 10.073 6.55496 10.0128C7.12368 9.95254 7.69777 10.0561 8.20959 10.3113C8.89111 10.6373 9.41598 11.2197 9.66959 11.9313H17.0996C17.2334 11.9273 17.3667 11.9502 17.4915 11.9986C17.6163 12.0471 17.7301 12.1201 17.8262 12.2134C17.9222 12.3066 17.9986 12.4182 18.0507 12.5416C18.1028 12.6649 18.1296 12.7974 18.1296 12.9313Z" fill="#C6C6C6"/>
<path d="M27.8711 6.07142C27.8712 6.52874 27.7667 6.98004 27.5656 7.3908C27.3646 7.80156 27.0723 8.16092 26.7111 8.44142L23.0011 11.3514C22.4605 11.7715 21.7957 12.0001 21.1111 12.0014C20.653 12.0023 20.2009 11.8962 19.7911 11.6914C19.1096 11.3654 18.5847 10.7831 18.3311 10.0714H10.8711C10.6059 10.0714 10.3515 9.96606 10.164 9.77853C9.97645 9.59099 9.87109 9.33663 9.87109 9.07142V8.07142C9.87109 6.74534 10.3979 5.47357 11.3356 4.53588C12.2732 3.5982 13.545 3.07142 14.8711 3.07142H18.1311C18.1433 2.51237 18.3114 1.96785 18.6166 1.4993C18.9219 1.03076 19.3519 0.656837 19.8584 0.419741C20.3648 0.182645 20.9274 0.0918084 21.4827 0.157483C22.038 0.223158 22.5639 0.442729 23.0011 0.791418L26.7111 3.70142C27.0723 3.98191 27.3646 4.34127 27.5656 4.75204C27.7667 5.1628 27.8712 5.61409 27.8711 6.07142Z" fill="#C6C6C6"/>
</svg>
