<svg width="24" height="21" viewBox="0 0 24 21" fill="none" xmlns="http://www.w3.org/2000/svg">
<path d="M23.5 4.99982H21V3.57982C21.0009 3.14279 20.8587 2.71748 20.595 2.36894C20.3314 2.0204 19.9608 1.76782 19.54 1.64982C17.0672 1.09596 14.5311 0.877329 12 0.999819C9.46889 0.877329 6.9328 1.09596 4.46 1.64982C4.0392 1.76782 3.66863 2.0204 3.40497 2.36894C3.14131 2.71748 2.99907 3.14279 3 3.57982V4.99982H0.5C0.367392 4.99982 0.240215 5.0525 0.146447 5.14627C0.0526784 5.24003 0 5.36721 0 5.49982L0 9.49982C0 9.63243 0.0526784 9.7596 0.146447 9.85337C0.240215 9.94714 0.367392 9.99982 0.5 9.99982H1.5C1.63261 9.99982 1.75979 9.94714 1.85355 9.85337C1.94732 9.7596 2 9.63243 2 9.49982V5.99982H3V16.9998C3.00211 17.3488 3.09552 17.6912 3.27095 17.993C3.44638 18.2947 3.69772 18.5453 4 18.7198V20.4998C4 20.6324 4.05268 20.7596 4.14645 20.8534C4.24021 20.9471 4.36739 20.9998 4.5 20.9998H7.5C7.63261 20.9998 7.75979 20.9471 7.85355 20.8534C7.94732 20.7596 8 20.6324 8 20.4998V18.9998H16V20.4998C16 20.6324 16.0527 20.7596 16.1464 20.8534C16.2402 20.9471 16.3674 20.9998 16.5 20.9998H19.5C19.6326 20.9998 19.7598 20.9471 19.8536 20.8534C19.9473 20.7596 20 20.6324 20 20.4998V18.7198C20.3023 18.5453 20.5536 18.2947 20.7291 17.993C20.9045 17.6912 20.9979 17.3488 21 16.9998V5.99982H22V9.49982C22 9.63243 22.0527 9.7596 22.1464 9.85337C22.2402 9.94714 22.3674 9.99982 22.5 9.99982H23.5C23.6326 9.99982 23.7598 9.94714 23.8536 9.85337C23.9473 9.7596 24 9.63243 24 9.49982V5.49982C24 5.36721 23.9473 5.24003 23.8536 5.14627C23.7598 5.0525 23.6326 4.99982 23.5 4.99982ZM19 16.4998C19 16.6324 18.9473 16.7596 18.8536 16.8534C18.7598 16.9471 18.6326 16.9998 18.5 16.9998H16.5C16.415 17 16.3314 16.9785 16.2571 16.9374C16.1827 16.8963 16.12 16.8369 16.075 16.7648C16.03 16.6928 16.004 16.6104 15.9997 16.5256C15.9953 16.4407 16.0126 16.3561 16.05 16.2798L16.55 15.2798C16.5912 15.1957 16.6553 15.1248 16.7348 15.0753C16.8144 15.0258 16.9063 14.9996 17 14.9998H18.5C18.6326 14.9998 18.7598 15.0525 18.8536 15.1463C18.9473 15.24 19 15.3672 19 15.4998V16.4998ZM5 3.56982C7.29838 3.07461 9.65178 2.88298 12 2.99982C14.3487 2.88241 16.7026 3.07744 19 3.57982V11.3298C16.6936 11.7772 14.3494 12.0016 12 11.9998C9.65057 12.0016 7.30643 11.7772 5 11.3298V3.56982ZM5 15.4998C5 15.3672 5.05268 15.24 5.14645 15.1463C5.24021 15.0525 5.36739 14.9998 5.5 14.9998H7C7.09371 14.9996 7.18559 15.0258 7.26515 15.0753C7.34472 15.1248 7.40877 15.1957 7.45 15.2798L7.95 16.2798C7.98739 16.3561 8.00471 16.4407 8.00034 16.5256C7.99596 16.6104 7.97004 16.6928 7.925 16.7648C7.87997 16.8369 7.81731 16.8963 7.74295 16.9374C7.66859 16.9785 7.58497 17 7.5 16.9998H5.5C5.36739 16.9998 5.24021 16.9471 5.14645 16.8534C5.05268 16.7596 5 16.6324 5 16.4998V15.4998ZM14.5 15.9998H9.5C9.36739 15.9998 9.24021 15.9471 9.14645 15.8534C9.05268 15.7596 9 15.6324 9 15.4998C9 15.3672 9.05268 15.24 9.14645 15.1463C9.24021 15.0525 9.36739 14.9998 9.5 14.9998H14.5C14.6326 14.9998 14.7598 15.0525 14.8536 15.1463C14.9473 15.24 15 15.3672 15 15.4998C15 15.6324 14.9473 15.7596 14.8536 15.8534C14.7598 15.9471 14.6326 15.9998 14.5 15.9998Z" fill="#7F3DFF"/>
</svg>
